<?xml version="1.0" encoding="utf-8"?>
<!-- Generator: Adobe Adobe Illustrator 24.2.0, SVG Export Plug-In . SVG Version: 6.00 Build 0)  -->
<svg version="1.1" xmlns="http://www.w3.org/2000/svg" xmlns:xlink="http://www.w3.org/1999/xlink" x="0px" y="0px"
	 viewBox="0 0 39 39" style="enable-background:new 0 0 39 39;" xml:space="preserve">
<style type="text/css">
	.st0{fill:url(#SVGID_1_);}
	.st1{fill:url(#SVGID_2_);}
	.st2{fill:url(#SVGID_3_);}
	.st3{fill:url(#SVGID_4_);}
	.st4{fill:url(#SVGID_5_);}
	.st5{fill:url(#SVGID_6_);}
	.st6{fill:#FFFFFF;stroke:#FFFFFF;stroke-miterlimit:10;}
	.st7{fill:#FFFFFF;stroke:#FFFFFF;stroke-width:0.5;stroke-miterlimit:10;}
</style>
<g id="レイヤー_1のコピー">
	<g>
		<g>
			<linearGradient id="SVGID_1_" gradientUnits="userSpaceOnUse" x1="3.5" y1="19.5" x2="35.5" y2="19.5">
				<stop  offset="0" style="stop-color:#FF5722"/>
				<stop  offset="0.6623" style="stop-color:#643645"/>
				<stop  offset="1" style="stop-color:#152557"/>
			</linearGradient>
			<path class="st0" d="M28.77,33.59c-0.09-0.02-0.11-0.04-0.1-0.05c-0.01,0-0.01,0-0.02,0c-0.01,0-0.02,0-0.04,0
				c-0.02,0-0.03,0-0.07,0.01c-0.18,0.03-0.34,0.05-0.5,0.06c-0.33,0.08-0.67,0.09-0.99,0c-0.1,0.01-0.19,0.03-0.29,0.03l0.05-0.01
				c-0.39,0.05-0.77,0.02-1.23-0.05c-0.09-0.01-0.16-0.04-0.24-0.07H10.1c-2.29,0-4.15-1.51-4.15-3.38V8.87
				C5.94,7,7.8,5.49,10.1,5.49H28.9c2.29,0,4.16,1.51,4.16,3.38v18.82h-0.02c0.26,0.02,0.51,0.05,0.76,0.1
				c0.06,0,0.11,0.03,0.16,0.05c0.01,0,0.07,0,0.16,0c0.07,0,0.13,0.02,0.2,0.02c0.33-0.16,0.85-0.14,1.17-0.16V8.87
				c0-2.96-2.96-5.37-6.6-5.37H10.1c-3.64,0-6.6,2.41-6.6,5.37v21.26c0,2.96,2.96,5.37,6.6,5.37h16.81l0.72-0.58l1.56-1.27
				C29.04,33.64,28.9,33.63,28.77,33.59z"/>
			<linearGradient id="SVGID_2_" gradientUnits="userSpaceOnUse" x1="12.8018" y1="23.4717" x2="26.198" y2="23.4717">
				<stop  offset="0" style="stop-color:#FF5722"/>
				<stop  offset="1" style="stop-color:#994C34"/>
			</linearGradient>
			<path class="st1" d="M22.7,20.9c-0.91,0.52-2.01,0.82-3.2,0.82c-1.19,0-2.29-0.3-3.2-0.82c-1.59,0.55-2.56,1.53-3.15,2.39
				c-0.79,1.14-0.17,2.76,1.19,2.76s5.16,0,5.16,0s3.79,0,5.16,0s1.98-1.61,1.19-2.76C25.26,22.43,24.28,21.45,22.7,20.9z"/>
			<linearGradient id="SVGID_3_" gradientUnits="userSpaceOnUse" x1="15.2827" y1="16.7985" x2="23.7166" y2="16.7985">
				<stop  offset="0" style="stop-color:#FF5722"/>
				<stop  offset="1" style="stop-color:#994C34"/>
			</linearGradient>
			<path class="st2" d="M19.5,20.64c2.33,0,4.22-1.53,4.22-3.43v-0.82c0-1.9-1.89-3.43-4.22-3.43c-2.33,0-4.22,1.54-4.22,3.43v0.82
				C15.28,19.11,17.17,20.64,19.5,20.64z"/>
		</g>
	</g>
</g>
<g id="レイヤー_2">
	<g>
		<g>
			<linearGradient id="SVGID_4_" gradientUnits="userSpaceOnUse" x1="29.1838" y1="31.2847" x2="36.2285" y2="27.0687">
				<stop  offset="0" style="stop-color:#FF5722"/>
				<stop  offset="0.2924" style="stop-color:#B14633"/>
				<stop  offset="0.4562" style="stop-color:#8A3E3C"/>
				<stop  offset="1" style="stop-color:#152557"/>
				<stop  offset="1" style="stop-color:#152557"/>
				<stop  offset="1" style="stop-color:#152557"/>
				<stop  offset="1" style="stop-color:#152557"/>
				<stop  offset="1" style="stop-color:#152557"/>
			</linearGradient>
			<path class="st3" d="M28.71,35.47c0,0,0.02-0.02,0.05-0.05l4.94-4.95c0.03-0.03,0.05-0.05,0.05-0.05c0,0,0.03-0.03,0.05-0.05
				l2.62-2.62c0,0,0,0,0,0l-2.92-2.93c0,0,0,0,0,0l-2.62,2.62c-0.03,0.03-0.05,0.05-0.05,0.05s-0.03,0.03-0.05,0.05l-4.99,5
				c0,0,0,0,0,0l-1.28,4.21c0,0,0,0,0,0l4.14-1.26C28.68,35.48,28.71,35.47,28.71,35.47z"/>
			<linearGradient id="SVGID_5_" gradientUnits="userSpaceOnUse" x1="29.9476" y1="32.5608" x2="36.9922" y2="28.3448">
				<stop  offset="0" style="stop-color:#FF5722"/>
				<stop  offset="0.2924" style="stop-color:#B14633"/>
				<stop  offset="0.4562" style="stop-color:#8A3E3C"/>
				<stop  offset="1" style="stop-color:#152557"/>
				<stop  offset="1" style="stop-color:#152557"/>
				<stop  offset="1" style="stop-color:#152557"/>
				<stop  offset="1" style="stop-color:#152557"/>
				<stop  offset="1" style="stop-color:#152557"/>
			</linearGradient>
			<polygon class="st4" points="25.43,35.81 26.07,33.71 26.07,33.71 27.53,35.17 27.53,35.18 25.43,35.82 			"/>
			<linearGradient id="SVGID_6_" gradientUnits="userSpaceOnUse" x1="28.1099" y1="29.5375" x2="31.1578" y2="27.9188">
				<stop  offset="0" style="stop-color:#FF5722"/>
				<stop  offset="0.142" style="stop-color:#F05425"/>
				<stop  offset="0.4146" style="stop-color:#C94C2E"/>
				<stop  offset="0.7866" style="stop-color:#8B3E3C"/>
				<stop  offset="1" style="stop-color:#643645"/>
			</linearGradient>
			<path class="st5" d="M37.26,26.39c0.33-0.33,0.33-0.86,0-1.18l-1.21-1.22c-0.33-0.33-0.86-0.33-1.18,0l-0.61,0.61c0,0,0,0,0,0
				l2.39,2.4c0,0,0,0,0,0L37.26,26.39z"/>
		</g>
	</g>
	<line class="st6" x1="25.24" y1="31.48" x2="24.5" y2="36.75"/>
	<line class="st7" x1="32.5" y1="24.53" x2="36.42" y2="27.74"/>
</g>
</svg>
