<?xml version="1.0" encoding="utf-8"?>
<!-- Generator: Adobe Adobe Illustrator 24.2.0, SVG Export Plug-In . SVG Version: 6.00 Build 0)  -->
<svg version="1.1" id="レイヤー_1のコピー" xmlns="http://www.w3.org/2000/svg" xmlns:xlink="http://www.w3.org/1999/xlink"
	 x="0px" y="0px" viewBox="0 0 39 39" style="enable-background:new 0 0 39 39;" xml:space="preserve">
<style type="text/css">
	.st0{fill:url(#SVGID_1_);}
	.st1{fill:url(#SVGID_2_);}
	.st2{fill:url(#SVGID_3_);stroke:#FFFFFF;stroke-width:0.3;stroke-miterlimit:10;}
</style>
<g>
	<g>
		<linearGradient id="SVGID_1_" gradientUnits="userSpaceOnUse" x1="10.1591" y1="27.202" x2="18.1777" y2="21.9549">
			<stop  offset="0" style="stop-color:#FF5722"/>
			<stop  offset="0.1222" style="stop-color:#F65524"/>
			<stop  offset="0.3247" style="stop-color:#DC4F2A"/>
			<stop  offset="0.5811" style="stop-color:#B44733"/>
			<stop  offset="0.5963" style="stop-color:#B14634"/>
			<stop  offset="0.6061" style="stop-color:#AF4634"/>
			<stop  offset="0.7938" style="stop-color:#AD4634"/>
			<stop  offset="0.8614" style="stop-color:#A64436"/>
			<stop  offset="0.9096" style="stop-color:#9B4239"/>
			<stop  offset="0.9486" style="stop-color:#8A3E3C"/>
			<stop  offset="0.9815" style="stop-color:#743941"/>
			<stop  offset="1" style="stop-color:#643645"/>
		</linearGradient>
		<path class="st0" d="M26.01,8.91c-2.08-2.11-4.96-3.42-8.13-3.41c-3.17,0-6.05,1.31-8.13,3.41c-2.08,2.11-3.37,5.03-3.37,8.24
			V33.5h23v-0.92V17.16C29.38,13.94,28.09,11.02,26.01,8.91z M27.56,31.66H8.19v-14.5c0-2.72,1.08-5.17,2.84-6.95
			c1.76-1.78,4.17-2.88,6.85-2.88c2.68,0,5.09,1.1,6.85,2.88c1.76,1.78,2.84,4.23,2.84,6.95L27.56,31.66L27.56,31.66z"/>
		<linearGradient id="SVGID_2_" gradientUnits="userSpaceOnUse" x1="10.4495" y1="21.9789" x2="15.792" y2="21.9789">
			<stop  offset="0" style="stop-color:#FF5722"/>
			<stop  offset="1" style="stop-color:#643645"/>
		</linearGradient>
		<path class="st1" d="M13.12,19.27c-0.74,0-1.41,0.3-1.89,0.79c-0.48,0.49-0.78,1.17-0.78,1.91c0,0.75,0.3,1.43,0.78,1.91
			c0.48,0.49,1.15,0.79,1.89,0.79c0.73,0,1.41-0.3,1.89-0.79c0.48-0.49,0.78-1.17,0.78-1.91c0-0.75-0.3-1.43-0.78-1.91
			C14.53,19.57,13.86,19.27,13.12,19.27z M14.11,22.98c-0.26,0.26-0.6,0.42-0.99,0.42c-0.39,0-0.74-0.16-0.99-0.42
			c-0.25-0.26-0.41-0.61-0.41-1.01c0-0.4,0.16-0.75,0.41-1.01c0.26-0.26,0.6-0.42,0.99-0.42c0.39,0,0.74,0.16,0.99,0.42
			c0.25,0.26,0.41,0.61,0.41,1.01C14.52,22.37,14.37,22.73,14.11,22.98z"/>
	</g>
</g>
<g>
	<g>
		<linearGradient id="SVGID_3_" gradientUnits="userSpaceOnUse" x1="25.65" y1="19.5" x2="36.625" y2="19.5">
			<stop  offset="0" style="stop-color:#152557"/>
			<stop  offset="0.4293" style="stop-color:#152557"/>
			<stop  offset="0.5" style="stop-color:#152557"/>
			<stop  offset="0.7147" style="stop-color:#152557"/>
			<stop  offset="0.75" style="stop-color:#152557"/>
			<stop  offset="1" style="stop-color:#152557"/>
		</linearGradient>
		<path class="st2" d="M36.27,18.88l-5.77-4.13c-0.47-0.34-1.23-0.33-1.7,0.01c-0.47,0.34-0.46,0.89,0.01,1.23l3.69,2.65h-9.19
			c-0.66,0-1.2,0.39-1.2,0.87c0,0.48,0.54,0.87,1.2,0.87h9.19l-3.69,2.65c-0.47,0.34-0.47,0.89-0.01,1.23
			c0.47,0.34,1.22,0.34,1.7,0.01l5.77-4.13c0.23-0.16,0.36-0.39,0.36-0.62C36.62,19.27,36.5,19.05,36.27,18.88z"/>
	</g>
</g>
</svg>
