<?xml version="1.0" encoding="utf-8"?>
<!-- Generator: Adobe Adobe Illustrator 24.2.0, SVG Export Plug-In . SVG Version: 6.00 Build 0)  -->
<svg version="1.1" xmlns="http://www.w3.org/2000/svg" xmlns:xlink="http://www.w3.org/1999/xlink" x="0px" y="0px"
	 viewBox="0 0 39 39" style="enable-background:new 0 0 39 39;" xml:space="preserve">
<style type="text/css">
	.st0{fill:url(#SVGID_1_);}
	.st1{fill:#FFFFFF;}
</style>
<g id="レイヤー_1のコピー">
	<linearGradient id="SVGID_1_" gradientUnits="userSpaceOnUse" x1="1.5" y1="19.5" x2="37.5" y2="19.5">
		<stop  offset="0" style="stop-color:#FF5722"/>
		<stop  offset="0.5727" style="stop-color:#994C34"/>
		<stop  offset="1" style="stop-color:#152557"/>
	</linearGradient>
	<circle class="st0" cx="19.5" cy="19.5" r="18"/>
	<g>
		<g>
			<path class="st1" d="M24.25,21.59c-1.35,0.77-2.98,1.22-4.75,1.22c-1.77,0-3.4-0.45-4.75-1.22c-2.36,0.82-3.8,2.28-4.69,3.56
				c-1.17,1.7-0.25,4.11,1.77,4.11s7.66,0,7.66,0s5.64,0,7.66,0s2.95-2.41,1.77-4.11C28.05,23.86,26.61,22.41,24.25,21.59z"/>
			<path class="st1" d="M19.5,21.2c3.46,0,6.27-2.29,6.27-5.11v-1.22c0-2.82-2.81-5.11-6.27-5.11c-3.46,0-6.27,2.29-6.27,5.11v1.22
				C13.23,18.91,16.04,21.2,19.5,21.2z"/>
		</g>
	</g>
</g>
<g id="レイヤー_2">
</g>
</svg>
