<!--?xml version="1.0" encoding="utf-8"?-->
<!-- Generator: Adobe Illustrator 19.1.1, SVG Export Plug-In . SVG Version: 6.00 Build 0)  -->
<svg version="1.1" id="_x31_0" xmlns="http://www.w3.org/2000/svg" xmlns:xlink="http://www.w3.org/1999/xlink" x="0px" y="0px" viewBox="0 0 512 512" style="width: 32px; height: 32px; opacity: 1;" xml:space="preserve">
<style type="text/css">
	.st0{fill:#374149;}
</style>
<g>
	<path class="st0" d="M87.959,457.652h93.797c6.527,0,11.82-5.289,11.82-11.816V252.188c0-6.524,5.294-11.821,11.821-11.821h52.476
		c9.766,0,15.321-11.172,9.422-18.953L144.279,59.028c-4.73-6.238-14.113-6.238-18.843,0L2.42,221.414
		c-5.898,7.781-0.343,18.953,9.418,18.953h52.48c6.527,0,11.821,5.297,11.821,11.821v193.648
		C76.139,452.363,81.428,457.652,87.959,457.652z"></path>
	<path class="st0" d="M435.862,259.809V66.168c0-6.527-5.294-11.82-11.817-11.82h-93.801c-6.531,0-11.82,5.293-11.82,11.82v193.641
		c0,6.531-5.293,11.824-11.821,11.824h-52.48c-9.762,0-15.313,11.172-9.418,18.954l123.016,162.382c4.73,6.242,14.113,6.242,18.84,0
		L509.58,290.586c5.898-7.782,0.344-18.954-9.422-18.954h-52.477C441.154,271.633,435.862,266.34,435.862,259.809z"></path>
</g>
</svg>
