<?xml version="1.0" encoding="utf-8"?>
<!-- Generator: Adobe Adobe Illustrator 24.2.0, SVG Export Plug-In . SVG Version: 6.00 Build 0)  -->
<svg version="1.1" xmlns="http://www.w3.org/2000/svg" xmlns:xlink="http://www.w3.org/1999/xlink" x="0px" y="0px" width="604px"
	 height="178px" viewBox="0 0 604 178" style="enable-background:new 0 0 604 178;" xml:space="preserve">
<style type="text/css">
	.st0{opacity:0.7098;fill:none;stroke:url(#SVGID_1_);stroke-width:12;stroke-linecap:square;stroke-miterlimit:4;}
	.st1{fill:#FF5722;fill-opacity:0.3216;}
	.st2{opacity:0.7098;}
	.st3{fill:none;stroke:#000000;stroke-miterlimit:10;}
</style>
<g id="レイヤー_1">
	
		<linearGradient id="SVGID_1_" gradientUnits="userSpaceOnUse" x1="133.6003" y1="177.5262" x2="370.53" y2="-59.4035" gradientTransform="matrix(1 -0.0577 2.832107e-03 20.3614 102.2029 -1029.7455)">
		<stop  offset="0" style="stop-color:#FF5722"/>
		<stop  offset="0.0156" style="stop-color:#FF5722"/>
		<stop  offset="0.0166" style="stop-color:#FF5822"/>
		<stop  offset="0.0234" style="stop-color:#FF5821"/>
		<stop  offset="0.0312" style="stop-color:#FF5821"/>
		<stop  offset="0.0391" style="stop-color:#FF5921"/>
		<stop  offset="0.0469" style="stop-color:#FF5921"/>
		<stop  offset="0.0547" style="stop-color:#FF5A20"/>
		<stop  offset="0.0625" style="stop-color:#FF5A20"/>
		<stop  offset="0.0703" style="stop-color:#FF5B20"/>
		<stop  offset="0.0781" style="stop-color:#FF5B20"/>
		<stop  offset="0.0859" style="stop-color:#FF5C1F"/>
		<stop  offset="0.0938" style="stop-color:#FF5C1F"/>
		<stop  offset="0.1016" style="stop-color:#FF5D1F"/>
		<stop  offset="0.1094" style="stop-color:#FF5D1F"/>
		<stop  offset="0.1172" style="stop-color:#FF5E1E"/>
		<stop  offset="0.125" style="stop-color:#FF5E1E"/>
		<stop  offset="0.1328" style="stop-color:#FF5F1E"/>
		<stop  offset="0.1406" style="stop-color:#FF5F1D"/>
		<stop  offset="0.1484" style="stop-color:#FF601D"/>
		<stop  offset="0.1562" style="stop-color:#FF601D"/>
		<stop  offset="0.1641" style="stop-color:#FF611D"/>
		<stop  offset="0.1719" style="stop-color:#FF621C"/>
		<stop  offset="0.1797" style="stop-color:#FF621C"/>
		<stop  offset="0.1875" style="stop-color:#FF631C"/>
		<stop  offset="0.1953" style="stop-color:#FF631C"/>
		<stop  offset="0.2031" style="stop-color:#FF641B"/>
		<stop  offset="0.2109" style="stop-color:#FF641B"/>
		<stop  offset="0.2188" style="stop-color:#FF651B"/>
		<stop  offset="0.2266" style="stop-color:#FF651B"/>
		<stop  offset="0.2344" style="stop-color:#FF661A"/>
		<stop  offset="0.2422" style="stop-color:#FF661A"/>
		<stop  offset="0.25" style="stop-color:#FF671A"/>
		<stop  offset="0.2578" style="stop-color:#FF6719"/>
		<stop  offset="0.2656" style="stop-color:#FF6819"/>
		<stop  offset="0.2734" style="stop-color:#FF6819"/>
		<stop  offset="0.2812" style="stop-color:#FF6919"/>
		<stop  offset="0.2891" style="stop-color:#FF6918"/>
		<stop  offset="0.2969" style="stop-color:#FF6A18"/>
		<stop  offset="0.3047" style="stop-color:#FF6A18"/>
		<stop  offset="0.3125" style="stop-color:#FF6B18"/>
		<stop  offset="0.3203" style="stop-color:#FF6B17"/>
		<stop  offset="0.3281" style="stop-color:#FF6C17"/>
		<stop  offset="0.3359" style="stop-color:#FF6C17"/>
		<stop  offset="0.3438" style="stop-color:#FF6D16"/>
		<stop  offset="0.3516" style="stop-color:#FF6D16"/>
		<stop  offset="0.3594" style="stop-color:#FF6E16"/>
		<stop  offset="0.3672" style="stop-color:#FF6E16"/>
		<stop  offset="0.375" style="stop-color:#FF6F15"/>
		<stop  offset="0.3828" style="stop-color:#FF6F15"/>
		<stop  offset="0.3906" style="stop-color:#FF7015"/>
		<stop  offset="0.3984" style="stop-color:#FF7015"/>
		<stop  offset="0.4062" style="stop-color:#FF7114"/>
		<stop  offset="0.4141" style="stop-color:#FF7214"/>
		<stop  offset="0.4219" style="stop-color:#FF7214"/>
		<stop  offset="0.4297" style="stop-color:#FF7314"/>
		<stop  offset="0.4375" style="stop-color:#FF7313"/>
		<stop  offset="0.4453" style="stop-color:#FF7413"/>
		<stop  offset="0.4531" style="stop-color:#FF7413"/>
		<stop  offset="0.4609" style="stop-color:#FF7512"/>
		<stop  offset="0.4688" style="stop-color:#FF7512"/>
		<stop  offset="0.4766" style="stop-color:#FF7612"/>
		<stop  offset="0.4844" style="stop-color:#FF7612"/>
		<stop  offset="0.4922" style="stop-color:#FF7711"/>
		<stop  offset="0.5" style="stop-color:#FF7711"/>
		<stop  offset="0.5078" style="stop-color:#FF7811"/>
		<stop  offset="0.5156" style="stop-color:#FF7811"/>
		<stop  offset="0.5234" style="stop-color:#FF7910"/>
		<stop  offset="0.5312" style="stop-color:#FF7910"/>
		<stop  offset="0.5391" style="stop-color:#FF7A10"/>
		<stop  offset="0.5469" style="stop-color:#FF7A0F"/>
		<stop  offset="0.5547" style="stop-color:#FF7B0F"/>
		<stop  offset="0.5625" style="stop-color:#FF7B0F"/>
		<stop  offset="0.5703" style="stop-color:#FF7C0F"/>
		<stop  offset="0.5781" style="stop-color:#FF7C0E"/>
		<stop  offset="0.5859" style="stop-color:#FF7D0E"/>
		<stop  offset="0.5938" style="stop-color:#FF7D0E"/>
		<stop  offset="0.6016" style="stop-color:#FF7E0E"/>
		<stop  offset="0.6094" style="stop-color:#FF7E0D"/>
		<stop  offset="0.6172" style="stop-color:#FF7F0D"/>
		<stop  offset="0.625" style="stop-color:#FF7F0D"/>
		<stop  offset="0.6328" style="stop-color:#FF800D"/>
		<stop  offset="0.6406" style="stop-color:#FF810C"/>
		<stop  offset="0.6484" style="stop-color:#FF810C"/>
		<stop  offset="0.6562" style="stop-color:#FF820C"/>
		<stop  offset="0.6641" style="stop-color:#FF820B"/>
		<stop  offset="0.6719" style="stop-color:#FF830B"/>
		<stop  offset="0.6797" style="stop-color:#FF830B"/>
		<stop  offset="0.6875" style="stop-color:#FF840B"/>
		<stop  offset="0.6953" style="stop-color:#FF840A"/>
		<stop  offset="0.7031" style="stop-color:#FF850A"/>
		<stop  offset="0.7109" style="stop-color:#FF850A"/>
		<stop  offset="0.7188" style="stop-color:#FF860A"/>
		<stop  offset="0.7266" style="stop-color:#FF8609"/>
		<stop  offset="0.7344" style="stop-color:#FF8709"/>
		<stop  offset="0.7422" style="stop-color:#FF8709"/>
		<stop  offset="0.75" style="stop-color:#FF8808"/>
		<stop  offset="0.7578" style="stop-color:#FF8808"/>
		<stop  offset="0.7656" style="stop-color:#FF8908"/>
		<stop  offset="0.7734" style="stop-color:#FF8908"/>
		<stop  offset="0.7812" style="stop-color:#FF8A07"/>
		<stop  offset="0.7891" style="stop-color:#FF8A07"/>
		<stop  offset="0.7969" style="stop-color:#FF8B07"/>
		<stop  offset="0.8047" style="stop-color:#FF8B07"/>
		<stop  offset="0.8125" style="stop-color:#FF8C06"/>
		<stop  offset="0.8203" style="stop-color:#FF8C06"/>
		<stop  offset="0.8281" style="stop-color:#FF8D06"/>
		<stop  offset="0.8359" style="stop-color:#FF8D06"/>
		<stop  offset="0.8438" style="stop-color:#FF8E05"/>
		<stop  offset="0.8516" style="stop-color:#FF8E05"/>
		<stop  offset="0.8594" style="stop-color:#FF8F05"/>
		<stop  offset="0.8672" style="stop-color:#FF8F04"/>
		<stop  offset="0.875" style="stop-color:#FF9004"/>
		<stop  offset="0.8828" style="stop-color:#FF9104"/>
		<stop  offset="0.8906" style="stop-color:#FF9104"/>
		<stop  offset="0.8984" style="stop-color:#FF9203"/>
		<stop  offset="0.9062" style="stop-color:#FF9203"/>
		<stop  offset="0.9141" style="stop-color:#FF9303"/>
		<stop  offset="0.9219" style="stop-color:#FF9303"/>
		<stop  offset="0.9297" style="stop-color:#FF9402"/>
		<stop  offset="0.9375" style="stop-color:#FF9402"/>
		<stop  offset="0.9453" style="stop-color:#FF9502"/>
		<stop  offset="0.9531" style="stop-color:#FF9501"/>
		<stop  offset="0.9609" style="stop-color:#FF9601"/>
		<stop  offset="0.9688" style="stop-color:#FF9601"/>
		<stop  offset="0.9766" style="stop-color:#FF9701"/>
		<stop  offset="0.9834" style="stop-color:#FF9700"/>
		<stop  offset="0.9844" style="stop-color:#FF9700"/>
		<stop  offset="1" style="stop-color:#FF9800"/>
	</linearGradient>
	<path class="st0" d="M580.15,161.18c0,0-98.22,13.48-205.3-0.55c-93.88-12.3-246.13-5.22-246.13-5.22"/>
	<g>
		<g transform="translate(68.459949, 118.673474)">
			<g>
				<path class="st1" d="M-43.04-40.72c0.86-7.21,1.58-12.01,2.17-14.38c0.68-3.14,1.78-5.45,3.33-6.93c1.26-1.13,3.2-1.86,5.8-2.18
					c1.06-0.24,2.49-0.36,4.28-0.36c1.78,0,3.98,0,6.58,0h53.69c-0.87,7.67-1.68,12.79-2.44,15.37c-0.87,3.17-2.31,5.38-4.34,6.62
					c-0.59,0.32-1.25,0.57-1.97,0.75c-0.73,0.16-1.62,0.36-2.68,0.59c-1.72,0.35-4.95,0.52-9.67,0.52h-28.4c-0.95,0-1.79,0-2.51,0
					c-0.73,0-1.24,0.06-1.53,0.16c-0.68,0-1.17,0.28-1.46,0.83c-0.19,0.24-0.37,0.75-0.58,1.55c0,0.46-0.15,1.62-0.44,3.53H8.64
					c2.89,0,5.28,0,7.16,0c1.87,0,3.26,0.12,4.14,0.36c3.07,0.32,5.14,1.22,6.21,2.69c0.97,1.25,1.46,3.44,1.46,6.58V-24
					c0,1.01-0.1,2.62-0.31,4.83c-0.19,2.2-0.47,4.98-0.85,8.36l-0.75,6.22c-0.39,3.72-0.8,6.81-1.22,9.23
					c-0.43,2.44-0.8,4.27-1.09,5.51c-0.57,2.36-1.25,4.1-2.04,5.23c-1.15,1.35-2.8,2.37-4.92,3.05c-0.95,0.11-2.64,0.26-5.06,0.44
					c-2.43,0.16-5.46,0.24-9.13,0.24h-31.83c-3.78,0-6.82-0.08-9.13-0.24c-2.31-0.18-4-0.33-5.06-0.44
					c-1.83-0.68-3.14-1.59-3.9-2.73c-0.68-1.24-1.02-3.15-1.02-5.75c0-2.24,0.42-7.09,1.29-14.54H0.26c0.86,0,1.57-0.02,2.14-0.08
					c0.59-0.05,0.98-0.08,1.19-0.08c0.48-0.1,0.9-0.38,1.29-0.83C5.26-6.26,5.45-6.93,5.45-7.6c0.2-0.68,0.35-1.75,0.44-3.21h-35.46
					c-1.95,0-3.65-0.02-5.09-0.08c-1.45-0.08-2.6-0.17-3.46-0.28c-2.7-0.34-4.67-1.13-5.94-2.38c-0.95-1.35-1.43-3.26-1.43-5.75
					v-2.02c0.18-1.13,0.42-2.79,0.71-4.99c0.29-2.19,0.63-4.97,1.02-8.36L-43.04-40.72z"/>
			</g>
		</g>
	</g>
	<g>
		<g transform="translate(106.320721, 118.673474)">
			<g>
				<path class="st1" d="M7.3,33.57c-0.24,1.8-0.6,3.44-1.07,4.94C5.92,39.45,5.51,40.35,5,41.2c-0.49,0.87-1.06,1.62-1.7,2.24
					c-0.38,0.42-0.85,0.82-1.4,1.2s-1.17,0.72-1.86,1.05c-0.62,0.32-1.33,0.53-2.11,0.64c-0.77,0.09-1.63,0.26-2.58,0.49
					c-0.53,0.09-1.15,0.17-1.86,0.22c-0.7,0.05-1.47,0.07-2.33,0.07h-5.62c0.7-0.85,1.28-1.51,1.75-1.98
					c0.48-0.48,0.82-0.88,1.04-1.2c0.79-1.08,1.26-1.82,1.42-2.24c0.38-0.52,0.65-1.22,0.79-2.06c0.16-0.55,0.29-1.4,0.36-2.54
					l2.11-22.52l5.15-50.76l0.58-5.87c0.31-2.89,0.55-5.26,0.74-7.11c0.2-1.87,0.34-3.27,0.44-4.23c0.55-3.41,1.25-5.87,2.11-7.37
					c1.16-1.89,3.15-3,5.94-3.33c1.64-0.32,4.75-0.49,9.34-0.49h26.3c2.03,0,3.7,0,5.01,0c1.33,0,2.36,0.11,3.07,0.34
					c3.65,0.3,5.82,1.52,6.52,3.67c0.23,0.52,0.39,1.19,0.47,1.98c0.09,0.8,0.14,1.67,0.14,2.62c0,0.43,0,0.89,0,1.38
					c0,0.48-0.04,1.03-0.11,1.65c0,1.82-0.36,5.45-1.07,10.88c-0.15,1.9-0.51,5.7-1.1,11.41c-0.59,5.69-1.39,13.26-2.41,22.7
					c-0.32,2.99-0.59,5.5-0.82,7.52c-0.22,2.02-0.41,3.62-0.58,4.79c-0.48,3.29-1.3,5.69-2.47,7.18c-0.86,1.18-2.38,2.02-4.55,2.54
					c-1.64,0.33-4.6,0.49-8.88,0.49H9.63L7.3,33.57z M11.85-7.94h23.37c0.23-0.09,0.45-0.15,0.63-0.15c0.2,0,0.34,0,0.41,0
					c0.23-0.2,0.51-0.41,0.82-0.64c0.4-0.52,0.64-1.16,0.71-1.91c0.14-0.65,0.26-1.66,0.36-3.03l2.9-28.39h-20.9
					c-1.41,0-2.27,0.06-2.58,0.15c-0.7,0-1.25,0.26-1.64,0.79c-0.15,0.22-0.34,0.81-0.58,1.76c-0.08,0.22-0.16,0.6-0.25,1.12
					c-0.08,0.52-0.18,1.22-0.33,2.06L11.85-7.94z"/>
			</g>
		</g>
	</g>
	<g>
		<g transform="translate(144.714742, 118.673474)">
			<g>
				<path class="st1" d="M46.32-40.72c0.59-5.07,1.02-8.4,1.29-9.98c0.88-5.17,2.04-8.61,3.5-10.3c1.36-1.68,3.43-2.7,6.21-3.05
					c1.06-0.24,2.55-0.36,4.48-0.36c1.94,0,4.36,0,7.26,0h33.29c3.57,0,6.49,0.07,8.76,0.2c2.26,0.11,3.88,0.34,4.85,0.67
					c1.74,0.32,2.99,1.22,3.77,2.69c0.68,1.14,1.02,3,1.02,5.59v1.66c0,2.14-0.44,6.44-1.32,12.88l-4.34,36.14
					c-0.66,6-1.24,10.12-1.73,12.36c-0.57,3.15-1.29,5.46-2.17,6.93c-1.07,1.9-2.99,3.2-5.77,3.88c-0.98,0.11-2.53,0.26-4.65,0.44
					c-2.13,0.16-4.84,0.24-8.11,0.24h-34c-3.11,0-5.67-0.08-7.7-0.24c-2.02-0.18-3.55-0.33-4.62-0.44
					c-2.13-0.45-3.67-1.41-4.62-2.89c-0.3-0.65-0.54-1.47-0.75-2.42c-0.19-0.97-0.27-2.02-0.27-3.13V8.09
					c0.18-2.24,0.61-6.47,1.29-12.68c0.29-2.24,0.65-4.96,1.09-8.16c0.42-3.22,0.89-6.91,1.39-11.09c0.56-4.28,0.99-7.79,1.29-10.54
					C46.03-37.15,46.23-39.26,46.32-40.72z M73.98-40.72c-1.15,0-2.13,0-2.92,0c-0.77,0-1.35,0.06-1.73,0.16
					c-0.95,0.22-1.62,0.54-2,0.99c-0.3,0.35-0.59,1.31-0.88,2.89c0,0.11-0.03,0.36-0.07,0.75c-0.05,0.4-0.13,0.87-0.24,1.43
					l-3.6,29.91h30.1c0.68-0.21,1.12-0.44,1.32-0.67c0.38-0.45,0.58-0.95,0.58-1.51c0.18-0.34,0.31-0.81,0.41-1.43
					c0.11-0.63,0.21-1.45,0.31-2.46l3.63-30.07H73.98z"/>
			</g>
		</g>
	</g>
	<g>
		<g transform="translate(182.84214, 118.673474)">
			<g>
				<path class="st1" d="M111.43-99.2h13.3c2.31,0,4.05,0.16,5.23,0.48c2.39,0.35,4.04,1.14,4.92,2.38
					c0.86,1.35,1.29,3.49,1.29,6.42c0,1.14-0.08,2.89-0.24,5.27c-0.14,2.36-0.44,5.39-0.92,9.11l-1.29,10.98h31.83
					c-0.87,7.21-1.59,12.06-2.17,14.54c-0.68,3.15-1.93,5.46-3.77,6.93c-1.25,0.9-2.94,1.53-5.06,1.86
					c-0.98,0.11-2.5,0.19-4.58,0.24c-2.06,0.06-4.68,0.08-7.87,0.08h-11.3l-0.71,6.26l-2.88,23.85l-0.75,6.06h31.87
					c-0.39,3.49-0.75,6.42-1.09,8.8s-0.66,4.19-0.95,5.43c-0.59,2.8-1.51,4.94-2.75,6.42c-1.07,1.25-2.94,2.14-5.63,2.69
					c-2.04,0.35-6.1,0.52-12.18,0.52H122.7c-6.27,0-10.42-0.17-12.45-0.52c-2.6-0.55-4.34-1.57-5.19-3.05
					c-0.59-1.24-0.88-2.87-0.88-4.91V7.94c0.29-2.24,0.87-6.47,1.73-12.68l0.75-6.06l2.88-23.85l0.71-6.26H89.71
					c0.48-3.25,0.86-5.96,1.15-8.16c0.29-2.22,0.48-3.82,0.58-4.83c0.86-4.06,2.11-6.82,3.77-8.28c1.44-1.03,3.37-1.7,5.77-2.02
					c0.97-0.24,2.21-0.36,3.7-0.36s3.3,0,5.43,0h3.05l2.88-24.33c0.08-0.89,0.14-1.59,0.14-2.1c0-0.52,0-0.89,0-1.11
					c0-1.03-0.09-1.7-0.27-2.02c-0.09-0.34-0.26-0.71-0.51-1.11c-0.25-0.4-0.61-0.76-1.09-1.11c-0.2-0.34-0.54-0.73-1.02-1.19
					C112.82-97.98,112.19-98.54,111.43-99.2z"/>
			</g>
		</g>
	</g>
	<g>
		<g transform="translate(220.103001, 118.673474)">
			<g>
				<path class="st1" d="M163.78-99.04l-3.36,28.37h-20.53l0.41-4.56c0.49-3.25,0.88-5.91,1.15-8c0.29-2.08,0.54-3.65,0.75-4.68
					c0.56-3.49,1.37-5.9,2.44-7.25c1.36-1.79,3.29-2.91,5.8-3.37C152.66-98.86,157.1-99.04,163.78-99.04z M139.14-64.57h20.56
					l-7.23,60.19c-0.39,3.15-0.73,5.78-1.02,7.92c-0.3,2.14-0.59,3.78-0.88,4.91c-0.57,3.49-1.53,6.02-2.88,7.61
					c-1.54,1.58-3.86,2.54-6.96,2.85c-0.95,0.14-2.32,0.23-4.11,0.28c-1.79,0.06-3.99,0.08-6.58,0.08h-6.82
					c0.87-0.89,1.56-1.62,2.1-2.18c0.53-0.57,0.93-1.04,1.22-1.39c1.26-1.45,2.04-2.4,2.31-2.85c0.49-0.79,0.83-1.63,1.02-2.54
					c0.29-0.55,0.48-1.67,0.58-3.37L139.14-64.57z"/>
			</g>
		</g>
	</g>
	<g>
		<g transform="translate(235.433952, 118.673474)">
			<g>
				<path class="st1" d="M210.83-84.5c0.29-2.14,0.72-3.94,1.29-5.43c0.88-2.24,2.04-3.93,3.5-5.07c1.24-1.11,2.63-1.9,4.17-2.38
					c0.88-0.32,1.8-0.57,2.75-0.79c0.97-0.24,1.99-0.42,3.05-0.55c0.76-0.1,1.58-0.18,2.44-0.24c0.88-0.05,1.81-0.08,2.78-0.08h6.92
					c-1.54,1.69-2.7,2.87-3.46,3.53c-0.39,0.46-0.73,0.85-1.02,1.19c-0.3,0.35-0.53,0.69-0.71,1.03c-0.39,0.55-0.73,1.29-1.02,2.18
					c0,0.58-0.15,1.55-0.44,2.89l-2.61,23.81l-6.35,53.61l-0.75,6.22c-0.27,2.93-0.56,5.42-0.85,7.45c-0.3,2.04-0.54,3.56-0.75,4.56
					c-0.57,3.63-1.38,6.22-2.44,7.81c-1.27,2.01-3.78,3.24-7.53,3.68c-0.98,0.14-2.43,0.23-4.34,0.28
					c-1.93,0.06-4.34,0.08-7.23,0.08h-32.58c-2.43,0-4.46-0.02-6.11-0.08c-1.63-0.05-2.88-0.08-3.73-0.08
					c-4.44-0.34-7.14-1.7-8.11-4.08c-0.48-1.35-0.71-2.97-0.71-4.87c0-0.57,0.02-1.12,0.07-1.62c0.04-0.5,0.07-1.03,0.07-1.58
					c0.18-2.14,0.61-5.98,1.29-11.53c0.29-2.24,0.63-4.96,1.02-8.16c0.38-3.22,0.82-6.91,1.32-11.09c0.56-4.28,1.02-7.79,1.36-10.54
					c0.34-2.77,0.55-4.88,0.64-6.34c0.76-6.66,1.34-10.95,1.73-12.88c0.79-3.82,1.81-6.42,3.05-7.77c1.15-1.35,3.03-2.19,5.63-2.54
					c2.04-0.34,5.71-0.52,11.03-0.52h33.73L210.83-84.5z M179.27-40.72c-0.3,0-0.68,0-1.15,0c-0.48,0-1.11,0.06-1.9,0.16
					c-0.66,0-1.09,0.06-1.29,0.16c-0.3,0-0.64,0.23-1.02,0.67c-0.3,0.35-0.58,1.02-0.85,2.02c0,0.46-0.15,1.53-0.44,3.21
					l-3.63,29.91h29.12c1.04-0.21,1.71-0.53,2-0.99c0.29-0.34,0.54-0.91,0.75-1.7c0.18-0.34,0.31-0.81,0.41-1.43
					c0.11-0.6,0.21-1.31,0.31-2.1l3.46-29.91H179.27z"/>
			</g>
		</g>
	</g>
	<g>
		<g transform="translate(273.827962, 118.673474)">
			<g>
				<path class="st1" d="M221.51-64.41h31.56c2.6,0,4.77,0,6.52,0c1.74,0,3.04,0.07,3.9,0.2c3.19,0.11,5.36,0.78,6.52,2.02
					c1.36,1.11,2.04,3.43,2.04,6.93c0,0.46,0,0.99,0,1.62c0,0.61-0.06,1.25-0.17,1.9c-0.09,1.03-0.24,2.45-0.44,4.24
					c-0.19,1.8-0.42,4.06-0.71,6.78l-0.85,6.22c-0.77,6.89-1.41,11.41-1.9,13.55c-0.57,3.15-1.48,5.46-2.75,6.93
					c-1.34,1.46-3.41,2.41-6.21,2.85c-1.83,0.35-5.31,0.52-10.42,0.52h-32.58c-0.39,0-0.77,0.23-1.15,0.67
					c-0.2,0.24-0.4,0.91-0.58,2.02c0,0.58-0.15,1.7-0.44,3.37h31.83c5.7,0,9.32,0.18,10.86,0.52c2.32,0.35,3.92,1.19,4.78,2.54
					c1.06,1.25,1.7,3.72,1.9,7.45c0.18,1.01,0.27,2.4,0.27,4.16c0,1.74,0,3.84,0,6.3v2.89h-54.7c-2.9,0-5.29-0.08-7.19-0.24
					c-1.88-0.18-3.35-0.33-4.41-0.44c-2.02-0.68-3.46-1.75-4.34-3.21c-0.57-1.35-0.85-3.09-0.85-5.23V8.81
					c0.08-2.03,0.52-6.5,1.29-13.39l4.34-36.14l1.73-12.2c0.68-3.93,1.7-6.7,3.05-8.28c1.54-1.56,3.56-2.51,6.07-2.85
					c1.06-0.24,2.68-0.36,4.85-0.36C215.51-64.41,218.23-64.41,221.51-64.41z M221.78-40.72c-1.45,0-2.27,0.06-2.44,0.16
					c-0.2,0.11-0.5,0.39-0.88,0.83c-0.19,0.46-0.37,0.97-0.58,1.55c0,0.46-0.15,1.68-0.44,3.68h30c0.76-0.1,1.34-0.38,1.73-0.83
					c0.29-0.34,0.44-0.84,0.44-1.51c0.18-0.79,0.31-2.08,0.41-3.88H221.78z"/>
			</g>
		</g>
	</g>
	<g>
		<g transform="translate(66.251954, 115.139942)">
			<g>
				<path d="M-45.63-46.15c0.86-7.21,1.58-12.01,2.17-14.38c0.68-3.14,1.78-5.45,3.33-6.93c1.26-1.13,3.2-1.86,5.8-2.18
					c1.06-0.24,2.49-0.36,4.28-0.36c1.78,0,3.98,0,6.58,0h53.69c-0.87,7.67-1.68,12.79-2.44,15.37c-0.87,3.17-2.31,5.38-4.34,6.62
					c-0.59,0.32-1.25,0.57-1.97,0.75c-0.73,0.16-1.62,0.36-2.68,0.59c-1.72,0.35-4.95,0.52-9.67,0.52h-28.4c-0.95,0-1.79,0-2.51,0
					c-0.73,0-1.24,0.06-1.53,0.16c-0.68,0-1.17,0.28-1.46,0.83c-0.19,0.24-0.37,0.75-0.58,1.55c0,0.46-0.15,1.62-0.44,3.53H6.06
					c2.89,0,5.28,0,7.16,0c1.87,0,3.26,0.12,4.14,0.36c3.07,0.32,5.14,1.22,6.21,2.69c0.97,1.25,1.46,3.44,1.46,6.58v1.03
					c0,1.01-0.1,2.62-0.31,4.83c-0.19,2.2-0.47,4.98-0.85,8.36l-0.75,6.22c-0.39,3.72-0.8,6.81-1.22,9.23
					c-0.43,2.44-0.8,4.27-1.09,5.51c-0.57,2.36-1.25,4.1-2.04,5.23c-1.15,1.35-2.8,2.37-4.92,3.05c-0.95,0.11-2.64,0.26-5.06,0.44
					c-2.43,0.16-5.46,0.24-9.13,0.24h-31.83c-3.78,0-6.82-0.08-9.13-0.24c-2.31-0.18-4-0.33-5.06-0.44
					c-1.83-0.68-3.14-1.59-3.9-2.73c-0.68-1.24-1.02-3.15-1.02-5.75c0-2.24,0.42-7.09,1.29-14.54h47.65c0.86,0,1.57-0.02,2.14-0.08
					C0.4-10.14,0.8-10.17,1-10.17c0.48-0.1,0.9-0.38,1.29-0.83c0.38-0.68,0.58-1.36,0.58-2.02c0.2-0.68,0.35-1.75,0.44-3.21h-35.46
					c-1.95,0-3.65-0.02-5.09-0.08c-1.45-0.08-2.6-0.17-3.46-0.28c-2.7-0.34-4.67-1.13-5.94-2.38c-0.95-1.35-1.43-3.26-1.43-5.75
					v-2.02c0.18-1.13,0.42-2.79,0.71-4.99c0.29-2.19,0.63-4.97,1.02-8.36L-45.63-46.15z"/>
			</g>
		</g>
	</g>
	<g>
		<g transform="translate(104.112726, 115.139942)">
			<g>
				<path d="M9.91,33.97c-0.3,1.9-0.74,3.65-1.32,5.23c-0.39,1-0.9,1.95-1.53,2.85c-0.61,0.92-1.31,1.71-2.1,2.38
					C4.48,44.87,3.9,45.3,3.22,45.7s-1.45,0.76-2.31,1.11c-0.77,0.34-1.65,0.56-2.61,0.67c-0.95,0.1-2.02,0.28-3.19,0.52
					c-0.66,0.1-1.43,0.18-2.31,0.24c-0.87,0.05-1.82,0.08-2.88,0.08h-6.96c0.87-0.9,1.59-1.6,2.17-2.1
					c0.59-0.51,1.02-0.93,1.29-1.27c0.98-1.14,1.56-1.93,1.76-2.38c0.48-0.55,0.81-1.29,0.98-2.18c0.2-0.58,0.36-1.49,0.44-2.69
					l2.61-23.85l6.38-53.77l0.71-6.22c0.38-3.06,0.69-5.57,0.92-7.53c0.25-1.98,0.42-3.47,0.54-4.48c0.68-3.62,1.54-6.22,2.61-7.81
					c1.44-2,3.9-3.18,7.36-3.53C12.79-69.82,16.64-70,22.33-70H54.9c2.51,0,4.58,0,6.21,0c1.65,0,2.92,0.12,3.8,0.36
					c4.52,0.32,7.21,1.61,8.08,3.88c0.29,0.55,0.48,1.26,0.58,2.1c0.11,0.85,0.17,1.77,0.17,2.77c0,0.46,0,0.94,0,1.47
					c0,0.51-0.05,1.09-0.14,1.74c0,1.93-0.44,5.77-1.32,11.53c-0.19,2.01-0.64,6.04-1.36,12.08c-0.73,6.02-1.72,14.05-2.99,24.05
					c-0.39,3.17-0.73,5.82-1.02,7.96c-0.27,2.14-0.51,3.83-0.71,5.07c-0.59,3.49-1.61,6.02-3.05,7.61
					c-1.07,1.25-2.94,2.14-5.63,2.69c-2.04,0.35-5.7,0.52-11,0.52H12.79L9.91,33.97z M15.54-10.01h28.95
					c0.29-0.1,0.55-0.16,0.78-0.16c0.25,0,0.42,0,0.51,0c0.29-0.21,0.63-0.44,1.02-0.67c0.49-0.55,0.79-1.23,0.88-2.02
					c0.18-0.68,0.32-1.75,0.44-3.21l3.6-30.07H25.82c-1.75,0-2.81,0.06-3.19,0.16c-0.87,0-1.54,0.28-2.04,0.83
					c-0.19,0.24-0.42,0.86-0.71,1.86c-0.09,0.24-0.2,0.63-0.31,1.19c-0.09,0.55-0.23,1.29-0.41,2.18L15.54-10.01z"/>
			</g>
		</g>
	</g>
	<g>
		<g transform="translate(142.506747, 115.139942)">
			<g>
				<path d="M43.73-46.15c0.59-5.07,1.02-8.4,1.29-9.98c0.88-5.17,2.04-8.61,3.5-10.3c1.36-1.68,3.43-2.7,6.21-3.05
					c1.06-0.24,2.55-0.36,4.48-0.36c1.94,0,4.36,0,7.26,0h33.29c3.57,0,6.49,0.07,8.76,0.2c2.26,0.11,3.88,0.34,4.85,0.67
					c1.74,0.32,2.99,1.22,3.77,2.69c0.68,1.14,1.02,3,1.02,5.59v1.66c0,2.14-0.44,6.44-1.32,12.88l-4.34,36.14
					c-0.66,6-1.24,10.12-1.73,12.36c-0.57,3.15-1.29,5.46-2.17,6.93c-1.07,1.9-2.99,3.2-5.77,3.88c-0.98,0.11-2.53,0.26-4.65,0.44
					c-2.13,0.16-4.84,0.24-8.11,0.24h-34c-3.11,0-5.67-0.08-7.7-0.24c-2.02-0.18-3.55-0.33-4.62-0.44
					c-2.13-0.45-3.67-1.41-4.62-2.89c-0.3-0.65-0.54-1.47-0.75-2.42c-0.19-0.97-0.27-2.02-0.27-3.13V2.67
					c0.18-2.24,0.61-6.47,1.29-12.68c0.29-2.24,0.65-4.96,1.09-8.16c0.42-3.22,0.89-6.91,1.39-11.09c0.56-4.28,0.99-7.79,1.29-10.54
					C43.45-42.58,43.64-44.69,43.73-46.15z M71.39-46.15c-1.15,0-2.13,0-2.92,0c-0.77,0-1.35,0.06-1.73,0.16
					c-0.95,0.22-1.62,0.54-2,0.99c-0.3,0.35-0.59,1.31-0.88,2.89c0,0.11-0.03,0.36-0.07,0.75c-0.05,0.4-0.13,0.87-0.24,1.43
					l-3.6,29.91h30.1c0.68-0.21,1.12-0.44,1.32-0.67c0.38-0.45,0.58-0.95,0.58-1.51c0.18-0.34,0.31-0.81,0.41-1.43
					c0.11-0.63,0.21-1.45,0.31-2.46l3.63-30.07H71.39z"/>
			</g>
		</g>
	</g>
	<g>
		<g transform="translate(180.634145, 115.139942)">
			<g>
				<path d="M108.84-104.63h13.3c2.31,0,4.05,0.16,5.23,0.48c2.39,0.35,4.04,1.14,4.92,2.38c0.86,1.35,1.29,3.49,1.29,6.42
					c0,1.14-0.08,2.89-0.24,5.27c-0.14,2.36-0.44,5.39-0.92,9.11L131.14-70h31.83c-0.87,7.21-1.59,12.06-2.17,14.54
					c-0.68,3.15-1.93,5.46-3.77,6.93c-1.25,0.9-2.94,1.53-5.06,1.86c-0.98,0.11-2.5,0.19-4.58,0.24c-2.06,0.06-4.68,0.08-7.87,0.08
					h-11.3l-0.71,6.26l-2.88,23.85l-0.75,6.06h31.87c-0.39,3.49-0.75,6.42-1.09,8.8c-0.34,2.38-0.66,4.19-0.95,5.43
					c-0.59,2.8-1.51,4.94-2.75,6.42c-1.07,1.25-2.94,2.14-5.63,2.69c-2.04,0.35-6.1,0.52-12.18,0.52h-13.03
					c-6.27,0-10.42-0.17-12.45-0.52c-2.6-0.55-4.34-1.57-5.19-3.05c-0.59-1.24-0.88-2.87-0.88-4.91V2.51
					c0.29-2.24,0.87-6.47,1.73-12.68l0.75-6.06l2.88-23.85l0.71-6.26H87.12c0.48-3.25,0.86-5.96,1.15-8.16
					c0.29-2.22,0.48-3.82,0.58-4.83c0.86-4.06,2.11-6.82,3.77-8.28c1.44-1.03,3.37-1.7,5.77-2.02c0.97-0.24,2.21-0.36,3.7-0.36
					s3.3,0,5.43,0h3.05l2.88-24.33c0.08-0.89,0.14-1.59,0.14-2.1c0-0.52,0-0.89,0-1.11c0-1.03-0.09-1.7-0.27-2.02
					c-0.09-0.34-0.26-0.71-0.51-1.11c-0.25-0.4-0.61-0.76-1.09-1.11c-0.2-0.34-0.54-0.73-1.02-1.19
					C110.23-103.41,109.61-103.96,108.84-104.63z"/>
			</g>
		</g>
	</g>
	<g>
		<g transform="translate(217.895006, 115.139942)">
			<g>
				<path d="M161.19-104.47l-3.36,28.37H137.3l0.41-4.56c0.49-3.25,0.88-5.91,1.15-8c0.29-2.08,0.54-3.65,0.75-4.68
					c0.56-3.49,1.37-5.9,2.44-7.25c1.36-1.79,3.29-2.91,5.8-3.37C150.07-104.29,154.52-104.47,161.19-104.47z M136.56-70h20.56
					l-7.23,60.19c-0.39,3.15-0.73,5.78-1.02,7.92c-0.3,2.14-0.59,3.78-0.88,4.91c-0.57,3.49-1.53,6.02-2.88,7.61
					c-1.54,1.58-3.86,2.54-6.96,2.85c-0.95,0.14-2.32,0.23-4.11,0.28c-1.79,0.06-3.99,0.08-6.58,0.08h-6.82
					c0.87-0.89,1.56-1.62,2.1-2.18c0.53-0.57,0.93-1.04,1.22-1.39c1.26-1.45,2.04-2.4,2.31-2.85c0.49-0.79,0.83-1.63,1.02-2.54
					c0.29-0.55,0.48-1.67,0.58-3.37L136.56-70z"/>
			</g>
		</g>
	</g>
	<g>
		<g transform="translate(233.225957, 115.139942)">
			<g>
				<path d="M208.24-89.93c0.29-2.14,0.72-3.94,1.29-5.43c0.88-2.24,2.04-3.93,3.5-5.07c1.24-1.11,2.63-1.9,4.17-2.38
					c0.88-0.32,1.8-0.57,2.75-0.79c0.97-0.24,1.99-0.42,3.05-0.55c0.76-0.1,1.58-0.18,2.44-0.24c0.88-0.05,1.81-0.08,2.78-0.08h6.92
					c-1.54,1.69-2.7,2.87-3.46,3.53c-0.39,0.46-0.73,0.85-1.02,1.19c-0.3,0.35-0.53,0.69-0.71,1.03c-0.39,0.55-0.73,1.29-1.02,2.18
					c0,0.58-0.15,1.55-0.44,2.89l-2.61,23.81l-6.35,53.61l-0.75,6.22c-0.27,2.93-0.56,5.42-0.85,7.45c-0.3,2.04-0.54,3.56-0.75,4.56
					c-0.57,3.63-1.38,6.22-2.44,7.81c-1.27,2.01-3.78,3.24-7.53,3.68c-0.98,0.14-2.43,0.23-4.34,0.28
					c-1.93,0.06-4.34,0.08-7.23,0.08h-32.58c-2.43,0-4.46-0.02-6.11-0.08c-1.63-0.05-2.88-0.08-3.73-0.08
					c-4.44-0.34-7.14-1.7-8.11-4.08c-0.48-1.35-0.71-2.97-0.71-4.87c0-0.57,0.02-1.12,0.07-1.62c0.04-0.5,0.07-1.03,0.07-1.58
					c0.18-2.14,0.61-5.98,1.29-11.53c0.29-2.24,0.63-4.96,1.02-8.16c0.38-3.22,0.82-6.91,1.32-11.09c0.56-4.28,1.02-7.79,1.36-10.54
					c0.34-2.77,0.55-4.88,0.64-6.34c0.76-6.66,1.34-10.95,1.73-12.88c0.79-3.82,1.81-6.42,3.05-7.77c1.15-1.35,3.03-2.19,5.63-2.54
					c2.04-0.34,5.71-0.52,11.03-0.52h33.73L208.24-89.93z M176.68-46.15c-0.3,0-0.68,0-1.15,0s-1.11,0.06-1.9,0.16
					c-0.66,0-1.09,0.06-1.29,0.16c-0.3,0-0.64,0.23-1.02,0.67c-0.3,0.35-0.58,1.02-0.85,2.02c0,0.46-0.15,1.53-0.44,3.21
					l-3.63,29.91h29.12c1.04-0.21,1.71-0.53,2-0.99c0.29-0.34,0.54-0.91,0.75-1.7c0.18-0.34,0.31-0.81,0.41-1.43
					c0.11-0.6,0.21-1.31,0.31-2.1l3.46-29.91H176.68z"/>
			</g>
		</g>
	</g>
	<g>
		<g transform="translate(271.619967, 115.139942)">
			<g>
				<path d="M218.93-69.84h31.56c2.6,0,4.77,0,6.52,0c1.74,0,3.04,0.07,3.9,0.2c3.19,0.11,5.36,0.78,6.52,2.02
					c1.36,1.11,2.04,3.43,2.04,6.93c0,0.46,0,0.99,0,1.62c0,0.61-0.06,1.25-0.17,1.9c-0.09,1.03-0.24,2.45-0.44,4.24
					c-0.19,1.8-0.42,4.06-0.71,6.78l-0.85,6.22c-0.77,6.89-1.41,11.41-1.9,13.55c-0.57,3.15-1.48,5.46-2.75,6.93
					c-1.34,1.46-3.41,2.41-6.21,2.85c-1.83,0.35-5.31,0.52-10.42,0.52h-32.58c-0.39,0-0.77,0.23-1.15,0.67
					c-0.2,0.24-0.4,0.91-0.58,2.02c0,0.58-0.15,1.7-0.44,3.37h31.83c5.7,0,9.32,0.18,10.86,0.52c2.32,0.35,3.92,1.19,4.78,2.54
					c1.06,1.25,1.7,3.72,1.9,7.45c0.18,1.01,0.27,2.4,0.27,4.16c0,1.74,0,3.84,0,6.3v2.89h-54.7c-2.9,0-5.29-0.08-7.19-0.24
					c-1.88-0.18-3.35-0.33-4.41-0.44c-2.02-0.68-3.46-1.75-4.34-3.21c-0.57-1.35-0.85-3.09-0.85-5.23V3.38
					c0.08-2.03,0.52-6.5,1.29-13.39l4.34-36.14l1.73-12.2c0.68-3.93,1.7-6.7,3.05-8.28c1.54-1.56,3.56-2.51,6.07-2.85
					c1.06-0.24,2.68-0.36,4.85-0.36C212.92-69.84,215.64-69.84,218.93-69.84z M219.2-46.15c-1.45,0-2.27,0.06-2.44,0.16
					c-0.2,0.11-0.5,0.39-0.88,0.83c-0.19,0.46-0.37,0.97-0.58,1.55c0,0.46-0.15,1.68-0.44,3.68h30c0.76-0.1,1.34-0.38,1.73-0.83
					c0.29-0.34,0.44-0.84,0.44-1.51c0.18-0.79,0.31-2.08,0.41-3.88H219.2z"/>
			</g>
		</g>
	</g>
	<g class="st2">
		<g transform="translate(115.551508, 129.645056)">
			<g>
				<path d="M29.94,30.6c-0.09-0.12,0.19-3.41-0.17-3.27c0,0-10.27,0-10.27,0v-1.38c0.17-0.15,9.38,0.3,9.34-0.18
					c-0.09-0.13,0.19-2.94-0.17-2.83c0,0-8.51,0-8.51,0v-1.51h7.69c0.36,0.11,0.09-2.5,0.17-2.63c0.03-0.49-7.69-0.02-7.86-0.18
					v-1.51h7.69c0.36,0.1,0.09-2.47,0.17-2.6c0.03-0.49-7.69-0.02-7.86-0.18v-1.5c0.17-0.16,8.72,0.31,8.68-0.18V9.49
					C28.85,9,21,9.48,20.82,9.32C20.27,8.84,21.54,7.49,21,7c-3.68-0.28-3.03-1.39-4.35,2.32c-0.73,0-4.49,0-5.46,0
					c-0.42-0.36,0.26-1.24,0.24-1.88c-0.35-0.55-2.69-0.57-3.29-0.82C6.87,9.83,5.92,13.58,4.1,16.69c-0.34,0.2,2.69,1.7,2.71,1.79
					c0.24,0.08,0.01,7.13,0.09,7.28c-0.04,0.49,8.51,0.02,8.67,0.18v1.38C15.4,27.49,4.81,27,4.84,27.5
					c0.08,0.12-0.19,3.41,0.17,3.28c0,0,8.16,0,8.16,0c-1.11,1.69-5.57,2.34-8.7,3.48c-0.43-0.04,0.91,3.69,0.83,3.82
					c3.97-0.47,7.71-3.64,10.27-4.3c0.14,1.13-0.28,4.67,0.17,5.35c0,0,3.58,0,3.58,0c0.57,0.02-0.29-5.74,0.43-5.49
					c2.52,1.49,6.16,3.71,10.01,4.45c0.05-0.75,1.14-3.22,0.83-3.83C19.2,30.42,18.77,30.94,29.94,30.6z M16.33,22.94h-5.78v-1.51
					h5.78V22.94z M16.33,18.62h-5.78v-1.51h5.78V18.62z M16.33,14.34h-5.78v-1.5h5.78V14.34z"/>
				<path d="M363.76,15.35v4.23c-0.12,0.12-0.18,0.19-0.3,0.31c-1.57,0.28-6.91-0.79-7.91,1.03c-4.03,6.69-1.66,11.59,6.33,10.37
					c0.32-0.11,0.27,4.83,0,4.7c0,0-4.62,0-4.62,0c-7.74,0.08-9.2-11.46-5.24-16.11h-6.19v-0.78c1-1,1-2.94,0-3.94
					C346.02,15.34,363.79,14.85,363.76,15.35z"/>
				<path d="M336.62,18.27l11.58,17.25c0.31,0.55-4.6,0.26-4.72,0.2c-0.75-0.52-10.89-17.89-12.02-16.74
					c-2.05-0.21-0.59,13.58-1,14.54c0.12,0.41-3.51,0.07-3.62,0.18c-0.14-3.1-0.98-14.69,1.03-17.33
					C330.23,12.9,335.61,14.94,336.62,18.27z"/>
			</g>
		</g>
	</g>
	<g class="st2">
		<g transform="translate(128.224855, 129.645056)">
			<g>
				<path d="M26.67,14.8c0.13,0.12-0.26,4.94,0.17,4.81c0.14-0.08,2.63,0.18,2.56-0.16c0,0,0.41-4.51,0.41-4.51
					c-0.09-0.36,3.12-0.07,3.23-0.16c0.47-0.13-0.37,4.71-0.25,4.83c8.3,0.34,7.77,19.56-1.41,17.61c-0.41,0.16-0.06-4.48-0.17-4.57
					c-0.1-0.36,2.34-0.11,2.46-0.18c1.99-1.33,2.22-9-1.39-8.07c-0.23,7.98-4.46,15.25-12.5,10.25c-3.37-4.13-3.11-14.67,3.47-15.04
					c0.13-0.13-0.27-5.1,0.17-4.99C23.52,14.7,26.85,14.43,26.67,14.8z M22.54,24.4c-1.92,1-2.07,7.08,0.73,6.85V24.4H22.54z
					 M27.52,30.26c0.93-1.7,1.12-3.85,1.33-5.86c-0.14,0.08-2.25-0.19-2.18,0.18c0,0,0,6.51,0,6.51
					C27,30.93,27.29,30.65,27.52,30.26z"/>
			</g>
		</g>
	</g>
	<g class="st2">
		<g transform="translate(138.500711, 129.645056)">
			<g>
				<path d="M29.99,15.35c-0.04-0.5,13.05-0.01,13.23-0.18c4.71,0.9-0.58,4.88-1.99,6.18c8.21-0.75,8.5,13.98,0.76,14.69
					c-4.39-0.1-15.41,1.63-12.69-6.41c2.53-4.37,11.85-3.2,11.87,2.57c3.09,0.55,3.02-4.43,1.86-6.33c0.26-1.21-14.59,0-14.83-0.69
					c0.13-0.11-0.24-3.96,0.17-3.82c0,0,7.74,0,7.74,0c0.15,0.04,2.17-2.1,2.28-2.15c0.54-0.78-8.16-0.07-8.23-0.3
					C29.76,19.01,30.09,15.47,29.99,15.35z M36.43,30.34c-0.98,0.03-5.24-0.48-3.44,1.7c0.13,0.3,4.65,0.11,4.96,0.16
					C37.69,31.01,37.18,30.4,36.43,30.34z"/>
			</g>
		</g>
	</g>
	<g class="st2">
		<g transform="translate(148.037804, 129.645056)">
			<g>
				<path d="M37.99,30.86l2.6-2.75c1.89,1.85,4.02,5.23,5.56,8.03c0,0-2.74,2.53-2.74,2.53C41.58,36.55,39.56,33.34,37.99,30.86z"/>
			</g>
		</g>
	</g>
	<g class="st2">
		<g transform="translate(160.711151, 129.645056)">
			<g>
				<path d="M51.24,15.18c0.19,0.17,11.17-0.32,11.16,0.18c-0.12,0.11,0.25,4.68-0.17,4.53c0,0-10.99,0-10.99,0
					C50.92,20.05,50.96,15.02,51.24,15.18z M51.24,22.5c0.17,0.16,10.4-0.32,10.37,0.18c-0.12,0.11,0.25,4.72-0.17,4.57
					c0,0-10.2,0-10.2,0C50.92,27.42,50.96,22.34,51.24,22.5z M70,15.18C69.29,25.49,69.83,38.73,55.69,36
					c-0.33,0.22-0.26-4.91,0-4.71C73.09,34.33,59.92,13,70,15.18z"/>
			</g>
		</g>
	</g>
	<g class="st2">
		<g transform="translate(170.262184, 129.645056)">
			<g>
				<path d="M60.88,32.28c0.14-0.14,5.5,0.28,5.41-0.18c-0.16-0.17,0.31-9.01-0.17-8.97c0,0-5.24,0-5.24,0
					c-0.4,0.12-0.07-3.46-0.17-3.58c-0.04-0.5,13.86-0.01,14.03-0.18c0.09,0,0.17,0.08,0.17,0.18c-0.13,0.15,0.24,3.68-0.17,3.58
					c-0.14,0.14-5.5-0.28-5.41,0.18c0.48,11.64-2.3,8.22,5.59,9.14c-0.13,0.1,0.24,3.72-0.17,3.58c0,0-13.86,0-13.86,0
					c-0.4,0.13-0.07-3.48-0.17-3.58C60.71,32.35,60.79,32.28,60.88,32.28z"/>
			</g>
		</g>
	</g>
	<g class="st2">
		<g transform="translate(177.457541, 129.645056)">
			<g>
				<path d="M68.24,15.35c-0.04-0.5,13.24-0.01,13.41-0.18c6.54-0.12,7.97,9.69,3.76,13.54c-1.34,1.63-4.34,1.17-6.24,1.23
					c-0.41,0.16-0.06-4.48-0.17-4.57c0-0.1,0.08-0.18,0.17-0.18h3.17c2.14-0.33,2.11-4.9,0-5.3c0,0-13.94,0-13.94,0
					C67.99,20.03,68.36,15.46,68.24,15.35z M78.05,22.1c0.16,4.78-1.09,13.18-6.94,13.89c-0.11-0.12-2.8,0.22-2.68-0.18
					c0,0,0-4.36,0-4.36c5.69,0.4,5.57-4.68,6.01-9.2C74.32,21.9,77.96,22.19,78.05,22.1z"/>
			</g>
		</g>
	</g>
	<g class="st2">
		<g transform="translate(187.454619, 129.645056)">
			<g>
				<path d="M78.61,16.36h11.97c0.48-0.06-0.14-1.84,0.34-1.9c0.11,0.14,3.74-0.25,3.62,0.18c0.05,0.2-0.16,1.74,0.17,1.72
					c0,0,2.91,0,2.91,0c0.4-0.18,0.07,4.09,0.17,4.18c0.15,0.36-2.98,0.1-3.08,0.18c-0.5-0.02,0,14.96-0.17,15.14
					c0.16,0.36-3.93,0.25-3.79,0c0.03-3.34,0.29-2.06-2.3-1.68c-13.54,1.31-9.52-16.82,2.3-11.64c-0.11-0.16,0.21-1.87-0.17-1.82
					c0,0-11.97,0-11.97,0C78.29,20.83,78.33,16.25,78.61,16.36z M85.48,25.94c-2.28,0.08-2.21,4.15,0.07,4.16
					c0.72-0.12,3.93,0.32,4.45-0.36C92.74,25.94,88.09,25.66,85.48,25.94z"/>
			</g>
		</g>
	</g>
	<g class="st2">
		<g transform="translate(197.368062, 129.645056)">
			<g>
				<path d="M90.03,15.35c-0.04-0.5,13.05-0.01,13.23-0.18c4.71,0.9-0.58,4.88-1.99,6.18c8.21-0.75,8.5,13.98,0.76,14.69
					c-4.39-0.1-15.41,1.63-12.69-6.41c2.53-4.37,11.85-3.2,11.87,2.57c3.09,0.55,3.02-4.43,1.86-6.33c0.26-1.21-14.59,0-14.83-0.69
					c0.13-0.11-0.24-3.96,0.17-3.82c0,0,7.74,0,7.74,0c0.15,0.04,2.17-2.1,2.28-2.15c0.54-0.78-8.16-0.07-8.23-0.3
					C89.8,19.01,90.13,15.47,90.03,15.35z M96.47,30.34c-0.98,0.03-5.24-0.48-3.44,1.7c0.13,0.3,4.65,0.11,4.96,0.16
					C97.73,31.01,97.23,30.4,96.47,30.34z"/>
			</g>
		</g>
	</g>
	<g class="st2">
		<g transform="translate(206.905156, 129.645056)">
			<g>
				<path d="M98.03,30.86l2.6-2.75c1.89,1.85,4.02,5.23,5.56,8.03c0,0-2.74,2.53-2.74,2.53C101.63,36.55,99.61,33.34,98.03,30.86z"
					/>
			</g>
		</g>
	</g>
	<g class="st2">
		<g transform="translate(219.578503, 129.645056)">
			<g>
				<path d="M128.94,15.35v6.58c-0.12,0.37,2.78,0.09,2.89,0.18c0.48,0.03,0.02-6.58,0.17-6.75
					C132.12,15.04,128.83,15.07,128.94,15.35z M111.44,10.18l1.89-2.84c1.77,0.83,3.27,3.09,4.72,4.44
					c0.19,0.04-1.92,3.62-2.14,3.22C114.59,13.28,112.62,11.84,111.44,10.18z M115.19,23.4c-1.43-1.85-3.59-3.5-4.98-5.38
					c0,0,1.89-2.88,1.89-2.88c1.89,1.07,4.01,3.5,5.28,5.29C117.22,20.46,115.46,23.86,115.19,23.4z M118.02,27.03
					c-1.12,4.24-2.17,8.85-4.36,11.72c0,0-2.69-2.16-2.69-2.16c1.38-3.13,2.77-7.42,4.21-11.12
					C115.23,25.61,118.23,26.77,118.02,27.03z M125.39,6.75c0.13,0.11,3.66-0.23,3.55,0.18c0.08,0.08-0.2,4.46,0.17,4.26
					c9.32,0.07,5.82-1.85,6.46,10.92h1.48c-0.14,0.12,0.25,4.05-0.17,3.92c0,0-7.23,0-7.23,0c0.02,3.57,4.03,6.67,7.59,9.37
					c0,0-1.65,3.56-1.65,3.56c-3.71-1.05-6.31-6.24-8.4-8.87c-1.71,3.57-4.78,7.72-8.42,8.89c0,0-1.74-3.56-1.74-3.56
					c3.38-2.35,7.53-5.08,7.59-9.38c0,0-6.71,0-6.71,0c-0.4,0.13-0.07-3.63-0.17-3.74c-0.03-0.57,7.51,0.21,7.48-0.35
					c-0.15-0.18,0.3-6.79-0.17-6.75c-0.18-0.13-5.98,0.28-5.95-0.18c0.12-0.06-0.24-3.99,0.17-3.82
					C127.16,10.81,124.57,12.96,125.39,6.75z"/>
			</g>
		</g>
	</g>
	<g class="st2">
		<g transform="translate(232.25185, 129.645056)">
			<g>
				<path d="M132.78,14.8c0.13,0.12-0.26,4.94,0.17,4.81c0.14-0.08,2.63,0.18,2.56-0.16c0,0,0.41-4.51,0.41-4.51
					c-0.09-0.36,3.12-0.07,3.23-0.16c0.47-0.13-0.37,4.71-0.25,4.83c8.3,0.34,7.77,19.56-1.41,17.61c-0.41,0.16-0.06-4.48-0.17-4.57
					c-0.1-0.36,2.34-0.11,2.46-0.18c1.99-1.33,2.22-9-1.39-8.07c-0.23,7.98-4.46,15.25-12.5,10.25c-3.37-4.13-3.11-14.67,3.47-15.04
					c0.13-0.13-0.27-5.1,0.17-4.99C129.63,14.7,132.95,14.43,132.78,14.8z M128.64,24.4c-1.92,1-2.07,7.08,0.73,6.85V24.4H128.64z
					 M133.63,30.26c0.93-1.7,1.12-3.85,1.33-5.86c-0.14,0.08-2.25-0.19-2.18,0.18c0,0,0,6.51,0,6.51
					C133.11,30.93,133.39,30.65,133.63,30.26z"/>
			</g>
		</g>
	</g>
	<g class="st2">
		<g transform="translate(242.527705, 129.645056)">
			<g>
				<path d="M136.1,15.35c-0.04-0.5,13.05-0.01,13.23-0.18c4.71,0.9-0.58,4.88-1.99,6.18c8.21-0.75,8.5,13.98,0.76,14.69
					c-4.39-0.1-15.41,1.63-12.69-6.41c2.53-4.37,11.85-3.2,11.87,2.57c3.09,0.55,3.02-4.43,1.86-6.33c0.26-1.21-14.59,0-14.83-0.69
					c0.13-0.11-0.24-3.96,0.17-3.82c0,0,7.74,0,7.74,0c0.15,0.04,2.17-2.1,2.28-2.15c0.54-0.78-8.16-0.07-8.23-0.3
					C135.87,19.01,136.2,15.47,136.1,15.35z M142.53,30.34c-0.98,0.03-5.24-0.48-3.44,1.7c0.13,0.3,4.65,0.11,4.96,0.16
					C143.8,31.01,143.29,30.4,142.53,30.34z"/>
			</g>
		</g>
	</g>
	<g class="st2">
		<g transform="translate(252.064799, 129.645056)">
			<g>
				<path d="M148.54,27.45c6.17,0.2,6.2,11.65,0.03,11.84C142.31,39.11,142.31,27.65,148.54,27.45z M147.09,31.52
					c-1.9,1.96,0.73,6.2,2.94,3.68C151.85,33.25,149.29,29.01,147.09,31.52z"/>
			</g>
		</g>
	</g>
	<g class="st2">
		<g transform="translate(264.738146, 129.645056)">
			<g>
				<path d="M157.44,16.36h11.97c0.48-0.06-0.14-1.84,0.34-1.9c0.11,0.14,3.74-0.25,3.62,0.18c0.05,0.2-0.16,1.74,0.17,1.72
					c0,0,2.91,0,2.91,0c0.4-0.18,0.07,4.09,0.17,4.18c0.15,0.36-2.98,0.1-3.08,0.18c-0.5-0.02,0,14.96-0.17,15.14
					c0.16,0.36-3.93,0.25-3.79,0c0.03-3.34,0.29-2.06-2.3-1.68c-13.54,1.31-9.52-16.82,2.3-11.64c-0.11-0.16,0.21-1.87-0.17-1.82
					c0,0-11.97,0-11.97,0C157.12,20.83,157.16,16.25,157.44,16.36z M164.3,25.94c-2.28,0.08-2.21,4.15,0.07,4.16
					c0.72-0.12,3.93,0.32,4.45-0.36C171.57,25.94,166.92,25.66,164.3,25.94z"/>
			</g>
		</g>
	</g>
	<g class="st2">
		<g transform="translate(274.651589, 129.645056)">
			<g>
				<path d="M186.88,15.33c-2.13-2.49-4.69,1.7-2.87,3.6C186.15,21.44,188.7,17.23,186.88,15.33z M182.02,15.33
					c-2.13-2.5-4.63,1.68-2.88,3.6C181.3,21.44,183.83,17.25,182.02,15.33z"/>
			</g>
		</g>
	</g>
	<g class="st2">
		<g transform="translate(284.342011, 129.645056)">
			<g>
				<path d="M177.19,15.33c0.84,1.02,0.8,2.83-0.15,3.77v-3.94C177.1,15.23,177.15,15.28,177.19,15.33z"/>
				<path d="M194.97,19.75v0.13h-0.03C194.94,19.84,194.95,19.8,194.97,19.75z"/>
			</g>
		</g>
	</g>
	<g class="st2">
		<g transform="translate(293.29367, 129.645056)">
			<g>
				<path d="M204.88,29.55c0.46,9.29-13.16,5.75-18.42,6.37c-0.34,0.24-0.26-4.92,0-4.71c0,0,12.96,0,12.96,0
					c1.16,0.1,1.93-1.31,1.39-2.33c-1.98-2.87-10.24,0.55-12.66-2.18c-4.27-3.3-2.45-11.44,3.26-11.53
					c0.16,0.15,12.96-0.3,12.91,0.18c-0.13,0.13,0.26,4.66-0.17,4.54c0,0-12.9,0-12.9,0c-1.49,0.05-2.2,2.04-0.89,2.89
					C195.54,23.94,204.92,20.76,204.88,29.55z"/>
			</g>
		</g>
	</g>
	<g class="st2">
		<g transform="translate(302.468352, 129.645056)">
			<g>
				<path d="M199.18,41.18c-0.08-0.14-3.79,0.26-3.65-0.18c0,0,0-18.74,0-18.74c0-1.16,0.83-2.29,1.96-2.3
					c6.71,0.43,18.34-2.83,17.96,8.04c0.18,9.34-7.56,8.13-14.03,7.99c-0.41,0.15-0.06-4.43-0.17-4.53
					c-0.04-0.49,8.51-0.02,8.68-0.18c2.33-0.63,2.32-5.94,0-6.57c0,0-9.85,0-9.85,0C198.31,24.09,200.03,40.86,199.18,41.18z"/>
			</g>
		</g>
	</g>
	<g class="st2">
		<g transform="translate(312.298163, 129.645056)">
			<g>
				<path d="M211.4,36c-8.11-0.06-8.25-15.41-0.51-16.03c2.48,0.38,10.66-1.1,12.37,1.42c4.04,4.13,3.16,14.39-3.76,14.61
					C219.51,36,211.4,36,211.4,36z M210.76,24.72c-2.33,0.58-2.29,5.93,0,6.57c0.66-0.22,10.23,0.59,10.29-0.59
					c1.1-1.59,1.22-5.34-0.92-5.98C220.14,24.72,210.76,24.72,210.76,24.72z"/>
			</g>
		</g>
	</g>
	<g class="st2">
		<g transform="translate(322.183729, 129.645056)">
			<g>
				<path d="M223.72,15.23c0.13,0.13-0.27,4.85,0.17,4.73c0.17,0.17,11-0.32,10.97,0.18c-0.12,0.1,0.25,4.72-0.17,4.57
					c0,0-10.97,0-10.97,0c-1.05,8.84,5.6,6.23,11.1,6.57c0.33-0.14,0.26,4.85,0,4.71c-9.7,0.32-15.21,1.12-14.92-11.28
					c-0.13-0.14-5.01,0.29-4.92-0.18c-0.03-6.02-0.75-4.36,4.75-4.57c0.52-0.01-0.17-4.89,0.34-4.91
					C220.17,15.17,223.85,14.82,223.72,15.23z"/>
			</g>
		</g>
	</g>
	<g class="st2">
		<g transform="translate(331.455983, 129.645056)">
			<g>
				<path d="M228.92,20.1c-0.17,0.19,0.33,16.04-0.17,16.01c-0.12-0.13-3.77,0.25-3.65-0.18c0,0,0-15.84,0-15.84
					C225.01,19.76,229,19.83,228.92,20.1z M224.69,15.02c-0.07-3.14,4.66-3.11,4.61,0C229.37,18.18,224.59,18.21,224.69,15.02z"/>
			</g>
		</g>
	</g>
	<g class="st2">
		<g transform="translate(333.480008, 129.645056)">
			<g>
				<path d="M243.02,15.06c0.08,0.14,3.79-0.26,3.65,0.18c0,0,0,18.47,0,18.47c-0.01,1.17-0.8,2.31-1.96,2.3
					c-6.71-0.45-18.33,2.87-17.96-8c-0.23-9.35,7.56-8.18,14.03-8.03c0.41-0.16,0.06,4.48,0.17,4.57c0.04,0.49-8.51,0.02-8.68,0.18
					c-2.35,0.59-2.31,5.92,0,6.57c0,0,9.85,0,9.85,0C243.89,31.82,242.17,15.43,243.02,15.06z"/>
			</g>
		</g>
	</g>
	<g class="st2">
		<g transform="translate(343.309819, 129.645056)">
			<g>
				<path d="M242.96,36c-8.11-0.05-8.2-15.38-0.51-16.03c0.18,0.16,12.21-0.31,12.18,0.18c-0.13,0.13,0.26,4.41-0.17,4.3
					c-0.64,0.2-12.96-0.54-12.93,0.55c-4.94,10.24,8.8,5.44,13.1,6.83c-0.09,0.05,0.21,4.39-0.17,4.18
					C254.47,36,242.96,36,242.96,36z M254.47,29.55c-0.19-0.16-11.86,0.31-11.85-0.18c0.11-0.12-0.21-3.15,0.17-3.03
					c0,0,11.68,0,11.68,0C254.79,26.22,254.74,29.66,254.47,29.55z M-190.09,154.35"/>
			</g>
		</g>
	</g>
</g>
<g id="レイヤー_3">
</g>
<g id="レイヤー_2">
</g>
</svg>
