<?xml version="1.0" encoding="utf-8"?>
<!-- Generator: Adobe Adobe Illustrator 24.2.0, SVG Export Plug-In . SVG Version: 6.00 Build 0)  -->
<svg version="1.1" id="レイヤー_1" xmlns="http://www.w3.org/2000/svg" xmlns:xlink="http://www.w3.org/1999/xlink" x="0px"
	 y="0px" viewBox="0 0 493.95 211.05" style="enable-background:new 0 0 493.95 211.05;" xml:space="preserve">
<style type="text/css">
	.st0{fill:#FF5722;fill-opacity:0.4;}
	.st1{fill:none;stroke:url(#SVGID_1_);stroke-width:3;stroke-miterlimit:4;}
</style>
<g>
	<g>
		<g transform="translate(85.062054, 207.35823)">
			<g>
				<path class="st0" d="M-28.61-85.61c-5.58,0-11.04-1.16-16.39-3.47c-5.35-2.34-10.06-5.67-14.13-9.99l9.6-12.7
					c3.01,3.08,6.38,5.54,10.09,7.41c3.73,1.86,7.45,2.79,11.13,2.79c4.38,0,7.69-0.94,9.94-2.84c2.27-1.91,3.42-4.5,3.42-7.74
					c0-2.31-0.54-4.15-1.61-5.5c-1.06-1.38-2.52-2.59-4.41-3.64c-1.87-1.04-4.05-2.14-6.53-3.3l-11.17-5.25
					c-2.79-1.32-5.49-3.05-8.1-5.16c-2.61-2.12-4.75-4.79-6.41-8.04c-1.64-3.24-2.46-7.11-2.46-11.59c0-5.05,1.24-9.56,3.72-13.54
					c2.48-4,5.88-7.19,10.21-9.56c4.35-2.37,9.35-3.55,15.01-3.55c4.88,0,9.61,1.02,14.2,3.05c4.61,2.03,8.61,4.97,12.01,8.8
					l-8.48,11.59c-2.64-2.42-5.39-4.3-8.25-5.63c-2.87-1.32-6.03-1.99-9.48-1.99c-3.71,0-6.66,0.87-8.83,2.58
					c-2.18,1.69-3.26,4.08-3.26,7.15c0,2.15,0.59,3.92,1.8,5.33c1.2,1.42,2.8,2.62,4.8,3.64c2,0.99,4.15,2.02,6.49,3.09l10.98,5.12
					c5.11,2.32,9.19,5.41,12.24,9.27c3.04,3.87,4.57,9.13,4.57,15.78c0,4.97-1.23,9.58-3.68,13.84c-2.44,4.23-5.93,7.64-10.48,10.2
					C-16.62-86.9-22.14-85.61-28.61-85.61z"/>
			</g>
		</g>
	</g>
	<g>
		<g transform="translate(113.76364, 207.35823)">
			<g>
				<path class="st0" d="M-13.13-60.55v-96.57H0.42l1.11,7.24h0.46c2.63-2.48,5.55-4.59,8.75-6.35c3.2-1.75,6.5-2.62,9.9-2.62
					c5.19,0,9.64,1.48,13.36,4.44c3.73,2.94,6.58,7.07,8.56,12.4c1.97,5.31,2.96,11.53,2.96,18.66c0,7.99-1.3,14.8-3.88,20.44
					c-2.56,5.65-5.87,9.94-9.94,12.91c-4.07,2.93-8.43,4.4-13.09,4.4c-2.79,0-5.51-0.67-8.14-1.99c-2.64-1.32-5.16-3.18-7.56-5.59
					l0.42,11.43v21.2H-13.13z M14.89-100.67c3.84,0,7.04-1.84,9.63-5.54c2.61-3.69,3.92-9.32,3.92-16.88c0-6.62-1-11.73-2.99-15.32
					c-2-3.58-5.18-5.37-9.56-5.37c-2.1,0-4.17,0.61-6.22,1.82c-2.02,1.22-4.14,3.03-6.33,5.42v30.64c2.04,1.93,4.07,3.28,6.06,4.06
					C11.39-101.06,13.22-100.67,14.89-100.67z"/>
			</g>
		</g>
	</g>
	<g>
		<g transform="translate(143.385148, 207.35823)">
			<g>
				<path class="st0" d="M56.42-85.61c-5.28,0-10.23-1.43-14.85-4.27c-4.63-2.88-8.39-7.05-11.25-12.53
					c-2.84-5.5-4.26-12.06-4.26-19.68c0-7.81,1.42-14.44,4.26-19.89c2.86-5.44,6.61-9.62,11.25-12.53c4.63-2.9,9.58-4.36,14.85-4.36
					c5.3,0,10.26,1.46,14.89,4.36c4.63,2.91,8.37,7.09,11.21,12.53c2.86,5.45,4.3,12.08,4.3,19.89c0,7.62-1.44,14.18-4.3,19.68
					c-2.84,5.48-6.58,9.65-11.21,12.53C66.68-87.03,61.72-85.61,56.42-85.61z M56.42-100.54c4.3,0,7.61-1.95,9.94-5.84
					c2.35-3.91,3.53-9.15,3.53-15.7c0-6.65-1.18-11.95-3.53-15.91c-2.33-3.95-5.64-5.92-9.94-5.92c-4.28,0-7.59,1.98-9.94,5.92
					c-2.33,3.96-3.49,9.26-3.49,15.91c0,6.55,1.16,11.79,3.49,15.7C48.83-102.49,52.14-100.54,56.42-100.54z"/>
			</g>
		</g>
	</g>
	<g>
		<g transform="translate(172.178721, 207.35823)">
			<g>
				<path class="st0" d="M95.1-85.61c-7.52,0-12.88-2.39-16.04-7.19c-3.18-4.82-4.76-11.14-4.76-18.96v-30.89h-8.9v-13.58l9.71-0.89
					l1.92-18.66h13.89v18.66h15.58v14.47H90.91v30.89c0,7.82,2.86,11.72,8.6,11.72c1.05,0,2.13-0.17,3.26-0.51
					c1.12-0.34,2.11-0.68,2.96-1.02l2.69,13.33c-1.64,0.59-3.57,1.16-5.8,1.74C100.39-85.9,97.88-85.61,95.1-85.61z"/>
			</g>
		</g>
	</g>
	<g>
		<g transform="translate(191.497091, 207.35823)">
			<g>
				<path class="st0" d="M100.09-87.34v-69.78h16.47v69.78H100.09z M108.42-168.34c-2.84,0-5.21-0.94-7.1-2.84
					c-1.9-1.91-2.84-4.28-2.84-7.11c0-2.98,0.94-5.4,2.84-7.24c1.89-1.83,4.26-2.75,7.1-2.75c2.86,0,5.22,0.92,7.06,2.75
					c1.86,1.84,2.8,4.25,2.8,7.24c0,2.82-0.94,5.19-2.8,7.11C113.64-169.28,111.28-168.34,108.42-168.34z"/>
			</g>
		</g>
	</g>
	<g>
		<g transform="translate(205.479916, 207.35823)">
			<g>
				<path class="st0" d="M142.72-85.61c-5.22,0-9.78-1.46-13.66-4.36c-3.87-2.9-6.87-7.09-9.02-12.57
					c-2.15-5.47-3.22-11.99-3.22-19.55c0-7.64,1.27-14.2,3.8-19.68c2.53-5.5,5.83-9.71,9.9-12.65c4.07-2.96,8.35-4.44,12.86-4.44
					c3.55,0,6.54,0.7,8.98,2.07c2.46,1.35,4.81,3.21,7.06,5.54l-0.65-10.96v-24.54h16.58v99.4h-13.43l-1.34-7.24h-0.35
					c-2.33,2.52-5.01,4.64-8.02,6.39C149.17-86.47,146.02-85.61,142.72-85.61z M146.98-100.67c2.2,0,4.26-0.55,6.18-1.65
					c1.92-1.12,3.78-2.98,5.6-5.59v-30.64c-1.9-1.91-3.84-3.27-5.83-4.06c-2-0.78-3.98-1.18-5.95-1.18c-3.53,0-6.6,1.84-9.21,5.5
					c-2.59,3.64-3.88,8.96-3.88,15.95c0,7.23,1.13,12.64,3.42,16.25C139.61-102.47,142.83-100.67,146.98-100.67z"/>
			</g>
		</g>
	</g>
	<g>
		<g transform="translate(235.101424, 207.35823)">
			<g>
				<path class="st0" d="M191.04-85.61c-5.89,0-11.21-1.46-15.97-4.36c-4.74-2.9-8.5-7.08-11.28-12.53
					c-2.76-5.44-4.15-11.98-4.15-19.59c0-7.55,1.4-14.07,4.22-19.55c2.81-5.5,6.46-9.74,10.94-12.74c4.5-2.98,9.27-4.49,14.32-4.49
					c5.81,0,10.67,1.44,14.59,4.32c3.92,2.86,6.87,6.8,8.87,11.85c2,5.03,2.99,10.77,2.99,17.22c0,3.67-0.27,6.45-0.81,8.34H175.8
					c0.66,5.76,2.57,10.11,5.72,13.08c3.17,2.94,7.1,4.4,11.78,4.4c2.63,0,5.09-0.4,7.37-1.23c2.3-0.85,4.59-2.05,6.87-3.64
					l5.64,11.21c-3.1,2.32-6.56,4.18-10.4,5.59C198.95-86.31,195.03-85.61,191.04-85.61z M175.57-129.19h25.76
					c0-4.74-0.99-8.48-2.96-11.26c-1.95-2.79-4.95-4.19-9.02-4.19c-3.33,0-6.31,1.29-8.94,3.85
					C177.77-138.22,176.16-134.35,175.57-129.19z"/>
			</g>
		</g>
	</g>
	<g>
		<g transform="translate(82.072514, 207.306051)">
			<g>
				<path d="M-32.96-85.69c-5.58,0-11.04-1.16-16.39-3.47c-5.35-2.34-10.06-5.67-14.13-9.99l9.6-12.7
					c3.01,3.08,6.38,5.54,10.09,7.41c3.73,1.86,7.45,2.79,11.13,2.79c4.38,0,7.69-0.94,9.94-2.84c2.27-1.91,3.42-4.5,3.42-7.74
					c0-2.31-0.54-4.15-1.61-5.5c-1.06-1.38-2.52-2.59-4.41-3.64c-1.87-1.04-4.05-2.14-6.53-3.3l-11.17-5.25
					c-2.79-1.32-5.49-3.05-8.1-5.16c-2.61-2.12-4.75-4.79-6.41-8.04c-1.64-3.24-2.46-7.11-2.46-11.59c0-5.05,1.24-9.56,3.72-13.54
					c2.48-4,5.88-7.19,10.21-9.56c4.35-2.37,9.35-3.55,15.01-3.55c4.88,0,9.61,1.02,14.2,3.05c4.61,2.03,8.61,4.97,12.01,8.8
					l-8.48,11.59c-2.64-2.42-5.39-4.3-8.25-5.63c-2.87-1.32-6.03-1.99-9.48-1.99c-3.71,0-6.66,0.87-8.83,2.58
					c-2.18,1.69-3.26,4.08-3.26,7.15c0,2.15,0.59,3.92,1.8,5.33c1.2,1.42,2.8,2.62,4.8,3.64c2,0.99,4.15,2.02,6.49,3.09l10.98,5.12
					c5.11,2.32,9.19,5.41,12.24,9.27c3.04,3.87,4.57,9.13,4.57,15.78c0,4.97-1.23,9.58-3.68,13.84c-2.44,4.23-5.93,7.64-10.48,10.2
					C-20.98-86.99-26.49-85.69-32.96-85.69z"/>
			</g>
		</g>
	</g>
	<g>
		<g transform="translate(110.7741, 207.306051)">
			<g>
				<path d="M-17.49-60.64v-96.57h13.55l1.11,7.24h0.46c2.63-2.48,5.55-4.59,8.75-6.35c3.2-1.75,6.5-2.62,9.9-2.62
					c5.19,0,9.64,1.48,13.36,4.44c3.73,2.94,6.58,7.07,8.56,12.4c1.97,5.31,2.96,11.53,2.96,18.66c0,7.99-1.3,14.8-3.88,20.44
					c-2.56,5.65-5.87,9.94-9.94,12.91c-4.07,2.93-8.43,4.4-13.09,4.4c-2.79,0-5.51-0.67-8.14-1.99c-2.64-1.32-5.16-3.18-7.56-5.59
					l0.42,11.43v21.2H-17.49z M10.53-100.76c3.84,0,7.04-1.84,9.63-5.54c2.61-3.69,3.92-9.32,3.92-16.88c0-6.62-1-11.73-2.99-15.32
					c-2-3.58-5.18-5.37-9.56-5.37c-2.1,0-4.17,0.61-6.22,1.82c-2.02,1.22-4.14,3.03-6.33,5.42v30.64c2.04,1.93,4.07,3.28,6.06,4.06
					C7.04-101.15,8.86-100.76,10.53-100.76z"/>
			</g>
		</g>
	</g>
	<g>
		<g transform="translate(140.395607, 207.306051)">
			<g>
				<path d="M52.06-85.69c-5.28,0-10.23-1.43-14.85-4.27c-4.63-2.88-8.39-7.05-11.25-12.53c-2.84-5.5-4.26-12.06-4.26-19.68
					c0-7.81,1.42-14.44,4.26-19.89c2.86-5.44,6.61-9.62,11.25-12.53c4.63-2.9,9.58-4.36,14.85-4.36c5.3,0,10.26,1.46,14.89,4.36
					c4.63,2.91,8.37,7.09,11.21,12.53c2.86,5.45,4.3,12.08,4.3,19.89c0,7.62-1.44,14.18-4.3,19.68c-2.84,5.48-6.58,9.65-11.21,12.53
					C62.32-87.12,57.36-85.69,52.06-85.69z M52.06-100.63c4.3,0,7.61-1.95,9.94-5.84c2.35-3.91,3.53-9.15,3.53-15.7
					c0-6.65-1.18-11.95-3.53-15.91c-2.33-3.95-5.64-5.92-9.94-5.92c-4.28,0-7.59,1.98-9.94,5.92c-2.33,3.96-3.49,9.26-3.49,15.91
					c0,6.55,1.16,11.79,3.49,15.7C44.47-102.58,47.79-100.63,52.06-100.63z"/>
			</g>
		</g>
	</g>
	<g>
		<g transform="translate(169.189181, 207.306051)">
			<g>
				<path d="M90.74-85.69c-7.52,0-12.88-2.39-16.04-7.19c-3.18-4.82-4.76-11.14-4.76-18.96v-30.89h-8.9v-13.58l9.71-0.89l1.92-18.66
					h13.89v18.66h15.58v14.47H86.56v30.89c0,7.82,2.86,11.72,8.6,11.72c1.05,0,2.13-0.17,3.26-0.51c1.12-0.34,2.11-0.68,2.96-1.02
					l2.69,13.33c-1.64,0.59-3.57,1.16-5.8,1.74C96.04-85.99,93.52-85.69,90.74-85.69z"/>
			</g>
		</g>
	</g>
	<g>
		<g transform="translate(188.507551, 207.306051)">
			<g>
				<path d="M95.73-87.43v-69.78h16.47v69.78H95.73z M104.06-168.42c-2.84,0-5.21-0.94-7.1-2.84c-1.9-1.91-2.84-4.28-2.84-7.11
					c0-2.98,0.94-5.4,2.84-7.24c1.89-1.83,4.26-2.75,7.1-2.75c2.86,0,5.22,0.92,7.06,2.75c1.86,1.84,2.8,4.25,2.8,7.24
					c0,2.82-0.94,5.19-2.8,7.11C109.28-169.37,106.92-168.42,104.06-168.42z"/>
			</g>
		</g>
	</g>
	<g>
		<g transform="translate(202.490376, 207.306051)">
			<g>
				<path d="M138.36-85.69c-5.22,0-9.78-1.46-13.66-4.36c-3.87-2.9-6.87-7.09-9.02-12.57c-2.15-5.47-3.22-11.99-3.22-19.55
					c0-7.64,1.27-14.2,3.8-19.68c2.53-5.5,5.83-9.71,9.9-12.65c4.07-2.96,8.35-4.44,12.86-4.44c3.55,0,6.54,0.7,8.98,2.07
					c2.46,1.35,4.81,3.21,7.06,5.54l-0.65-10.96v-24.54h16.58v99.4h-13.43l-1.34-7.24h-0.35c-2.33,2.52-5.01,4.64-8.02,6.39
					C144.82-86.56,141.66-85.69,138.36-85.69z M142.62-100.76c2.2,0,4.26-0.55,6.18-1.65c1.92-1.12,3.78-2.98,5.6-5.59v-30.64
					c-1.9-1.91-3.84-3.27-5.83-4.06c-2-0.78-3.98-1.18-5.95-1.18c-3.53,0-6.6,1.84-9.21,5.5c-2.59,3.64-3.88,8.96-3.88,15.95
					c0,7.23,1.13,12.64,3.42,16.25C135.25-102.56,138.48-100.76,142.62-100.76z"/>
			</g>
		</g>
	</g>
	<g>
		<g transform="translate(232.111883, 207.306051)">
			<g>
				<path d="M186.69-85.69c-5.89,0-11.21-1.46-15.97-4.36c-4.74-2.9-8.5-7.08-11.28-12.53c-2.76-5.44-4.15-11.98-4.15-19.59
					c0-7.55,1.4-14.07,4.22-19.55c2.81-5.5,6.46-9.74,10.94-12.74c4.5-2.98,9.27-4.49,14.32-4.49c5.81,0,10.67,1.44,14.59,4.32
					c3.92,2.86,6.87,6.8,8.87,11.85c2,5.03,2.99,10.77,2.99,17.22c0,3.67-0.27,6.45-0.81,8.34h-38.96
					c0.66,5.76,2.57,10.11,5.72,13.08c3.17,2.94,7.1,4.4,11.78,4.4c2.63,0,5.09-0.4,7.37-1.23c2.3-0.85,4.59-2.05,6.87-3.64
					l5.64,11.21c-3.1,2.32-6.56,4.18-10.4,5.59S190.68-85.69,186.69-85.69z M171.22-129.28h25.76c0-4.74-0.99-8.48-2.96-11.26
					c-1.95-2.79-4.95-4.19-9.02-4.19c-3.33,0-6.31,1.29-8.94,3.85C173.42-138.31,171.8-134.44,171.22-129.28z"/>
			</g>
		</g>
	</g>
	
		<linearGradient id="SVGID_1_" gradientUnits="userSpaceOnUse" x1="18.9888" y1="492.2823" x2="268.6514" y2="242.6197" gradientTransform="matrix(1 2.832107e-03 2.832107e-03 -1 102.1161 525.8583)">
		<stop  offset="0" style="stop-color:#FF5722"/>
		<stop  offset="0.0156" style="stop-color:#FF5722"/>
		<stop  offset="0.0166" style="stop-color:#FF5822"/>
		<stop  offset="0.0234" style="stop-color:#FF5821"/>
		<stop  offset="0.0312" style="stop-color:#FF5821"/>
		<stop  offset="0.0391" style="stop-color:#FF5921"/>
		<stop  offset="0.0469" style="stop-color:#FF5921"/>
		<stop  offset="0.0547" style="stop-color:#FF5A20"/>
		<stop  offset="0.0625" style="stop-color:#FF5A20"/>
		<stop  offset="0.0703" style="stop-color:#FF5B20"/>
		<stop  offset="0.0781" style="stop-color:#FF5B20"/>
		<stop  offset="0.0859" style="stop-color:#FF5C1F"/>
		<stop  offset="0.0938" style="stop-color:#FF5C1F"/>
		<stop  offset="0.1016" style="stop-color:#FF5D1F"/>
		<stop  offset="0.1094" style="stop-color:#FF5D1F"/>
		<stop  offset="0.1172" style="stop-color:#FF5E1E"/>
		<stop  offset="0.125" style="stop-color:#FF5E1E"/>
		<stop  offset="0.1328" style="stop-color:#FF5F1E"/>
		<stop  offset="0.1406" style="stop-color:#FF5F1D"/>
		<stop  offset="0.1484" style="stop-color:#FF601D"/>
		<stop  offset="0.1562" style="stop-color:#FF601D"/>
		<stop  offset="0.1641" style="stop-color:#FF611D"/>
		<stop  offset="0.1719" style="stop-color:#FF621C"/>
		<stop  offset="0.1797" style="stop-color:#FF621C"/>
		<stop  offset="0.1875" style="stop-color:#FF631C"/>
		<stop  offset="0.1953" style="stop-color:#FF631C"/>
		<stop  offset="0.2031" style="stop-color:#FF641B"/>
		<stop  offset="0.2109" style="stop-color:#FF641B"/>
		<stop  offset="0.2188" style="stop-color:#FF651B"/>
		<stop  offset="0.2266" style="stop-color:#FF651B"/>
		<stop  offset="0.2344" style="stop-color:#FF661A"/>
		<stop  offset="0.2422" style="stop-color:#FF661A"/>
		<stop  offset="0.25" style="stop-color:#FF671A"/>
		<stop  offset="0.2578" style="stop-color:#FF6719"/>
		<stop  offset="0.2656" style="stop-color:#FF6819"/>
		<stop  offset="0.2734" style="stop-color:#FF6819"/>
		<stop  offset="0.2812" style="stop-color:#FF6919"/>
		<stop  offset="0.2891" style="stop-color:#FF6918"/>
		<stop  offset="0.2969" style="stop-color:#FF6A18"/>
		<stop  offset="0.3047" style="stop-color:#FF6A18"/>
		<stop  offset="0.3125" style="stop-color:#FF6B18"/>
		<stop  offset="0.3203" style="stop-color:#FF6B17"/>
		<stop  offset="0.3281" style="stop-color:#FF6C17"/>
		<stop  offset="0.3359" style="stop-color:#FF6C17"/>
		<stop  offset="0.3438" style="stop-color:#FF6D16"/>
		<stop  offset="0.3516" style="stop-color:#FF6D16"/>
		<stop  offset="0.3594" style="stop-color:#FF6E16"/>
		<stop  offset="0.3672" style="stop-color:#FF6E16"/>
		<stop  offset="0.375" style="stop-color:#FF6F15"/>
		<stop  offset="0.3828" style="stop-color:#FF6F15"/>
		<stop  offset="0.3906" style="stop-color:#FF7015"/>
		<stop  offset="0.3984" style="stop-color:#FF7015"/>
		<stop  offset="0.4062" style="stop-color:#FF7114"/>
		<stop  offset="0.4141" style="stop-color:#FF7214"/>
		<stop  offset="0.4219" style="stop-color:#FF7214"/>
		<stop  offset="0.4297" style="stop-color:#FF7314"/>
		<stop  offset="0.4375" style="stop-color:#FF7313"/>
		<stop  offset="0.4453" style="stop-color:#FF7413"/>
		<stop  offset="0.4531" style="stop-color:#FF7413"/>
		<stop  offset="0.4609" style="stop-color:#FF7512"/>
		<stop  offset="0.4688" style="stop-color:#FF7512"/>
		<stop  offset="0.4766" style="stop-color:#FF7612"/>
		<stop  offset="0.4844" style="stop-color:#FF7612"/>
		<stop  offset="0.4922" style="stop-color:#FF7711"/>
		<stop  offset="0.5" style="stop-color:#FF7711"/>
		<stop  offset="0.5078" style="stop-color:#FF7811"/>
		<stop  offset="0.5156" style="stop-color:#FF7811"/>
		<stop  offset="0.5234" style="stop-color:#FF7910"/>
		<stop  offset="0.5312" style="stop-color:#FF7910"/>
		<stop  offset="0.5391" style="stop-color:#FF7A10"/>
		<stop  offset="0.5469" style="stop-color:#FF7A0F"/>
		<stop  offset="0.5547" style="stop-color:#FF7B0F"/>
		<stop  offset="0.5625" style="stop-color:#FF7B0F"/>
		<stop  offset="0.5703" style="stop-color:#FF7C0F"/>
		<stop  offset="0.5781" style="stop-color:#FF7C0E"/>
		<stop  offset="0.5859" style="stop-color:#FF7D0E"/>
		<stop  offset="0.5938" style="stop-color:#FF7D0E"/>
		<stop  offset="0.6016" style="stop-color:#FF7E0E"/>
		<stop  offset="0.6094" style="stop-color:#FF7E0D"/>
		<stop  offset="0.6172" style="stop-color:#FF7F0D"/>
		<stop  offset="0.625" style="stop-color:#FF7F0D"/>
		<stop  offset="0.6328" style="stop-color:#FF800D"/>
		<stop  offset="0.6406" style="stop-color:#FF810C"/>
		<stop  offset="0.6484" style="stop-color:#FF810C"/>
		<stop  offset="0.6562" style="stop-color:#FF820C"/>
		<stop  offset="0.6641" style="stop-color:#FF820B"/>
		<stop  offset="0.6719" style="stop-color:#FF830B"/>
		<stop  offset="0.6797" style="stop-color:#FF830B"/>
		<stop  offset="0.6875" style="stop-color:#FF840B"/>
		<stop  offset="0.6953" style="stop-color:#FF840A"/>
		<stop  offset="0.7031" style="stop-color:#FF850A"/>
		<stop  offset="0.7109" style="stop-color:#FF850A"/>
		<stop  offset="0.7188" style="stop-color:#FF860A"/>
		<stop  offset="0.7266" style="stop-color:#FF8609"/>
		<stop  offset="0.7344" style="stop-color:#FF8709"/>
		<stop  offset="0.7422" style="stop-color:#FF8709"/>
		<stop  offset="0.75" style="stop-color:#FF8808"/>
		<stop  offset="0.7578" style="stop-color:#FF8808"/>
		<stop  offset="0.7656" style="stop-color:#FF8908"/>
		<stop  offset="0.7734" style="stop-color:#FF8908"/>
		<stop  offset="0.7812" style="stop-color:#FF8A07"/>
		<stop  offset="0.7891" style="stop-color:#FF8A07"/>
		<stop  offset="0.7969" style="stop-color:#FF8B07"/>
		<stop  offset="0.8047" style="stop-color:#FF8B07"/>
		<stop  offset="0.8125" style="stop-color:#FF8C06"/>
		<stop  offset="0.8203" style="stop-color:#FF8C06"/>
		<stop  offset="0.8281" style="stop-color:#FF8D06"/>
		<stop  offset="0.8359" style="stop-color:#FF8D06"/>
		<stop  offset="0.8438" style="stop-color:#FF8E05"/>
		<stop  offset="0.8516" style="stop-color:#FF8E05"/>
		<stop  offset="0.8594" style="stop-color:#FF8F05"/>
		<stop  offset="0.8672" style="stop-color:#FF8F04"/>
		<stop  offset="0.875" style="stop-color:#FF9004"/>
		<stop  offset="0.8828" style="stop-color:#FF9104"/>
		<stop  offset="0.8906" style="stop-color:#FF9104"/>
		<stop  offset="0.8984" style="stop-color:#FF9203"/>
		<stop  offset="0.9062" style="stop-color:#FF9203"/>
		<stop  offset="0.9141" style="stop-color:#FF9303"/>
		<stop  offset="0.9219" style="stop-color:#FF9303"/>
		<stop  offset="0.9297" style="stop-color:#FF9402"/>
		<stop  offset="0.9375" style="stop-color:#FF9402"/>
		<stop  offset="0.9453" style="stop-color:#FF9502"/>
		<stop  offset="0.9531" style="stop-color:#FF9501"/>
		<stop  offset="0.9609" style="stop-color:#FF9601"/>
		<stop  offset="0.9688" style="stop-color:#FF9601"/>
		<stop  offset="0.9766" style="stop-color:#FF9701"/>
		<stop  offset="0.9834" style="stop-color:#FF9700"/>
		<stop  offset="0.9844" style="stop-color:#FF9700"/>
		<stop  offset="1" style="stop-color:#FF9800"/>
	</linearGradient>
	<path class="st1" d="M3.03,158.05l487.9,1.52"/>
	<g>
		<g transform="translate(174.997512, 231.736146)">
			<g>
				<path d="M71.45-52.21v0.42h2.42v-0.42H71.45z M73.87-55.68v-0.42h-2.42v0.42H73.87z M73.87-53.74v-0.42h-2.42v0.42H73.87z
					 M81.2-47.73h-3.88c0.61,0.34,1.29,0.66,2.03,0.93c0.74,0.25,1.47,0.47,2.19,0.63c-0.13,0.17-0.29,0.36-0.46,0.55
					c-0.15,0.22-0.31,0.44-0.46,0.68c-0.15,0.25-0.29,0.48-0.38,0.68c-0.83-0.25-1.64-0.59-2.46-1.02c-0.83-0.42-1.57-0.89-2.26-1.4
					v2.5h-2.15v-2.41c-0.69,0.51-1.46,0.95-2.3,1.35c-0.84,0.42-1.68,0.76-2.49,1.02c-0.15-0.29-0.36-0.62-0.61-1.02
					c-0.26-0.37-0.5-0.68-0.73-0.93c0.77-0.17,1.54-0.38,2.3-0.63c0.79-0.28,1.51-0.59,2.15-0.93h-3.92v-1.82h5.6v-0.47h-3.95v-4.27
					c-0.11,0.08-0.21,0.17-0.31,0.25c-0.08,0.08-0.17,0.17-0.27,0.25c-0.11-0.17-0.25-0.35-0.42-0.55
					c-0.18-0.22-0.37-0.42-0.58-0.59c-0.18-0.19-0.35-0.35-0.5-0.47c0.82-0.61,1.52-1.31,2.11-2.07c0.61-0.76,1.08-1.48,1.42-2.16
					l2.23,0.47c-0.23,0.42-0.48,0.84-0.73,1.23h1.65c0.12-0.28,0.24-0.56,0.35-0.85c0.1-0.28,0.17-0.55,0.23-0.8l2.42,0.3
					c-0.11,0.23-0.22,0.47-0.35,0.72c-0.13,0.23-0.26,0.44-0.38,0.63h4.18v1.82H75.9v0.42h3.72v1.52H75.9v0.42h3.72v1.52H75.9v0.42
					h4.87v1.78h-5.26v0.47h5.68V-47.73z"/>
			</g>
		</g>
	</g>
	<g>
		<g transform="translate(180.997556, 231.736146)">
			<g>
				<path d="M79.46-48.28c0.2,0,0.4-0.08,0.61-0.25c0.23-0.17,0.46-0.39,0.69-0.68c-0.41-0.76-0.81-1.66-1.19-2.71
					c-0.26,0.4-0.46,0.83-0.61,1.27c-0.13,0.45-0.19,0.89-0.19,1.31c0,0.32,0.06,0.57,0.19,0.76
					C79.09-48.37,79.25-48.28,79.46-48.28z M83.18-54.24c-0.36,0.06-0.71,0.16-1.04,0.3c-0.31,0.12-0.59,0.25-0.84,0.42
					c0.12,0.42,0.25,0.83,0.38,1.18c0.15,0.34,0.29,0.66,0.42,0.93c0.23-0.44,0.43-0.91,0.61-1.4
					C82.89-53.28,83.05-53.76,83.18-54.24z M85.98-56.66l-0.08,0.38c0.74,0.2,1.39,0.55,1.96,1.06c0.56,0.51,1,1.14,1.31,1.9
					c0.33,0.76,0.5,1.63,0.5,2.58c0,1.16-0.23,2.16-0.69,3c-0.46,0.85-1.09,1.52-1.88,2.03c-0.8,0.48-1.71,0.8-2.73,0.97l-1.34-2.24
					c0.82-0.08,1.51-0.25,2.07-0.51c0.56-0.25,1-0.55,1.31-0.89c0.33-0.36,0.58-0.76,0.73-1.18c0.15-0.44,0.23-0.89,0.23-1.31
					c0-0.81-0.18-1.5-0.54-2.07c-0.36-0.56-0.84-0.95-1.46-1.18c-0.26,0.88-0.54,1.74-0.84,2.58c-0.29,0.83-0.63,1.59-1.04,2.29
					c0.12,0.15,0.24,0.3,0.35,0.47c0.12,0.15,0.25,0.29,0.38,0.42l-1.77,1.57l-0.38-0.51c-0.52,0.59-0.99,1.01-1.42,1.23
					c-0.44,0.23-0.92,0.34-1.46,0.34c-0.41,0-0.81-0.13-1.19-0.38c-0.38-0.28-0.71-0.66-0.96-1.14c-0.23-0.51-0.35-1.12-0.35-1.86
					c0-0.93,0.17-1.84,0.54-2.75c0.38-0.93,0.9-1.74,1.57-2.41c-0.08-0.19-0.14-0.39-0.19-0.59c-0.06-0.19-0.11-0.39-0.15-0.59
					c-0.11-0.31-0.21-0.6-0.31-0.89c-0.11-0.28-0.22-0.57-0.35-0.89l2.3-0.8c0.05,0.29,0.1,0.57,0.15,0.85
					c0.05,0.25,0.1,0.51,0.15,0.76c0.05,0.15,0.09,0.29,0.12,0.42c0.05,0.12,0.09,0.25,0.12,0.42c0.54-0.28,1.05-0.48,1.54-0.59
					c0.51-0.14,1.02-0.23,1.54-0.3c0.02-0.08,0.04-0.17,0.04-0.25c0.02-0.11,0.04-0.21,0.04-0.3c0.05-0.28,0.09-0.57,0.12-0.89
					c0.02-0.34,0.02-0.6,0-0.8l2.46,0.25c-0.03,0.15-0.07,0.34-0.12,0.59c-0.06,0.23-0.11,0.45-0.15,0.68
					C86.04-56.97,86-56.79,85.98-56.66z"/>
			</g>
		</g>
	</g>
	<g>
		<g transform="translate(186.9976, 231.736146)">
			<g>
				<path d="M91.77-46.92c0.12,0,0.24,0,0.35,0c0.1-0.02,0.2-0.04,0.31-0.04c-0.03-0.44-0.14-0.8-0.35-1.06
					c-0.21-0.28-0.46-0.42-0.77-0.42c-0.23,0-0.42,0.07-0.58,0.21c-0.13,0.15-0.19,0.29-0.19,0.42c0,0.25,0.12,0.47,0.35,0.63
					S91.4-46.92,91.77-46.92z M95.07-58.48l1.11,1.69c-0.18,0.15-0.37,0.29-0.58,0.42c-0.18,0.12-0.36,0.24-0.54,0.38
					c-0.29,0.2-0.6,0.45-0.96,0.76c-0.34,0.29-0.68,0.58-1.04,0.89c-0.36,0.32-0.67,0.58-0.92,0.8c0.2-0.05,0.38-0.08,0.54-0.08
					s0.31,0,0.46,0c0.84,0,1.59,0.19,2.26,0.55c0.69,0.34,1.23,0.84,1.61,1.48c0.4,0.62,0.61,1.34,0.61,2.16
					c0,0.83-0.19,1.6-0.58,2.33c-0.36,0.71-0.95,1.27-1.77,1.69c-0.8,0.44-1.82,0.68-3.07,0.68c-0.69,0-1.33-0.12-1.92-0.34
					c-0.57-0.23-1.02-0.55-1.34-0.97c-0.34-0.42-0.5-0.93-0.5-1.52c0-0.48,0.12-0.91,0.35-1.31c0.23-0.42,0.56-0.76,1-1.02
					c0.43-0.25,0.92-0.38,1.46-0.38c0.89,0,1.61,0.25,2.15,0.76c0.56,0.49,0.9,1.12,1.04,1.9c0.59-0.44,0.88-1.07,0.88-1.86
					c0-0.48-0.14-0.87-0.42-1.18c-0.26-0.34-0.6-0.59-1.04-0.76c-0.44-0.19-0.92-0.3-1.46-0.3c-0.69,0-1.34,0.15-1.96,0.42
					c-0.59,0.29-1.14,0.68-1.65,1.18c-0.49,0.51-0.98,1.08-1.46,1.69l-1.61-1.86c0.25-0.19,0.54-0.43,0.84-0.72
					c0.31-0.28,0.62-0.56,0.96-0.85c0.33-0.31,0.63-0.6,0.92-0.89c0.31-0.28,0.58-0.52,0.81-0.72c0.25-0.25,0.56-0.53,0.92-0.85
					c0.36-0.31,0.7-0.61,1.04-0.93c0.36-0.31,0.66-0.57,0.92-0.8c-0.26,0-0.58,0.02-0.96,0.04c-0.36,0-0.73,0.02-1.11,0.04
					c-0.38,0-0.71,0.02-0.96,0.04c-0.23,0.03-0.46,0.06-0.69,0.08c-0.23,0.03-0.44,0.06-0.61,0.08l-0.08-2.54
					c0.23,0.03,0.47,0.06,0.73,0.08c0.25,0,0.51,0,0.77,0c0.15,0,0.36,0,0.65,0c0.31,0,0.63,0,1,0c0.38,0,0.77,0,1.15,0
					c0.38-0.02,0.73-0.04,1.04-0.04c0.31-0.02,0.55-0.05,0.73-0.08C94.46-58.36,94.89-58.41,95.07-58.48z"/>
			</g>
		</g>
	</g>
	<g>
		<g transform="translate(192.997644, 231.736146)">
			<g>
				<path d="M98.86-46.25l-1.92,1.78c-0.29-0.4-0.6-0.8-0.96-1.23c-0.36-0.42-0.73-0.83-1.11-1.23c-0.36-0.39-0.71-0.76-1.04-1.1
					l1.84-1.78c0.36,0.32,0.74,0.7,1.15,1.14c0.4,0.42,0.79,0.87,1.15,1.31C98.33-46.92,98.63-46.55,98.86-46.25z"/>
			</g>
		</g>
	</g>
	<g>
		<g transform="translate(198.997688, 231.736146)">
			<g>
				<path d="M106.68-58.77c0.36,0.2,0.74,0.45,1.15,0.76c0.43,0.29,0.85,0.57,1.27,0.85c0.4,0.25,0.75,0.5,1.04,0.72l-1.34,2.2
					c-0.29-0.22-0.63-0.48-1.04-0.76c-0.41-0.28-0.83-0.56-1.23-0.85c-0.41-0.28-0.8-0.53-1.15-0.76L106.68-58.77z M103.64-47.3
					c0.84-0.14,1.69-0.34,2.53-0.59c0.86-0.28,1.71-0.68,2.53-1.18c0.84-0.51,1.63-1.08,2.38-1.74c0.74-0.68,1.4-1.38,2-2.12
					c0.59-0.76,1.07-1.53,1.46-2.33l1.38,2.71c-0.72,1.16-1.59,2.23-2.61,3.22c-1.03,0.99-2.15,1.88-3.38,2.67
					c-0.52,0.29-1.07,0.57-1.69,0.85c-0.59,0.28-1.18,0.52-1.77,0.72c-0.57,0.19-1.07,0.34-1.5,0.42L103.64-47.3z M104.37-55.05
					c0.36,0.2,0.75,0.45,1.19,0.76c0.43,0.29,0.84,0.57,1.23,0.85c0.4,0.29,0.75,0.53,1.04,0.72l-1.31,2.24
					c-0.31-0.22-0.67-0.48-1.07-0.76c-0.38-0.31-0.8-0.6-1.23-0.89c-0.41-0.28-0.8-0.52-1.15-0.72L104.37-55.05z"/>
			</g>
		</g>
	</g>
	<g>
		<g transform="translate(204.997731, 231.736146)">
			<g>
				<path d="M119.33-47.52h2.99c0.23,0,0.44-0.01,0.65-0.04c0.2-0.02,0.38-0.05,0.54-0.08v2.58c-0.15-0.06-0.36-0.08-0.61-0.08
					c-0.26,0-0.45,0-0.58,0h-8.14c-0.18,0-0.4,0-0.65,0c-0.23,0-0.45,0.02-0.65,0.08v-2.58c0.2,0.03,0.42,0.06,0.65,0.08
					c0.23,0.03,0.44,0.04,0.65,0.04h2.76v-4.82h-2.03c-0.21,0-0.42,0.02-0.65,0.04c-0.23,0-0.44,0-0.61,0v-2.45
					c0.17,0.06,0.38,0.11,0.61,0.13c0.23,0,0.44,0,0.65,0h6.72c0.17,0,0.36,0,0.58,0c0.23-0.02,0.43-0.06,0.61-0.13v2.45
					c-0.18,0-0.38,0-0.61,0c-0.23-0.02-0.42-0.04-0.58-0.04h-2.3V-47.52z"/>
			</g>
		</g>
	</g>
	<g>
		<g transform="translate(210.997775, 231.736146)">
			<g>
				<path d="M125.15-54.5h2.61c0,0.76-0.02,1.51-0.04,2.24c-0.03,0.74-0.11,1.46-0.23,2.16c-0.13,0.71-0.34,1.39-0.61,2.03
					c-0.29,0.62-0.68,1.23-1.19,1.82c-0.52,0.59-1.19,1.14-2.03,1.65l-2.07-1.86c0.25-0.11,0.52-0.23,0.81-0.38
					c0.28-0.17,0.58-0.38,0.88-0.63c0.54-0.44,0.94-0.91,1.23-1.4c0.31-0.51,0.51-1.07,0.61-1.69c0.1-0.65,0.15-1.41,0.15-2.29
					c0-0.28-0.02-0.55-0.04-0.8C125.23-53.91,125.2-54.18,125.15-54.5z M132.41-58.14l1.42,1.44c-0.11,0.12-0.22,0.28-0.35,0.47
					c-0.13,0.2-0.25,0.37-0.35,0.51c-0.23,0.45-0.54,0.96-0.92,1.52c-0.38,0.57-0.8,1.12-1.23,1.65c-0.44,0.51-0.87,0.93-1.31,1.27
					l-1.84-1.61c0.36-0.25,0.7-0.55,1.04-0.89c0.33-0.34,0.61-0.66,0.84-0.97c0.25-0.31,0.43-0.57,0.54-0.8h-7.29
					c-0.31,0-0.6,0.02-0.88,0.04c-0.26,0-0.58,0.03-0.96,0.08v-2.75c0.31,0.06,0.61,0.12,0.92,0.17c0.31,0.03,0.61,0.04,0.92,0.04
					h7.68c0.15,0,0.35,0,0.58,0c0.25-0.02,0.48-0.05,0.69-0.08C132.14-58.07,132.3-58.11,132.41-58.14z"/>
			</g>
		</g>
	</g>
	<g>
		<g transform="translate(216.997819, 231.736146)">
			<g>
				<path d="M134.43-51.03c0,0.32,0.09,0.57,0.27,0.76c0.2,0.17,0.42,0.25,0.65,0.25c0.15,0,0.29-0.04,0.42-0.13
					c0.15-0.11,0.27-0.28,0.35-0.51c0.08-0.25,0.09-0.57,0.04-0.97c-0.18-0.28-0.45-0.42-0.81-0.42c-0.23,0-0.45,0.08-0.65,0.25
					C134.51-51.64,134.43-51.39,134.43-51.03z M142.07-57.12l-0.04,2.33c-0.87-0.05-2.23-0.1-4.07-0.13c0,0.4,0,0.79,0,1.18
					c0,0.37,0,0.72,0,1.06c0.38,0.66,0.58,1.43,0.58,2.33c0,0.54-0.1,1.09-0.27,1.65c-0.15,0.57-0.42,1.13-0.81,1.69
					c-0.36,0.57-0.86,1.08-1.5,1.52c-0.61,0.44-1.37,0.81-2.26,1.1l-1.88-2.07c0.63-0.14,1.24-0.32,1.8-0.55
					c0.59-0.22,1.09-0.52,1.54-0.89c-0.06,0.03-0.11,0.04-0.15,0.04c-0.03,0-0.07,0-0.12,0c-0.26,0-0.54-0.05-0.84-0.17
					c-0.31-0.14-0.59-0.34-0.84-0.59c-0.26-0.28-0.48-0.6-0.65-0.97c-0.18-0.39-0.27-0.85-0.27-1.35c0-0.65,0.13-1.21,0.42-1.69
					c0.31-0.48,0.69-0.85,1.15-1.1c0.48-0.25,1-0.38,1.54-0.38c0.08,0,0.13,0,0.19,0c0.08,0,0.13,0.02,0.19,0.04v-0.8
					c-1.1,0-2.18,0.03-3.22,0.08c-1.06,0.03-2.02,0.07-2.92,0.13l-0.08-2.33c0.59,0,1.24,0,1.96,0c0.71-0.02,1.43-0.04,2.15-0.04
					c0.74-0.02,1.43-0.04,2.07-0.04v-0.17c-0.03-0.34-0.07-0.65-0.12-0.93c-0.03-0.31-0.06-0.53-0.08-0.68h2.57
					c-0.03,0.08-0.06,0.24-0.08,0.47c0,0.2-0.02,0.41-0.04,0.63c0,0.23,0,0.38,0,0.47v0.17c0.43,0,0.92,0,1.46,0
					c0.54,0,1.04,0,1.5,0C141.43-57.12,141.81-57.12,142.07-57.12z"/>
			</g>
		</g>
	</g>
	<g>
		<g transform="translate(222.997863, 231.736146)">
			<g>
				<path d="M144.2-46.92c0.12,0,0.24,0,0.35,0c0.1-0.02,0.2-0.04,0.31-0.04c-0.03-0.44-0.14-0.8-0.35-1.06
					c-0.21-0.28-0.46-0.42-0.77-0.42c-0.23,0-0.42,0.07-0.58,0.21c-0.13,0.15-0.19,0.29-0.19,0.42c0,0.25,0.12,0.47,0.35,0.63
					S143.84-46.92,144.2-46.92z M147.5-58.48l1.11,1.69c-0.18,0.15-0.37,0.29-0.58,0.42c-0.18,0.12-0.36,0.24-0.54,0.38
					c-0.29,0.2-0.6,0.45-0.96,0.76c-0.34,0.29-0.68,0.58-1.04,0.89c-0.36,0.32-0.67,0.58-0.92,0.8c0.2-0.05,0.38-0.08,0.54-0.08
					s0.31,0,0.46,0c0.84,0,1.59,0.19,2.26,0.55c0.69,0.34,1.23,0.84,1.61,1.48c0.4,0.62,0.61,1.34,0.61,2.16
					c0,0.83-0.19,1.6-0.58,2.33c-0.36,0.71-0.95,1.27-1.77,1.69c-0.8,0.44-1.82,0.68-3.07,0.68c-0.69,0-1.33-0.12-1.92-0.34
					c-0.57-0.23-1.02-0.55-1.34-0.97c-0.34-0.42-0.5-0.93-0.5-1.52c0-0.48,0.12-0.91,0.35-1.31c0.23-0.42,0.56-0.76,1-1.02
					c0.43-0.25,0.92-0.38,1.46-0.38c0.89,0,1.61,0.25,2.15,0.76c0.56,0.49,0.9,1.12,1.04,1.9c0.59-0.44,0.88-1.07,0.88-1.86
					c0-0.48-0.14-0.87-0.42-1.18c-0.26-0.34-0.6-0.59-1.04-0.76c-0.44-0.19-0.92-0.3-1.46-0.3c-0.69,0-1.34,0.15-1.96,0.42
					c-0.59,0.29-1.14,0.68-1.65,1.18c-0.49,0.51-0.98,1.08-1.46,1.69l-1.61-1.86c0.25-0.19,0.54-0.43,0.84-0.72
					c0.31-0.28,0.62-0.56,0.96-0.85c0.33-0.31,0.63-0.6,0.92-0.89c0.31-0.28,0.58-0.52,0.81-0.72c0.25-0.25,0.56-0.53,0.92-0.85
					c0.36-0.31,0.7-0.61,1.04-0.93c0.36-0.31,0.66-0.57,0.92-0.8c-0.26,0-0.58,0.02-0.96,0.04c-0.36,0-0.73,0.02-1.11,0.04
					c-0.38,0-0.71,0.02-0.96,0.04c-0.23,0.03-0.46,0.06-0.69,0.08c-0.23,0.03-0.44,0.06-0.61,0.08l-0.08-2.54
					c0.23,0.03,0.47,0.06,0.73,0.08c0.25,0,0.51,0,0.77,0c0.15,0,0.36,0,0.65,0c0.31,0,0.63,0,1,0c0.38,0,0.77,0,1.15,0
					c0.38-0.02,0.73-0.04,1.04-0.04c0.31-0.02,0.55-0.05,0.73-0.08C146.9-58.36,147.32-58.41,147.5-58.48z"/>
			</g>
		</g>
	</g>
	<g>
		<g transform="translate(228.997907, 231.736146)">
			<g>
				<path d="M151.29-46.25l-1.92,1.78c-0.29-0.4-0.6-0.8-0.96-1.23c-0.36-0.42-0.73-0.83-1.11-1.23c-0.36-0.39-0.71-0.76-1.04-1.1
					l1.84-1.78c0.36,0.32,0.74,0.7,1.15,1.14c0.4,0.42,0.79,0.87,1.15,1.31C150.76-46.92,151.06-46.55,151.29-46.25z"/>
			</g>
		</g>
	</g>
	<g>
		<g transform="translate(234.997951, 231.736146)">
			<g>
				<path d="M159.57-58.01l-1.23,1.95c-0.18-0.19-0.42-0.39-0.73-0.59c-0.29-0.22-0.59-0.43-0.92-0.63
					c-0.34-0.19-0.65-0.36-0.96-0.51l1.15-1.74c0.31,0.12,0.62,0.25,0.96,0.42c0.33,0.17,0.65,0.36,0.96,0.55
					C159.13-58.36,159.39-58.18,159.57-58.01z M158.73-53.65l-1.23,1.99c-0.18-0.19-0.42-0.39-0.73-0.59
					c-0.31-0.19-0.63-0.39-0.96-0.59c-0.34-0.19-0.67-0.36-1-0.51l1.15-1.78c0.31,0.08,0.62,0.21,0.96,0.38
					c0.36,0.17,0.69,0.36,1,0.55C158.25-54,158.52-53.82,158.73-53.65z M157.88-51.03l1.65,1.48c-0.36,0.88-0.75,1.76-1.15,2.62
					c-0.41,0.88-0.83,1.71-1.27,2.54l-1.84-1.44c0.23-0.42,0.5-0.91,0.81-1.48c0.31-0.56,0.61-1.15,0.92-1.78
					C157.33-49.73,157.62-50.37,157.88-51.03z M164.25-54.92v1.1c0,0.23,0,0.47,0,0.72c0,0.23-0.02,0.47-0.04,0.72h1.5v-2.54H164.25
					z M168.86-50.18h-3.3c0.33,0.88,0.79,1.67,1.38,2.37c0.59,0.68,1.29,1.22,2.11,1.61c-0.18,0.15-0.37,0.34-0.58,0.59
					c-0.18,0.25-0.36,0.51-0.54,0.76c-0.15,0.28-0.3,0.52-0.42,0.72c-0.87-0.51-1.61-1.17-2.23-1.99c-0.61-0.85-1.13-1.8-1.54-2.88
					c-0.26,0.93-0.67,1.82-1.23,2.67c-0.54,0.85-1.31,1.59-2.3,2.24c-0.13-0.17-0.31-0.37-0.54-0.59c-0.21-0.2-0.42-0.4-0.65-0.59
					c-0.23-0.2-0.44-0.37-0.61-0.51c1-0.59,1.74-1.25,2.23-1.99c0.51-0.76,0.88-1.57,1.11-2.41h-2.53v-2.2h2.84
					c0.05-0.48,0.08-0.97,0.08-1.48v-1.06h-2.23v-2.24h2.23v-2.41h2.11v2.41h3.57v4.78h1.04V-50.18z"/>
			</g>
		</g>
	</g>
	<g>
		<g transform="translate(240.997995, 231.736146)">
			<g>
				<path d="M166.85-48.28c0.2,0,0.4-0.08,0.61-0.25c0.23-0.17,0.46-0.39,0.69-0.68c-0.41-0.76-0.81-1.66-1.19-2.71
					c-0.26,0.4-0.46,0.83-0.61,1.27c-0.13,0.45-0.19,0.89-0.19,1.31c0,0.32,0.06,0.57,0.19,0.76
					C166.48-48.37,166.64-48.28,166.85-48.28z M170.57-54.24c-0.36,0.06-0.71,0.16-1.04,0.3c-0.31,0.12-0.59,0.25-0.84,0.42
					c0.12,0.42,0.25,0.83,0.38,1.18c0.15,0.34,0.29,0.66,0.42,0.93c0.23-0.44,0.43-0.91,0.61-1.4
					C170.29-53.28,170.44-53.76,170.57-54.24z M173.38-56.66l-0.08,0.38c0.74,0.2,1.39,0.55,1.96,1.06c0.56,0.51,1,1.14,1.31,1.9
					c0.33,0.76,0.5,1.63,0.5,2.58c0,1.16-0.23,2.16-0.69,3c-0.46,0.85-1.09,1.52-1.88,2.03c-0.8,0.48-1.71,0.8-2.73,0.97l-1.34-2.24
					c0.82-0.08,1.51-0.25,2.07-0.51c0.56-0.25,1-0.55,1.31-0.89c0.33-0.36,0.58-0.76,0.73-1.18c0.15-0.44,0.23-0.89,0.23-1.31
					c0-0.81-0.18-1.5-0.54-2.07c-0.36-0.56-0.84-0.95-1.46-1.18c-0.26,0.88-0.54,1.74-0.84,2.58c-0.29,0.83-0.63,1.59-1.04,2.29
					c0.12,0.15,0.24,0.3,0.35,0.47c0.12,0.15,0.25,0.29,0.38,0.42l-1.77,1.57l-0.38-0.51c-0.52,0.59-0.99,1.01-1.42,1.23
					c-0.44,0.23-0.92,0.34-1.46,0.34c-0.41,0-0.81-0.13-1.19-0.38c-0.38-0.28-0.71-0.66-0.96-1.14c-0.23-0.51-0.35-1.12-0.35-1.86
					c0-0.93,0.17-1.84,0.54-2.75c0.38-0.93,0.9-1.74,1.57-2.41c-0.08-0.19-0.14-0.39-0.19-0.59c-0.06-0.19-0.11-0.39-0.15-0.59
					c-0.11-0.31-0.21-0.6-0.31-0.89c-0.11-0.28-0.22-0.57-0.35-0.89l2.3-0.8c0.05,0.29,0.1,0.57,0.15,0.85
					c0.05,0.25,0.1,0.51,0.15,0.76c0.05,0.15,0.09,0.29,0.12,0.42c0.05,0.12,0.09,0.25,0.12,0.42c0.54-0.28,1.05-0.48,1.54-0.59
					c0.51-0.14,1.02-0.23,1.54-0.3c0.02-0.08,0.04-0.17,0.04-0.25c0.02-0.11,0.04-0.21,0.04-0.3c0.05-0.28,0.09-0.57,0.12-0.89
					c0.02-0.34,0.02-0.6,0-0.8l2.46,0.25c-0.03,0.15-0.07,0.34-0.12,0.59c-0.06,0.23-0.11,0.45-0.15,0.68
					C173.43-56.97,173.4-56.79,173.38-56.66z"/>
			</g>
		</g>
	</g>
	<g>
		<g transform="translate(246.998038, 231.736146)">
			<g>
				<path d="M179.16-46.92c0.12,0,0.24,0,0.35,0c0.1-0.02,0.2-0.04,0.31-0.04c-0.03-0.44-0.14-0.8-0.35-1.06
					c-0.21-0.28-0.46-0.42-0.77-0.42c-0.23,0-0.42,0.07-0.58,0.21c-0.13,0.15-0.19,0.29-0.19,0.42c0,0.25,0.12,0.47,0.35,0.63
					S178.8-46.92,179.16-46.92z M182.46-58.48l1.11,1.69c-0.18,0.15-0.37,0.29-0.58,0.42c-0.18,0.12-0.36,0.24-0.54,0.38
					c-0.29,0.2-0.6,0.45-0.96,0.76c-0.34,0.29-0.68,0.58-1.04,0.89c-0.36,0.32-0.67,0.58-0.92,0.8c0.2-0.05,0.38-0.08,0.54-0.08
					s0.31,0,0.46,0c0.84,0,1.59,0.19,2.26,0.55c0.69,0.34,1.23,0.84,1.61,1.48c0.4,0.62,0.61,1.34,0.61,2.16
					c0,0.83-0.19,1.6-0.58,2.33c-0.36,0.71-0.95,1.27-1.77,1.69c-0.8,0.44-1.82,0.68-3.07,0.68c-0.69,0-1.33-0.12-1.92-0.34
					c-0.57-0.23-1.02-0.55-1.34-0.97c-0.34-0.42-0.5-0.93-0.5-1.52c0-0.48,0.12-0.91,0.35-1.31c0.23-0.42,0.56-0.76,1-1.02
					c0.43-0.25,0.92-0.38,1.46-0.38c0.89,0,1.61,0.25,2.15,0.76c0.56,0.49,0.9,1.12,1.04,1.9c0.59-0.44,0.88-1.07,0.88-1.86
					c0-0.48-0.14-0.87-0.42-1.18c-0.26-0.34-0.6-0.59-1.04-0.76c-0.44-0.19-0.92-0.3-1.46-0.3c-0.69,0-1.34,0.15-1.96,0.42
					c-0.59,0.29-1.14,0.68-1.65,1.18c-0.49,0.51-0.98,1.08-1.46,1.69l-1.61-1.86c0.25-0.19,0.54-0.43,0.84-0.72
					c0.31-0.28,0.62-0.56,0.96-0.85c0.33-0.31,0.63-0.6,0.92-0.89c0.31-0.28,0.58-0.52,0.81-0.72c0.25-0.25,0.56-0.53,0.92-0.85
					c0.36-0.31,0.7-0.61,1.04-0.93c0.36-0.31,0.66-0.57,0.92-0.8c-0.26,0-0.58,0.02-0.96,0.04c-0.36,0-0.73,0.02-1.11,0.04
					c-0.38,0-0.71,0.02-0.96,0.04c-0.23,0.03-0.46,0.06-0.69,0.08c-0.23,0.03-0.44,0.06-0.61,0.08l-0.08-2.54
					c0.23,0.03,0.47,0.06,0.73,0.08c0.25,0,0.51,0,0.77,0c0.15,0,0.36,0,0.65,0c0.31,0,0.63,0,1,0c0.38,0,0.77,0,1.15,0
					c0.38-0.02,0.73-0.04,1.04-0.04c0.31-0.02,0.55-0.05,0.73-0.08C181.86-58.36,182.28-58.41,182.46-58.48z"/>
			</g>
		</g>
	</g>
	<g>
		<g transform="translate(193.138131, 239.736143)">
			<g>
				<path d="M99.68-37.36c0,0.32,0.09,0.57,0.27,0.76c0.2,0.17,0.42,0.25,0.65,0.25c0.15,0,0.29-0.04,0.42-0.13
					c0.15-0.11,0.27-0.28,0.35-0.51c0.08-0.25,0.09-0.57,0.04-0.97c-0.18-0.28-0.45-0.42-0.81-0.42c-0.23,0-0.45,0.08-0.65,0.25
					C99.76-37.97,99.68-37.72,99.68-37.36z M107.31-43.45l-0.04,2.33c-0.87-0.05-2.23-0.1-4.07-0.13c0,0.4,0,0.79,0,1.18
					c0,0.37,0,0.72,0,1.06c0.38,0.66,0.58,1.43,0.58,2.33c0,0.54-0.1,1.09-0.27,1.65c-0.15,0.57-0.42,1.13-0.81,1.69
					c-0.36,0.57-0.86,1.08-1.5,1.52c-0.61,0.44-1.37,0.81-2.26,1.1l-1.88-2.07c0.63-0.14,1.24-0.32,1.8-0.55
					c0.59-0.22,1.09-0.52,1.54-0.89c-0.06,0.03-0.11,0.04-0.15,0.04c-0.03,0-0.07,0-0.12,0c-0.26,0-0.54-0.05-0.84-0.17
					c-0.31-0.14-0.59-0.34-0.84-0.59c-0.26-0.28-0.48-0.6-0.65-0.97c-0.18-0.39-0.27-0.85-0.27-1.35c0-0.65,0.13-1.21,0.42-1.69
					c0.31-0.48,0.69-0.85,1.15-1.1c0.48-0.25,1-0.38,1.54-0.38c0.08,0,0.13,0,0.19,0c0.08,0,0.13,0.02,0.19,0.04v-0.8
					c-1.1,0-2.18,0.03-3.22,0.08c-1.06,0.03-2.02,0.07-2.92,0.13l-0.08-2.33c0.59,0,1.24,0,1.96,0c0.71-0.02,1.43-0.04,2.15-0.04
					c0.74-0.02,1.43-0.04,2.07-0.04v-0.17c-0.03-0.34-0.07-0.65-0.12-0.93c-0.03-0.31-0.06-0.53-0.08-0.68h2.57
					c-0.03,0.08-0.06,0.24-0.08,0.47c0,0.2-0.02,0.41-0.04,0.63c0,0.23,0,0.38,0,0.47v0.17c0.43,0,0.92,0,1.46,0s1.04,0,1.5,0
					C106.68-43.45,107.06-43.45,107.31-43.45z"/>
			</g>
		</g>
	</g>
	<g>
		<g transform="translate(199.138175, 239.736143)">
			<g>
				<path d="M112.87-43.37c0.15,0.25,0.31,0.54,0.46,0.85c0.17,0.32,0.35,0.62,0.5,0.93c0.17,0.32,0.32,0.59,0.42,0.85l-1.57,0.76
					c-0.23-0.56-0.45-1.03-0.65-1.4c-0.18-0.39-0.41-0.81-0.69-1.27L112.87-43.37z M114.9-44.3c0.15,0.25,0.32,0.54,0.5,0.85
					c0.17,0.29,0.35,0.58,0.5,0.89c0.17,0.32,0.32,0.58,0.42,0.8l-1.54,0.85c-0.18-0.39-0.35-0.72-0.5-0.97
					c-0.13-0.28-0.27-0.55-0.42-0.8c-0.13-0.28-0.3-0.55-0.5-0.8L114.9-44.3z M102.66-36.85c0.23-0.19,0.44-0.39,0.65-0.59
					c0.2-0.22,0.42-0.48,0.65-0.76c0.2-0.22,0.44-0.53,0.73-0.93c0.31-0.39,0.62-0.81,0.96-1.27c0.33-0.44,0.65-0.86,0.96-1.23
					c0.54-0.7,1.07-1.07,1.61-1.1c0.54-0.05,1.08,0.21,1.65,0.8c0.36,0.37,0.71,0.79,1.07,1.27c0.38,0.45,0.74,0.91,1.07,1.35
					c0.33,0.45,0.63,0.85,0.92,1.18c0.48,0.57,1.01,1.17,1.57,1.82c0.59,0.66,1.24,1.33,1.96,2.03l-1.88,2.33
					c-0.34-0.34-0.68-0.72-1.04-1.14c-0.36-0.44-0.72-0.9-1.07-1.35c-0.34-0.48-0.64-0.91-0.92-1.31c-0.31-0.39-0.63-0.8-0.96-1.23
					c-0.31-0.44-0.61-0.87-0.92-1.27c-0.29-0.42-0.54-0.77-0.77-1.06c-0.23-0.28-0.44-0.4-0.61-0.38c-0.15,0.03-0.33,0.19-0.5,0.47
					c-0.18,0.23-0.4,0.53-0.65,0.89c-0.23,0.37-0.48,0.75-0.73,1.14c-0.26,0.4-0.49,0.74-0.69,1.02c-0.18,0.29-0.36,0.59-0.54,0.93
					c-0.15,0.32-0.3,0.59-0.42,0.85L102.66-36.85z"/>
			</g>
		</g>
	</g>
	<g>
		<g transform="translate(205.138219, 239.736143)">
			<g>
				<path d="M112.01-43.37c0.31-0.02,0.59-0.04,0.88-0.04c0.28-0.02,0.48-0.04,0.61-0.04c0.69-0.08,1.57-0.17,2.65-0.25
					c1.07-0.11,2.27-0.22,3.61-0.34c0.48-0.05,0.98-0.1,1.5-0.13c0.54-0.02,1.04-0.05,1.5-0.08c0.48-0.02,0.9-0.05,1.27-0.08v2.5
					c-0.26,0-0.56,0.02-0.88,0.04c-0.34,0-0.67,0.02-1,0.04c-0.34,0.03-0.64,0.07-0.92,0.13c-0.52,0.15-1,0.42-1.46,0.85
					c-0.44,0.42-0.8,0.93-1.07,1.52c-0.26,0.57-0.38,1.17-0.38,1.82c0,0.79,0.2,1.43,0.61,1.9c0.4,0.49,0.94,0.85,1.61,1.1
					c0.69,0.25,1.46,0.41,2.3,0.47l-0.84,2.71c-0.8-0.08-1.56-0.28-2.3-0.55c-0.72-0.25-1.36-0.61-1.92-1.1
					c-0.57-0.48-1.02-1.06-1.34-1.74c-0.31-0.68-0.46-1.44-0.46-2.29c0-0.73,0.09-1.4,0.27-1.99c0.2-0.61,0.44-1.15,0.73-1.61
					c0.31-0.48,0.59-0.85,0.84-1.1c-0.31,0.03-0.69,0.07-1.15,0.13c-0.46,0.06-0.95,0.13-1.46,0.21c-0.52,0.08-1.03,0.17-1.54,0.25
					c-0.52,0.08-0.99,0.19-1.42,0.3L112.01-43.37z"/>
			</g>
		</g>
	</g>
	<g>
		<g transform="translate(211.138263, 239.736143)">
			<g>
				<path d="M124.44-31.82c-0.72,0-1.45-0.15-2.19-0.42c-0.72-0.28-1.36-0.72-1.92-1.31l1.5-1.99c0.38,0.37,0.81,0.67,1.27,0.89
					c0.48,0.23,0.94,0.34,1.38,0.34c0.48,0,0.84-0.08,1.07-0.25c0.25-0.19,0.38-0.47,0.38-0.8c0-0.34-0.14-0.59-0.42-0.76
					c-0.29-0.17-0.67-0.36-1.15-0.59l-1.38-0.63c-0.38-0.17-0.76-0.39-1.11-0.68c-0.34-0.31-0.6-0.68-0.81-1.1
					c-0.21-0.44-0.31-0.97-0.31-1.57c0-0.68,0.16-1.28,0.5-1.82c0.33-0.56,0.79-0.99,1.38-1.31c0.61-0.34,1.31-0.51,2.07-0.51
					c0.63,0,1.28,0.15,1.92,0.42c0.63,0.25,1.19,0.66,1.65,1.18l-1.31,1.82c-0.36-0.31-0.72-0.53-1.07-0.68
					c-0.36-0.17-0.76-0.25-1.19-0.25c-0.38,0-0.71,0.08-0.96,0.25c-0.23,0.17-0.35,0.41-0.35,0.72c0,0.34,0.15,0.61,0.46,0.8
					c0.33,0.17,0.74,0.36,1.23,0.55l1.34,0.63c0.69,0.29,1.23,0.7,1.61,1.23c0.38,0.54,0.58,1.23,0.58,2.07
					c0,0.68-0.17,1.3-0.5,1.86c-0.34,0.57-0.83,1.04-1.46,1.4C126.05-31.99,125.3-31.82,124.44-31.82z"/>
			</g>
		</g>
	</g>
	<g>
		<g transform="translate(214.972292, 239.736143)">
			<g>
				<path d="M126.41-28.69v-12.57h2.11l0.19,0.89h0.04c0.36-0.34,0.73-0.6,1.11-0.8c0.4-0.22,0.83-0.34,1.27-0.34
					c0.66,0,1.24,0.2,1.73,0.59c0.48,0.4,0.85,0.95,1.11,1.65c0.28,0.68,0.42,1.5,0.42,2.45c0,1.08-0.17,1.99-0.5,2.75
					c-0.34,0.74-0.77,1.3-1.31,1.69c-0.54,0.36-1.11,0.55-1.73,0.55c-0.72,0-1.36-0.31-1.92-0.93l0.08,1.44v2.62H126.41z
					 M130.25-34.19c0.4,0,0.75-0.19,1.04-0.59c0.28-0.39,0.42-1.06,0.42-1.99c0-1.58-0.45-2.37-1.34-2.37
					c-0.46,0-0.91,0.25-1.34,0.76v3.68c0.2,0.2,0.4,0.34,0.61,0.42C129.87-34.21,130.07-34.19,130.25-34.19z"/>
			</g>
		</g>
	</g>
	<g>
		<g transform="translate(218.920319, 239.736143)">
			<g>
				<path d="M135.77-31.82c-0.69,0-1.36-0.19-2-0.55c-0.61-0.39-1.13-0.94-1.54-1.65c-0.38-0.73-0.58-1.61-0.58-2.62
					c0-1.04,0.19-1.91,0.58-2.62c0.4-0.73,0.92-1.28,1.54-1.65c0.63-0.39,1.31-0.59,2-0.59c0.71,0,1.38,0.2,2,0.59
					c0.63,0.37,1.15,0.92,1.54,1.65c0.38,0.71,0.58,1.59,0.58,2.62c0,0.76-0.12,1.44-0.35,2.03c-0.21,0.59-0.5,1.1-0.88,1.52
					c-0.38,0.42-0.83,0.75-1.34,0.97C136.82-31.92,136.31-31.82,135.77-31.82z M135.77-34.15c0.51,0,0.86-0.22,1.07-0.68
					c0.23-0.44,0.35-1.06,0.35-1.82c0-0.76-0.12-1.36-0.35-1.82c-0.21-0.48-0.57-0.72-1.07-0.72c-0.49,0-0.84,0.24-1.07,0.72
					c-0.23,0.45-0.35,1.06-0.35,1.82c0,0.76,0.12,1.38,0.35,1.82C134.93-34.37,135.28-34.15,135.77-34.15z"/>
			</g>
		</g>
	</g>
	<g>
		<g transform="translate(222.742347, 239.736143)">
			<g>
				<path d="M141.03-31.82c-1.06,0-1.82-0.32-2.3-0.97c-0.46-0.68-0.69-1.57-0.69-2.67v-3.55h-1.11v-2.16l1.27-0.08l0.31-2.45h2.19
					v2.45h1.96v2.24h-1.96v3.51c0,0.51,0.1,0.88,0.31,1.1c0.2,0.23,0.44,0.34,0.73,0.34c0.15,0,0.29-0.01,0.42-0.04
					c0.15-0.05,0.27-0.1,0.35-0.13l0.42,2.07c-0.21,0.08-0.46,0.15-0.77,0.21C141.84-31.86,141.46-31.82,141.03-31.82z"/>
			</g>
		</g>
	</g>
	<g>
		<g transform="translate(225.412367, 239.736143)">
			<g>
				<path d="M141.62-32.03v-9.23h2.61v9.23H141.62z M142.92-42.57c-0.44,0-0.8-0.13-1.07-0.38c-0.29-0.28-0.42-0.65-0.42-1.1
					c0-0.44,0.13-0.8,0.42-1.06c0.28-0.28,0.63-0.42,1.07-0.42c0.43,0,0.79,0.15,1.07,0.42c0.28,0.25,0.42,0.61,0.42,1.06
					c0,0.45-0.14,0.83-0.42,1.1C143.71-42.69,143.35-42.57,142.92-42.57z"/>
			</g>
		</g>
	</g>
	<g>
		<g transform="translate(227.338377, 239.736143)">
			<g>
				<path d="M147.42-31.82c-0.69,0-1.31-0.19-1.84-0.55c-0.52-0.39-0.91-0.95-1.19-1.69c-0.26-0.73-0.38-1.59-0.38-2.58
					c0-1.02,0.16-1.87,0.5-2.58c0.33-0.73,0.75-1.29,1.27-1.69c0.54-0.39,1.09-0.59,1.69-0.59c0.46,0,0.84,0.08,1.15,0.25
					s0.59,0.41,0.84,0.72l-0.08-1.4v-3.09h2.61v12.99h-2.11l-0.19-0.89h-0.08c-0.29,0.32-0.61,0.58-1,0.8
					C148.22-31.92,147.82-31.82,147.42-31.82z M148.11-34.19c0.25,0,0.48-0.04,0.69-0.13c0.2-0.11,0.39-0.32,0.58-0.63v-3.64
					c-0.21-0.19-0.42-0.34-0.65-0.42c-0.21-0.08-0.42-0.13-0.65-0.13c-0.36,0-0.68,0.2-0.96,0.59c-0.29,0.37-0.42,0.99-0.42,1.86
					c0,0.88,0.12,1.51,0.35,1.9C147.28-34.38,147.65-34.19,148.11-34.19z"/>
			</g>
		</g>
	</g>
	<g>
		<g transform="translate(231.286404, 239.736143)">
			<g>
				<path d="M153.93-31.82c-0.8,0-1.52-0.19-2.15-0.55c-0.64-0.39-1.15-0.94-1.54-1.65c-0.38-0.73-0.58-1.61-0.58-2.62
					c0-0.76,0.12-1.44,0.35-2.03c0.23-0.59,0.52-1.1,0.88-1.52c0.38-0.42,0.81-0.74,1.27-0.97c0.48-0.22,0.98-0.34,1.5-0.34
					c0.82,0,1.48,0.2,2,0.59c0.54,0.4,0.93,0.93,1.19,1.61c0.28,0.68,0.42,1.44,0.42,2.29c0,0.25-0.02,0.5-0.04,0.72
					c-0.03,0.23-0.06,0.4-0.08,0.51h-4.95c0.12,0.62,0.36,1.08,0.73,1.35c0.38,0.29,0.84,0.42,1.38,0.42c0.59,0,1.17-0.19,1.77-0.59
					l0.88,1.74c-0.44,0.34-0.92,0.61-1.46,0.8C154.97-31.9,154.44-31.82,153.93-31.82z M152.17-37.7h2.88
					c0-0.44-0.11-0.83-0.31-1.14c-0.21-0.31-0.56-0.47-1.04-0.47c-0.36,0-0.68,0.15-0.96,0.42
					C152.46-38.63,152.27-38.23,152.17-37.7z"/>
			</g>
		</g>
	</g>
</g>
</svg>
