<svg xmlns="http://www.w3.org/2000/svg" xmlns:xlink="http://www.w3.org/1999/xlink" width="730" zoomAndPan="magnify" viewBox="0 0 547.5 579.000005" height="772" preserveAspectRatio="xMidYMid meet" version="1.0"><defs><g/><clipPath id="f6e6819022"><path d="M 0.222656 0 L 546.777344 0 L 546.777344 578 L 0.222656 578 Z M 0.222656 0 " clip-rule="nonzero"/></clipPath><clipPath id="61948db673"><path d="M 0.222656 31.289062 L 546.460938 31.289062 L 546.460938 577.53125 L 0.222656 577.53125 Z M 0.222656 31.289062 " clip-rule="nonzero"/></clipPath><clipPath id="c079578e5a"><path d="M 273.34375 31.289062 C 122.503906 31.289062 0.222656 153.570312 0.222656 304.410156 C 0.222656 455.25 122.503906 577.53125 273.34375 577.53125 C 424.183594 577.53125 546.460938 455.25 546.460938 304.410156 C 546.460938 153.570312 424.183594 31.289062 273.34375 31.289062 Z M 273.34375 31.289062 " clip-rule="nonzero"/></clipPath></defs><g clip-path="url(#f6e6819022)"><path fill="#ffffff" d="M 0.222656 0 L 546.777344 0 L 546.777344 578 L 0.222656 578 Z M 0.222656 0 " fill-opacity="1" fill-rule="nonzero"/></g><g clip-path="url(#61948db673)"><g clip-path="url(#c079578e5a)"><path fill="#ffffff" d="M 0.222656 31.289062 L 546.460938 31.289062 L 546.460938 577.53125 L 0.222656 577.53125 Z M 0.222656 31.289062 " fill-opacity="1" fill-rule="nonzero"/></g></g><g fill="#ffbcd9" fill-opacity="1"><g transform="translate(222.649813, 154.577734)"><g><path d="M 10.265625 -75.015625 L 66.28125 -75.015625 C 66.78125 -75.015625 67.285156 -74.972656 67.796875 -74.890625 L 68.5625 -74.890625 C 74.46875 -74.722656 79.320312 -73.367188 83.125 -70.828125 C 86.925781 -68.296875 89.671875 -65.40625 91.359375 -62.15625 C 93.054688 -58.90625 93.90625 -55.632812 93.90625 -52.34375 C 93.90625 -48.957031 93.078125 -45.640625 91.421875 -42.390625 C 89.773438 -39.140625 87.03125 -36.242188 83.1875 -33.703125 C 79.34375 -31.171875 74.46875 -29.820312 68.5625 -29.65625 L 32.5625 -29.65625 C 30.957031 -29.570312 29.628906 -29.191406 28.578125 -28.515625 C 27.523438 -27.835938 26.742188 -26.96875 26.234375 -25.90625 C 25.722656 -24.851562 25.46875 -24.03125 25.46875 -23.4375 L 25.46875 -20.78125 C 25.46875 -19.6875 25.742188 -18.84375 26.296875 -18.25 C 26.847656 -17.65625 27.925781 -17.398438 29.53125 -17.484375 L 91.375 -17.484375 L 91.375 -0.5 L 22.6875 -0.5 C 17.957031 -0.5 14.34375 -1.660156 11.84375 -3.984375 C 9.351562 -6.316406 8.066406 -9.632812 7.984375 -13.9375 L 7.984375 -23.4375 C 7.984375 -26.90625 8.804688 -30.304688 10.453125 -33.640625 C 12.097656 -36.984375 14.84375 -39.941406 18.6875 -42.515625 C 22.53125 -45.085938 27.410156 -46.460938 33.328125 -46.640625 L 69.3125 -46.640625 C 70.914062 -46.722656 72.242188 -47.078125 73.296875 -47.703125 C 74.359375 -48.335938 75.144531 -49.054688 75.65625 -49.859375 C 76.164062 -50.660156 76.421875 -51.488281 76.421875 -52.34375 C 76.421875 -53.1875 76.164062 -54.007812 75.65625 -54.8125 C 75.144531 -55.613281 74.359375 -56.328125 73.296875 -56.953125 C 72.242188 -57.585938 70.914062 -57.953125 69.3125 -58.046875 L 10.265625 -58.046875 Z M 10.265625 -75.015625 "/></g></g></g></svg>