<svg xmlns="http://www.w3.org/2000/svg" xmlns:xlink="http://www.w3.org/1999/xlink" width="730" zoomAndPan="magnify" viewBox="0 0 547.5 579.000005" height="772" preserveAspectRatio="xMidYMid meet" version="1.0"><defs><g/><clipPath id="7e8b52979f"><path d="M 0.222656 31.289062 L 546.460938 31.289062 L 546.460938 577.53125 L 0.222656 577.53125 Z M 0.222656 31.289062 " clip-rule="nonzero"/></clipPath><clipPath id="a5d120c230"><path d="M 273.34375 31.289062 C 122.503906 31.289062 0.222656 153.570312 0.222656 304.410156 C 0.222656 455.25 122.503906 577.53125 273.34375 577.53125 C 424.183594 577.53125 546.460938 455.25 546.460938 304.410156 C 546.460938 153.570312 424.183594 31.289062 273.34375 31.289062 Z M 273.34375 31.289062 " clip-rule="nonzero"/></clipPath></defs><g clip-path="url(#7e8b52979f)"><g clip-path="url(#a5d120c230)"><path fill="#ffffff" d="M 0.222656 31.289062 L 546.460938 31.289062 L 546.460938 577.53125 L 0.222656 577.53125 Z M 0.222656 31.289062 " fill-opacity="1" fill-rule="nonzero"/></g></g><g fill="#ffbcd9" fill-opacity="1"><g transform="translate(222.649813, 154.577734)"><g><path d="M 79.078125 -75.40625 L 79.078125 -35.984375 L 94.40625 -35.984375 L 94.40625 -19.015625 L 79.078125 -19.015625 L 79.078125 -0.125 L 61.96875 -0.125 L 61.96875 -19.015625 L 35.109375 -19.015625 C 29.191406 -19.347656 24.3125 -21.351562 20.46875 -25.03125 C 16.625 -28.707031 13.859375 -33.207031 12.171875 -38.53125 C 10.554688 -43.84375 9.707031 -49.5 9.625 -55.5 L 9.625 -75.40625 L 26.734375 -75.40625 L 26.734375 -57.03125 C 26.648438 -53.5625 26.882812 -50.367188 27.4375 -47.453125 C 27.988281 -44.546875 29.316406 -41.953125 31.421875 -39.671875 C 33.535156 -37.390625 36.195312 -36.160156 39.40625 -35.984375 L 61.96875 -35.984375 L 61.96875 -75.40625 Z M 79.078125 -75.40625 "/></g></g></g></svg>