<svg xmlns="http://www.w3.org/2000/svg" xmlns:xlink="http://www.w3.org/1999/xlink" width="730" zoomAndPan="magnify" viewBox="0 0 547.5 572.249966" height="763" preserveAspectRatio="xMidYMid meet" version="1.0"><defs><g/><clipPath id="ec1df72144"><path d="M 0.109375 24.976562 L 546.574219 24.976562 L 546.574219 571.441406 L 0.109375 571.441406 Z M 0.109375 24.976562 " clip-rule="nonzero"/></clipPath><clipPath id="f65a44e83d"><path d="M 273.339844 24.976562 C 122.4375 24.976562 0.109375 147.304688 0.109375 298.210938 C 0.109375 449.113281 122.4375 571.441406 273.339844 571.441406 C 424.246094 571.441406 546.574219 449.113281 546.574219 298.210938 C 546.574219 147.304688 424.246094 24.976562 273.339844 24.976562 Z M 273.339844 24.976562 " clip-rule="nonzero"/></clipPath></defs><g clip-path="url(#ec1df72144)"><g clip-path="url(#f65a44e83d)"><path fill="#ffffff" d="M 0.109375 24.976562 L 546.574219 24.976562 L 546.574219 571.441406 L 0.109375 571.441406 Z M 0.109375 24.976562 " fill-opacity="1" fill-rule="nonzero"/></g></g><g fill="#ffbcd9" fill-opacity="1"><g transform="translate(230.715749, 154.64198)"><g><path d="M 10.265625 -17.5 L 68.59375 -17.5 C 70.195312 -17.582031 71.523438 -17.960938 72.578125 -18.640625 C 73.640625 -19.316406 74.421875 -20.078125 74.921875 -20.921875 C 75.429688 -21.765625 75.6875 -22.648438 75.6875 -23.578125 C 75.6875 -24.515625 75.429688 -25.40625 74.921875 -26.25 C 74.421875 -27.09375 73.640625 -27.851562 72.578125 -28.53125 C 71.523438 -29.207031 70.195312 -29.585938 68.59375 -29.671875 L 10.515625 -29.671875 L 10.515625 -46.65625 L 67.828125 -46.65625 C 67.910156 -46.65625 67.992188 -46.65625 68.078125 -46.65625 C 69.691406 -46.738281 71.023438 -47.097656 72.078125 -47.734375 C 73.128906 -48.367188 73.910156 -49.109375 74.421875 -49.953125 C 74.929688 -50.796875 75.1875 -51.679688 75.1875 -52.609375 C 75.1875 -53.460938 74.929688 -54.3125 74.421875 -55.15625 C 73.910156 -56 73.128906 -56.738281 72.078125 -57.375 C 71.023438 -58.007812 69.691406 -58.367188 68.078125 -58.453125 L 10.015625 -58.453125 L 10.015625 -75.0625 L 67.328125 -75.0625 C 73.242188 -74.976562 78.125 -73.6875 81.96875 -71.1875 C 85.8125 -68.695312 88.554688 -65.800781 90.203125 -62.5 C 91.859375 -59.207031 92.6875 -55.910156 92.6875 -52.609375 C 92.6875 -49.316406 91.835938 -46.066406 90.140625 -42.859375 C 89.378906 -41.335938 88.410156 -39.941406 87.234375 -38.671875 C 88.671875 -37.148438 89.851562 -35.546875 90.78125 -33.859375 C 92.382812 -30.472656 93.1875 -27.046875 93.1875 -23.578125 C 93.1875 -20.285156 92.335938 -16.96875 90.640625 -13.625 C 88.953125 -10.289062 86.207031 -7.332031 82.40625 -4.75 C 78.601562 -2.175781 73.742188 -0.804688 67.828125 -0.640625 L 67.0625 -0.640625 C 66.5625 -0.546875 66.054688 -0.5 65.546875 -0.5 L 10.265625 -0.5 Z M 10.265625 -17.5 "/></g></g></g></svg>