<svg xmlns="http://www.w3.org/2000/svg" xmlns:xlink="http://www.w3.org/1999/xlink" width="731" zoomAndPan="magnify" viewBox="0 0 548.25 580.499982" height="774" preserveAspectRatio="xMidYMid meet" version="1.0"><defs><g/><clipPath id="60d5179697"><path d="M 0 31.679688 L 547.449219 31.679688 L 547.449219 579.125 L 0 579.125 Z M 0 31.679688 " clip-rule="nonzero"/></clipPath><clipPath id="f567a493d3"><path d="M 273.722656 31.679688 C 122.550781 31.679688 0 154.230469 0 305.402344 C 0 456.574219 122.550781 579.125 273.722656 579.125 C 424.898438 579.125 547.449219 456.574219 547.449219 305.402344 C 547.449219 154.230469 424.898438 31.679688 273.722656 31.679688 Z M 273.722656 31.679688 " clip-rule="nonzero"/></clipPath></defs><g clip-path="url(#60d5179697)"><g clip-path="url(#f567a493d3)"><path fill="#ffffff" d="M 0 31.679688 L 547.449219 31.679688 L 547.449219 579.125 L 0 579.125 Z M 0 31.679688 " fill-opacity="1" fill-rule="nonzero"/></g></g><g fill="#ffbcd9" fill-opacity="1"><g transform="translate(228.668019, 154.779998)"><g><path d="M 15.34375 -51.59375 L 44.875 -74.546875 C 46.738281 -76.234375 48.851562 -77.078125 51.21875 -77.078125 C 53.5 -76.992188 55.441406 -76.171875 57.046875 -74.609375 C 58.648438 -73.046875 59.492188 -71.125 59.578125 -68.84375 L 59.578125 -0.125 L 42.46875 -0.125 L 42.46875 -51.09375 L 25.734375 -38.15625 Z M 15.34375 -51.59375 "/></g></g></g></svg>