<svg xmlns="http://www.w3.org/2000/svg" xmlns:xlink="http://www.w3.org/1999/xlink" width="731" zoomAndPan="magnify" viewBox="0 0 548.25 582" height="776" preserveAspectRatio="xMidYMid meet" version="1.0"><defs><g/><clipPath id="73ec369b22"><path d="M 0 33.886719 L 547.449219 33.886719 L 547.449219 581.332031 L 0 581.332031 Z M 0 33.886719 " clip-rule="nonzero"/></clipPath><clipPath id="86f1461d0a"><path d="M 273.722656 33.886719 C 122.550781 33.886719 0 156.4375 0 307.609375 C 0 458.78125 122.550781 581.332031 273.722656 581.332031 C 424.898438 581.332031 547.449219 458.78125 547.449219 307.609375 C 547.449219 156.4375 424.898438 33.886719 273.722656 33.886719 Z M 273.722656 33.886719 " clip-rule="nonzero"/></clipPath></defs><g clip-path="url(#73ec369b22)"><g clip-path="url(#86f1461d0a)"><path fill="#ffffff" d="M 0 33.886719 L 547.449219 33.886719 L 547.449219 581.332031 L 0 581.332031 Z M 0 33.886719 " fill-opacity="1" fill-rule="nonzero"/></g></g><g fill="#ffbcd9" fill-opacity="1"><g transform="translate(223.013519, 155.03071)"><g><path d="M 32.328125 -75.046875 L 88.609375 -75.046875 L 88.609375 -58.0625 L 36.640625 -58.0625 C 33.421875 -57.894531 30.753906 -56.671875 28.640625 -54.390625 C 26.535156 -52.109375 24.992188 -49.507812 24.015625 -46.59375 C 23.046875 -43.675781 22.5625 -40.695312 22.5625 -37.65625 C 22.5625 -34.613281 23.046875 -31.675781 24.015625 -28.84375 C 24.992188 -26.007812 26.535156 -23.453125 28.640625 -21.171875 C 30.753906 -18.890625 33.421875 -17.664062 36.640625 -17.5 L 70.359375 -17.5 C 71.960938 -17.414062 73.289062 -17.707031 74.34375 -18.375 C 75.40625 -19.050781 76.1875 -19.832031 76.6875 -20.71875 C 77.195312 -21.613281 77.453125 -22.523438 77.453125 -23.453125 C 77.453125 -24.046875 77.195312 -24.867188 76.6875 -25.921875 C 76.1875 -26.984375 75.40625 -27.847656 74.34375 -28.515625 C 73.289062 -29.191406 71.960938 -29.578125 70.359375 -29.671875 L 30.8125 -29.671875 L 30.8125 -46.65625 L 69.59375 -46.65625 C 75.507812 -46.476562 80.390625 -45.101562 84.234375 -42.53125 C 88.078125 -39.957031 90.820312 -37 92.46875 -33.65625 C 94.125 -30.320312 94.953125 -26.921875 94.953125 -23.453125 C 94.953125 -20.066406 94.101562 -16.703125 92.40625 -13.359375 C 90.71875 -10.023438 87.972656 -7.070312 84.171875 -4.5 C 80.367188 -1.925781 75.507812 -0.640625 69.59375 -0.640625 L 68.84375 -0.640625 C 68.332031 -0.546875 67.820312 -0.5 67.3125 -0.5 L 32.328125 -0.5 C 26.410156 -0.84375 21.53125 -3.101562 17.6875 -7.28125 C 13.84375 -11.46875 11.09375 -16.179688 9.4375 -21.421875 C 7.789062 -26.660156 6.96875 -32.070312 6.96875 -37.65625 C 6.96875 -43.226562 7.8125 -48.675781 9.5 -54 C 11.195312 -59.320312 13.945312 -64.078125 17.75 -68.265625 C 21.550781 -72.453125 26.410156 -74.710938 32.328125 -75.046875 Z M 32.328125 -75.046875 "/></g></g></g></svg>