<svg xmlns="http://www.w3.org/2000/svg" xmlns:xlink="http://www.w3.org/1999/xlink" width="730" zoomAndPan="magnify" viewBox="0 0 547.5 576.749988" height="769" preserveAspectRatio="xMidYMid meet" version="1.0"><defs><g/><clipPath id="5fac277115"><path d="M 0 29.378906 L 546.683594 29.378906 L 546.683594 576.0625 L 0 576.0625 Z M 0 29.378906 " clip-rule="nonzero"/></clipPath><clipPath id="c9f1d007ab"><path d="M 273.339844 29.378906 C 122.378906 29.378906 0 151.757812 0 302.722656 C 0 453.683594 122.378906 576.0625 273.339844 576.0625 C 424.304688 576.0625 546.683594 453.683594 546.683594 302.722656 C 546.683594 151.757812 424.304688 29.378906 273.339844 29.378906 Z M 273.339844 29.378906 " clip-rule="nonzero"/></clipPath></defs><g clip-path="url(#5fac277115)"><g clip-path="url(#c9f1d007ab)"><path fill="#ffffff" d="M 0 29.378906 L 546.683594 29.378906 L 546.683594 576.0625 L 0 576.0625 Z M 0 29.378906 " fill-opacity="1" fill-rule="nonzero"/></g></g><g fill="#ffbcd9" fill-opacity="1"><g transform="translate(222.608263, 154.841628)"><g><path d="M 10.265625 -17.5 L 69.375 -17.5 C 70.976562 -17.582031 72.304688 -17.960938 73.359375 -18.640625 C 74.421875 -19.316406 75.207031 -20.078125 75.71875 -20.921875 C 76.226562 -21.773438 76.484375 -22.664062 76.484375 -23.59375 C 76.484375 -24.519531 76.226562 -25.40625 75.71875 -26.25 C 75.207031 -27.09375 74.421875 -27.851562 73.359375 -28.53125 C 72.304688 -29.207031 70.976562 -29.585938 69.375 -29.671875 L 33.359375 -29.671875 C 27.441406 -29.847656 22.554688 -31.222656 18.703125 -33.796875 C 14.859375 -36.378906 12.109375 -39.335938 10.453125 -42.671875 C 8.804688 -46.015625 7.984375 -49.421875 7.984375 -52.890625 L 7.984375 -61.640625 C 8.078125 -65.953125 9.367188 -69.269531 11.859375 -71.59375 C 14.347656 -73.914062 17.960938 -75.078125 22.703125 -75.078125 L 91.4375 -75.078125 L 91.4375 -58.09375 L 29.546875 -58.09375 C 27.941406 -58.175781 26.863281 -57.921875 26.3125 -57.328125 C 25.769531 -56.734375 25.5 -55.890625 25.5 -54.796875 L 25.5 -52.890625 C 25.5 -52.296875 25.75 -51.46875 26.25 -50.40625 C 26.757812 -49.351562 27.539062 -48.488281 28.59375 -47.8125 C 29.65625 -47.132812 30.988281 -46.753906 32.59375 -46.671875 L 68.609375 -46.671875 C 74.535156 -46.585938 79.421875 -45.253906 83.265625 -42.671875 C 87.109375 -40.097656 89.851562 -37.140625 91.5 -33.796875 C 93.15625 -30.460938 93.984375 -27.0625 93.984375 -23.59375 C 93.984375 -20.289062 93.132812 -16.96875 91.4375 -13.625 C 89.75 -10.289062 87.003906 -7.332031 83.203125 -4.75 C 79.398438 -2.175781 74.535156 -0.804688 68.609375 -0.640625 L 67.859375 -0.640625 C 67.347656 -0.546875 66.835938 -0.5 66.328125 -0.5 L 10.265625 -0.5 Z M 10.265625 -17.5 "/></g></g></g></svg>