<svg xmlns="http://www.w3.org/2000/svg" xmlns:xlink="http://www.w3.org/1999/xlink" width="730" zoomAndPan="magnify" viewBox="0 0 547.5 579.000005" height="772" preserveAspectRatio="xMidYMid meet" version="1.0"><defs><g/><clipPath id="de08c3fb1a"><path d="M 0.222656 0 L 546.777344 0 L 546.777344 578 L 0.222656 578 Z M 0.222656 0 " clip-rule="nonzero"/></clipPath><clipPath id="4dc2be9086"><path d="M 0.222656 31.289062 L 546.460938 31.289062 L 546.460938 577.53125 L 0.222656 577.53125 Z M 0.222656 31.289062 " clip-rule="nonzero"/></clipPath><clipPath id="1d0e6ebca5"><path d="M 273.34375 31.289062 C 122.503906 31.289062 0.222656 153.570312 0.222656 304.410156 C 0.222656 455.25 122.503906 577.53125 273.34375 577.53125 C 424.183594 577.53125 546.460938 455.25 546.460938 304.410156 C 546.460938 153.570312 424.183594 31.289062 273.34375 31.289062 Z M 273.34375 31.289062 " clip-rule="nonzero"/></clipPath></defs><g clip-path="url(#de08c3fb1a)"><path fill="#ffffff" d="M 0.222656 0 L 546.777344 0 L 546.777344 578 L 0.222656 578 Z M 0.222656 0 " fill-opacity="1" fill-rule="nonzero"/></g><g clip-path="url(#4dc2be9086)"><g clip-path="url(#1d0e6ebca5)"><path fill="#ffffff" d="M 0.222656 31.289062 L 546.460938 31.289062 L 546.460938 577.53125 L 0.222656 577.53125 Z M 0.222656 31.289062 " fill-opacity="1" fill-rule="nonzero"/></g></g><g fill="#ffbcd9" fill-opacity="1"><g transform="translate(222.649813, 154.577734)"><g><path d="M 10.265625 -17.484375 L 68.5625 -17.484375 C 70.164062 -17.566406 71.492188 -17.945312 72.546875 -18.625 C 73.609375 -19.300781 74.390625 -20.0625 74.890625 -20.90625 C 75.398438 -21.75 75.65625 -22.640625 75.65625 -23.578125 C 75.65625 -24.503906 75.398438 -25.390625 74.890625 -26.234375 C 74.390625 -27.078125 73.609375 -27.835938 72.546875 -28.515625 C 71.492188 -29.191406 70.164062 -29.570312 68.5625 -29.65625 L 10.515625 -29.65625 L 10.515625 -46.640625 L 67.796875 -46.640625 C 67.878906 -46.640625 67.960938 -46.640625 68.046875 -46.640625 C 69.648438 -46.722656 70.976562 -47.078125 72.03125 -47.703125 C 73.09375 -48.335938 73.875 -49.078125 74.375 -49.921875 C 74.882812 -50.773438 75.140625 -51.664062 75.140625 -52.59375 C 75.140625 -53.4375 74.882812 -54.28125 74.375 -55.125 C 73.875 -55.96875 73.09375 -56.707031 72.03125 -57.34375 C 70.976562 -57.976562 69.648438 -58.335938 68.046875 -58.421875 L 10.015625 -58.421875 L 10.015625 -75.015625 L 67.296875 -75.015625 C 73.203125 -74.929688 78.078125 -73.644531 81.921875 -71.15625 C 85.765625 -68.664062 88.507812 -65.769531 90.15625 -62.46875 C 91.8125 -59.175781 92.640625 -55.882812 92.640625 -52.59375 C 92.640625 -49.289062 91.789062 -46.035156 90.09375 -42.828125 C 89.332031 -41.304688 88.363281 -39.914062 87.1875 -38.65625 C 88.625 -37.132812 89.804688 -35.523438 90.734375 -33.828125 C 92.335938 -30.453125 93.140625 -27.035156 93.140625 -23.578125 C 93.140625 -20.273438 92.296875 -16.957031 90.609375 -13.625 C 88.921875 -10.289062 86.175781 -7.332031 82.375 -4.75 C 78.570312 -2.175781 73.710938 -0.804688 67.796875 -0.640625 L 67.03125 -0.640625 C 66.53125 -0.546875 66.023438 -0.5 65.515625 -0.5 L 10.265625 -0.5 Z M 10.265625 -17.484375 "/></g></g></g></svg>