<svg xmlns="http://www.w3.org/2000/svg" xmlns:xlink="http://www.w3.org/1999/xlink" width="889" zoomAndPan="magnify" viewBox="0 0 666.75 665.249979" height="887" preserveAspectRatio="xMidYMid meet" version="1.0"><defs><clipPath id="975a2e82f0"><path d="M 113 129 L 524 129 L 524 531 L 113 531 Z M 113 129 " clip-rule="nonzero"/></clipPath><clipPath id="d1ed11ac7d"><path d="M 308.609375 0.00390625 L 665.722656 334.34375 L 357.492188 663.566406 L 0.378906 329.226562 Z M 308.609375 0.00390625 " clip-rule="nonzero"/></clipPath><clipPath id="9f48ab4baa"><path d="M 308.609375 0.00390625 L 665.722656 334.34375 L 357.492188 663.566406 L 0.378906 329.226562 Z M 308.609375 0.00390625 " clip-rule="nonzero"/></clipPath><clipPath id="25839560b1"><path d="M 443 154 L 470 154 L 470 181 L 443 181 Z M 443 154 " clip-rule="nonzero"/></clipPath><clipPath id="417c90cbf8"><path d="M 308.609375 0.00390625 L 665.722656 334.34375 L 357.492188 663.566406 L 0.378906 329.226562 Z M 308.609375 0.00390625 " clip-rule="nonzero"/></clipPath><clipPath id="2de60f4c32"><path d="M 308.609375 0.00390625 L 665.722656 334.34375 L 357.492188 663.566406 L 0.378906 329.226562 Z M 308.609375 0.00390625 " clip-rule="nonzero"/></clipPath><clipPath id="0cf0e36403"><path d="M 526 430 L 557 430 L 557 461 L 526 461 Z M 526 430 " clip-rule="nonzero"/></clipPath><clipPath id="e2b810c2d1"><path d="M 308.609375 0.00390625 L 665.722656 334.34375 L 357.492188 663.566406 L 0.378906 329.226562 Z M 308.609375 0.00390625 " clip-rule="nonzero"/></clipPath><clipPath id="2386683582"><path d="M 308.609375 0.00390625 L 665.722656 334.34375 L 357.492188 663.566406 L 0.378906 329.226562 Z M 308.609375 0.00390625 " clip-rule="nonzero"/></clipPath><clipPath id="a7aa33221b"><path d="M 97 395 L 133 395 L 133 431 L 97 431 Z M 97 395 " clip-rule="nonzero"/></clipPath><clipPath id="cd2587b7ab"><path d="M 308.609375 0.00390625 L 665.722656 334.34375 L 357.492188 663.566406 L 0.378906 329.226562 Z M 308.609375 0.00390625 " clip-rule="nonzero"/></clipPath><clipPath id="218a5a3ab5"><path d="M 308.609375 0.00390625 L 665.722656 334.34375 L 357.492188 663.566406 L 0.378906 329.226562 Z M 308.609375 0.00390625 " clip-rule="nonzero"/></clipPath><clipPath id="8d1d7f709b"><path d="M 279 90 L 305 90 L 305 116 L 279 116 Z M 279 90 " clip-rule="nonzero"/></clipPath><clipPath id="810e436ab3"><path d="M 308.609375 0.00390625 L 665.722656 334.34375 L 357.492188 663.566406 L 0.378906 329.226562 Z M 308.609375 0.00390625 " clip-rule="nonzero"/></clipPath><clipPath id="3a67b451b2"><path d="M 308.609375 0.00390625 L 665.722656 334.34375 L 357.492188 663.566406 L 0.378906 329.226562 Z M 308.609375 0.00390625 " clip-rule="nonzero"/></clipPath><clipPath id="d0f896dce9"><path d="M 91 230 L 106 230 L 106 244 L 91 244 Z M 91 230 " clip-rule="nonzero"/></clipPath><clipPath id="25fb01252c"><path d="M 308.609375 0.00390625 L 665.722656 334.34375 L 357.492188 663.566406 L 0.378906 329.226562 Z M 308.609375 0.00390625 " clip-rule="nonzero"/></clipPath><clipPath id="4acacf9442"><path d="M 308.609375 0.00390625 L 665.722656 334.34375 L 357.492188 663.566406 L 0.378906 329.226562 Z M 308.609375 0.00390625 " clip-rule="nonzero"/></clipPath><clipPath id="eabdaad6ef"><path d="M 525 301 L 540 301 L 540 316 L 525 316 Z M 525 301 " clip-rule="nonzero"/></clipPath><clipPath id="ee124e397a"><path d="M 308.609375 0.00390625 L 665.722656 334.34375 L 357.492188 663.566406 L 0.378906 329.226562 Z M 308.609375 0.00390625 " clip-rule="nonzero"/></clipPath><clipPath id="fff23b23f7"><path d="M 308.609375 0.00390625 L 665.722656 334.34375 L 357.492188 663.566406 L 0.378906 329.226562 Z M 308.609375 0.00390625 " clip-rule="nonzero"/></clipPath><clipPath id="dca79a40e1"><path d="M 350 542 L 374 542 L 374 565 L 350 565 Z M 350 542 " clip-rule="nonzero"/></clipPath><clipPath id="1e16667a99"><path d="M 308.609375 0.00390625 L 665.722656 334.34375 L 357.492188 663.566406 L 0.378906 329.226562 Z M 308.609375 0.00390625 " clip-rule="nonzero"/></clipPath><clipPath id="86e57ef2ff"><path d="M 308.609375 0.00390625 L 665.722656 334.34375 L 357.492188 663.566406 L 0.378906 329.226562 Z M 308.609375 0.00390625 " clip-rule="nonzero"/></clipPath></defs><g clip-path="url(#975a2e82f0)"><g clip-path="url(#d1ed11ac7d)"><g clip-path="url(#9f48ab4baa)"><path fill="#ffffff" d="M 118.808594 282.726562 C 119.878906 284.210938 121.105469 285.617188 122.46875 286.898438 C 127.21875 291.359375 132.898438 294.6875 138.101562 298.609375 C 143.304688 302.535156 148.199219 307.308594 150.40625 313.441406 C 154.503906 324.839844 144.851562 330.328125 142.351562 340.3125 C 139.71875 350.851562 148.097656 353.027344 151.71875 363.160156 C 155.335938 373.289062 142.886719 381.6875 139.433594 391.738281 C 135.980469 401.785156 140.394531 412.84375 153.449219 415.753906 C 165.28125 418.390625 186.882812 409.277344 194.023438 423.058594 C 198.847656 432.378906 191.199219 438.902344 186.464844 445.910156 C 179.171875 456.710938 175.335938 474.535156 184.113281 485.496094 C 196.519531 500.992188 213.273438 492.800781 223.984375 480.5625 C 233.90625 469.21875 249.328125 448.292969 266.558594 460.921875 C 277.730469 469.109375 272.601562 480.339844 272.847656 491.550781 C 273.046875 500.535156 279.882812 516.546875 293.523438 513.886719 C 307.164062 511.226562 305.980469 498.210938 322 498.722656 C 338.027344 499.230469 345.730469 533.34375 366.851562 522.597656 C 372.894531 519.527344 376.910156 510.507812 380.691406 505.859375 C 402.3125 479.28125 410.214844 504.566406 427.34375 521.015625 C 434.332031 527.726562 441.570312 532.003906 452.347656 530.695312 C 463.128906 529.390625 473.601562 520.6875 473.003906 506.859375 C 472.410156 493.03125 457.054688 481.015625 448.714844 471.28125 C 440.371094 461.546875 437.53125 452.121094 447.167969 443.445312 C 456.804688 434.769531 480.265625 440.332031 489.09375 440.34375 C 497.925781 440.351562 500.882812 441.171875 505.53125 438.902344 C 533.496094 425.210938 512.367188 399.855469 499.136719 383.964844 C 493.847656 377.609375 490.152344 372.808594 489.496094 366.097656 C 487.925781 350 506.839844 346.960938 514.128906 338.644531 C 521.421875 330.332031 519.847656 324.597656 516.140625 316.128906 C 512.441406 307.65625 499.570312 307.628906 493.210938 303.746094 C 486.851562 299.855469 483.910156 299.859375 481.75 291.808594 C 479.589844 283.757812 483.347656 277.71875 490.855469 269.835938 C 507.347656 252.507812 541.726562 218.265625 510.703125 198.460938 C 500.902344 192.203125 489.347656 201.820312 482.816406 207.796875 C 476.28125 213.769531 473.03125 219.898438 466.515625 224.710938 C 459.996094 229.523438 452.628906 232.457031 446.84375 224.394531 C 441.0625 216.335938 451.175781 202.277344 441.941406 195.410156 C 432.707031 188.550781 420.433594 199.738281 414.59375 204.019531 C 408.753906 208.300781 407.015625 212.242188 401.039062 210.882812 C 395.0625 209.523438 397.296875 203.242188 394.976562 199.109375 C 392.660156 194.976562 394.414062 190.195312 391.875 185.976562 C 389.332031 181.765625 384.730469 177.511719 379.484375 176.726562 C 359.59375 173.753906 344.785156 195.988281 326.617188 180.535156 C 311.765625 167.90625 322.847656 142.617188 304.167969 132.4375 C 295.53125 127.722656 283.980469 129.109375 276.699219 135.722656 C 268.023438 143.609375 266.375 156.34375 263.957031 167.820312 C 261.074219 181.492188 250.195312 194.078125 237.128906 199.0625 C 215.65625 207.25 209.175781 195.644531 197.613281 181.148438 C 189.644531 171.15625 174.902344 172.15625 170.015625 185.324219 C 162.570312 205.378906 196.300781 218.640625 187.484375 240.9375 C 184.554688 248.34375 177.359375 253.878906 169.449219 254.816406 C 156.058594 256.398438 143.667969 248.433594 130.210938 249.976562 C 111.558594 252.121094 109.867188 270.316406 118.808594 282.726562 " fill-opacity="1" fill-rule="nonzero"/></g></g></g><g clip-path="url(#25839560b1)"><g clip-path="url(#417c90cbf8)"><g clip-path="url(#2de60f4c32)"><path fill="#ffffff" d="M 447.941406 176.699219 C 449.183594 177.953125 450.632812 178.808594 452.296875 179.265625 C 453.808594 179.972656 455.414062 180.269531 457.113281 180.148438 C 458.820312 180.15625 460.402344 179.757812 461.867188 178.949219 C 463.492188 178.382812 464.886719 177.433594 466.042969 176.101562 C 466.707031 175.167969 467.371094 174.238281 468.035156 173.304688 C 469.070312 171.304688 469.558594 169.179688 469.492188 166.929688 C 469.316406 165.851562 469.144531 164.773438 468.96875 163.695312 C 468.304688 161.484375 467.128906 159.585938 465.445312 158 C 464.203125 156.75 462.75 155.894531 461.089844 155.433594 C 459.578125 154.726562 457.972656 154.433594 456.269531 154.550781 C 454.566406 154.542969 452.984375 154.945312 451.523438 155.75 C 449.894531 156.316406 448.5 157.265625 447.347656 158.597656 C 446.679688 159.53125 446.015625 160.464844 445.351562 161.398438 C 444.3125 163.398438 443.828125 165.519531 443.894531 167.773438 C 444.070312 168.847656 444.242188 169.929688 444.417969 171.003906 C 445.085938 173.214844 446.257812 175.113281 447.941406 176.699219 " fill-opacity="1" fill-rule="nonzero"/></g></g></g><g clip-path="url(#0cf0e36403)"><g clip-path="url(#e2b810c2d1)"><g clip-path="url(#2386683582)"><path fill="#ffffff" d="M 554.566406 452.332031 C 554.582031 452.292969 554.597656 452.257812 554.609375 452.222656 C 554.617188 452.203125 554.625 452.1875 554.628906 452.167969 C 555.121094 450.976562 555.566406 449.765625 555.96875 448.535156 C 556.089844 447.273438 556.210938 446.011719 556.328125 444.746094 C 556.125 443.492188 555.925781 442.242188 555.722656 440.988281 C 555.21875 439.027344 554.273438 437.339844 552.890625 435.914062 C 552.167969 434.757812 551.207031 433.855469 550 433.210938 C 548.492188 431.925781 546.746094 431.097656 544.757812 430.722656 C 543.488281 430.601562 542.226562 430.480469 540.964844 430.363281 C 538.980469 430.351562 537.144531 430.816406 535.445312 431.753906 C 534.160156 432.144531 533.054688 432.824219 532.136719 433.800781 C 530.457031 434.945312 529.167969 436.449219 528.269531 438.316406 C 527.828125 439.523438 527.382812 440.730469 526.9375 441.9375 C 526.816406 443.199219 526.695312 444.464844 526.578125 445.726562 C 526.570312 447.710938 527.035156 449.550781 527.96875 451.246094 C 528.628906 453.140625 529.730469 454.761719 531.28125 456.101562 C 532.363281 456.871094 533.453125 457.648438 534.535156 458.421875 C 535.742188 458.859375 536.949219 459.308594 538.15625 459.753906 C 540.058594 460.257812 541.949219 460.273438 543.824219 459.8125 C 545.132812 459.761719 546.347656 459.398438 547.464844 458.722656 C 548.082031 458.445312 548.714844 458.1875 549.320312 457.886719 C 551.097656 457.011719 553.804688 454.183594 554.566406 452.332031 " fill-opacity="1" fill-rule="nonzero"/></g></g></g><g clip-path="url(#a7aa33221b)"><g clip-path="url(#cd2587b7ab)"><g clip-path="url(#218a5a3ab5)"><path fill="#ffffff" d="M 110.769531 396.578125 C 110.5 396.644531 110.230469 396.707031 109.964844 396.773438 C 107.007812 397.664062 104.46875 399.234375 102.347656 401.488281 C 100.242188 403.75 98.839844 406.386719 98.144531 409.398438 C 97.496094 412.316406 97.59375 415.214844 98.433594 418.082031 C 99.324219 421.039062 100.894531 423.582031 103.144531 425.699219 C 105.40625 427.808594 108.046875 429.207031 111.054688 429.902344 C 113.972656 430.550781 116.871094 430.453125 119.742188 429.617188 C 122.699219 428.722656 125.238281 427.152344 127.355469 424.902344 C 129.464844 422.636719 130.863281 420 131.558594 416.992188 C 131.605469 416.722656 131.652344 416.449219 131.699219 416.175781 C 132.328125 413.347656 132.234375 410.539062 131.421875 407.757812 C 130.558594 404.890625 129.035156 402.429688 126.855469 400.375 C 124.660156 398.332031 122.105469 396.976562 119.1875 396.300781 C 116.359375 395.675781 113.550781 395.765625 110.769531 396.578125 " fill-opacity="1" fill-rule="nonzero"/></g></g></g><g clip-path="url(#8d1d7f709b)"><g clip-path="url(#810e436ab3)"><g clip-path="url(#3a67b451b2)"><path fill="#ffffff" d="M 283.15625 112.488281 C 295.261719 123.824219 312.894531 105.027344 300.769531 93.675781 C 288.664062 82.34375 271.03125 101.136719 283.15625 112.488281 " fill-opacity="1" fill-rule="nonzero"/></g></g></g><g clip-path="url(#d0f896dce9)"><g clip-path="url(#25fb01252c)"><g clip-path="url(#4acacf9442)"><path fill="#ffffff" d="M 94.027344 241.609375 C 100.183594 247.375 109.15625 237.8125 102.988281 232.039062 C 96.828125 226.269531 87.859375 235.832031 94.027344 241.609375 " fill-opacity="1" fill-rule="nonzero"/></g></g></g><g clip-path="url(#eabdaad6ef)"><g clip-path="url(#ee124e397a)"><g clip-path="url(#fff23b23f7)"><path fill="#ffffff" d="M 527.992188 313.199219 C 534.371094 319.171875 543.667969 309.265625 537.273438 303.28125 C 530.894531 297.304688 521.597656 307.210938 527.992188 313.199219 " fill-opacity="1" fill-rule="nonzero"/></g></g></g><g clip-path="url(#dca79a40e1)"><g clip-path="url(#1e16667a99)"><g clip-path="url(#86e57ef2ff)"><path fill="#ffffff" d="M 354.394531 561.566406 C 364.941406 571.4375 380.296875 555.066406 369.738281 545.179688 C 359.195312 535.308594 343.832031 551.675781 354.394531 561.566406 " fill-opacity="1" fill-rule="nonzero"/></g></g></g></svg>