<svg xmlns="http://www.w3.org/2000/svg" xmlns:xlink="http://www.w3.org/1999/xlink" width="886" zoomAndPan="magnify" viewBox="0 0 664.5 648.749986" height="865" preserveAspectRatio="xMidYMid meet" version="1.0"><defs><clipPath id="831decdeb7"><path d="M 96 132 L 541 132 L 541 521 L 96 521 Z M 96 132 " clip-rule="nonzero"/></clipPath><clipPath id="61458582f3"><path d="M 222.035156 0.121094 L 663.523438 240.886719 L 441.417969 648.160156 L -0.0703125 407.394531 Z M 222.035156 0.121094 " clip-rule="nonzero"/></clipPath><clipPath id="f3e90ee87c"><path d="M 222.035156 0.121094 L 663.523438 240.886719 L 441.417969 648.160156 L -0.0703125 407.394531 Z M 222.035156 0.121094 " clip-rule="nonzero"/></clipPath><clipPath id="038a50f018"><path d="M 399 115 L 426 115 L 426 142 L 399 142 Z M 399 115 " clip-rule="nonzero"/></clipPath><clipPath id="20f63245c7"><path d="M 222.035156 0.121094 L 663.523438 240.886719 L 441.417969 648.160156 L -0.0703125 407.394531 Z M 222.035156 0.121094 " clip-rule="nonzero"/></clipPath><clipPath id="58b5835e6c"><path d="M 222.035156 0.121094 L 663.523438 240.886719 L 441.417969 648.160156 L -0.0703125 407.394531 Z M 222.035156 0.121094 " clip-rule="nonzero"/></clipPath><clipPath id="f2be808756"><path d="M 553 367 L 584 367 L 584 399 L 553 399 Z M 553 367 " clip-rule="nonzero"/></clipPath><clipPath id="c3a146bc5d"><path d="M 222.035156 0.121094 L 663.523438 240.886719 L 441.417969 648.160156 L -0.0703125 407.394531 Z M 222.035156 0.121094 " clip-rule="nonzero"/></clipPath><clipPath id="4fdbe2095d"><path d="M 222.035156 0.121094 L 663.523438 240.886719 L 441.417969 648.160156 L -0.0703125 407.394531 Z M 222.035156 0.121094 " clip-rule="nonzero"/></clipPath><clipPath id="4010d4b3f1"><path d="M 118 443 L 154 443 L 154 479 L 118 479 Z M 118 443 " clip-rule="nonzero"/></clipPath><clipPath id="7bd5d92a49"><path d="M 222.035156 0.121094 L 663.523438 240.886719 L 441.417969 648.160156 L -0.0703125 407.394531 Z M 222.035156 0.121094 " clip-rule="nonzero"/></clipPath><clipPath id="933842a8d4"><path d="M 222.035156 0.121094 L 663.523438 240.886719 L 441.417969 648.160156 L -0.0703125 407.394531 Z M 222.035156 0.121094 " clip-rule="nonzero"/></clipPath><clipPath id="7365db86e5"><path d="M 218 93 L 246 93 L 246 121 L 218 121 Z M 218 93 " clip-rule="nonzero"/></clipPath><clipPath id="904c9d6539"><path d="M 222.035156 0.121094 L 663.523438 240.886719 L 441.417969 648.160156 L -0.0703125 407.394531 Z M 222.035156 0.121094 " clip-rule="nonzero"/></clipPath><clipPath id="33a5599546"><path d="M 222.035156 0.121094 L 663.523438 240.886719 L 441.417969 648.160156 L -0.0703125 407.394531 Z M 222.035156 0.121094 " clip-rule="nonzero"/></clipPath><clipPath id="f48bf7a4a1"><path d="M 67 283 L 81 283 L 81 297 L 67 297 Z M 67 283 " clip-rule="nonzero"/></clipPath><clipPath id="5319439210"><path d="M 222.035156 0.121094 L 663.523438 240.886719 L 441.417969 648.160156 L -0.0703125 407.394531 Z M 222.035156 0.121094 " clip-rule="nonzero"/></clipPath><clipPath id="cd0f33d79f"><path d="M 222.035156 0.121094 L 663.523438 240.886719 L 441.417969 648.160156 L -0.0703125 407.394531 Z M 222.035156 0.121094 " clip-rule="nonzero"/></clipPath><clipPath id="e8a097615c"><path d="M 517 242 L 532 242 L 532 257 L 517 257 Z M 517 242 " clip-rule="nonzero"/></clipPath><clipPath id="cb9662abb9"><path d="M 222.035156 0.121094 L 663.523438 240.886719 L 441.417969 648.160156 L -0.0703125 407.394531 Z M 222.035156 0.121094 " clip-rule="nonzero"/></clipPath><clipPath id="091dfc383f"><path d="M 222.035156 0.121094 L 663.523438 240.886719 L 441.417969 648.160156 L -0.0703125 407.394531 Z M 222.035156 0.121094 " clip-rule="nonzero"/></clipPath><clipPath id="aae0ab6c41"><path d="M 406 525 L 430 525 L 430 549 L 406 549 Z M 406 525 " clip-rule="nonzero"/></clipPath><clipPath id="31a7158db3"><path d="M 222.035156 0.121094 L 663.523438 240.886719 L 441.417969 648.160156 L -0.0703125 407.394531 Z M 222.035156 0.121094 " clip-rule="nonzero"/></clipPath><clipPath id="2c09183308"><path d="M 222.035156 0.121094 L 663.523438 240.886719 L 441.417969 648.160156 L -0.0703125 407.394531 Z M 222.035156 0.121094 " clip-rule="nonzero"/></clipPath></defs><g clip-path="url(#831decdeb7)"><g clip-path="url(#61458582f3)"><g clip-path="url(#f3e90ee87c)"><path fill="#ffffff" d="M 105.96875 330.328125 C 107.417969 331.53125 108.996094 332.613281 110.6875 333.539062 C 116.558594 336.757812 123.070312 338.601562 129.257812 341.164062 C 135.445312 343.734375 141.546875 347.222656 145.320312 352.757812 C 152.332031 363.042969 144.140625 370.988281 144.226562 381.570312 C 144.320312 392.734375 153.21875 392.742188 159.429688 401.890625 C 165.636719 411.042969 155.414062 422.601562 154.5625 433.496094 C 153.714844 444.382812 160.957031 454.246094 174.695312 453.78125 C 187.144531 453.359375 206.292969 438.726562 216.949219 450.601562 C 224.152344 458.636719 218.21875 467.097656 215.3125 475.289062 C 210.835938 487.914062 211.609375 506.640625 223.164062 515.285156 C 239.5 527.511719 254.0625 515.046875 261.570312 500.109375 C 268.523438 486.265625 278.480469 461.472656 298.878906 469.605469 C 312.101562 474.875 309.894531 487.371094 313.019531 498.460938 C 315.53125 507.351562 326.457031 521.523438 339.347656 515.367188 C 352.238281 509.203125 347.707031 496.558594 363.78125 492.941406 C 379.859375 489.320312 396.3125 521.285156 414.5625 505.152344 C 419.78125 500.539062 421.457031 490.53125 424.023438 484.933594 C 438.691406 452.917969 453.066406 476.042969 474.34375 488 C 483.027344 492.878906 491.332031 495.269531 501.71875 491.195312 C 512.113281 487.121094 520.292969 475.765625 516.136719 462.15625 C 511.984375 448.546875 493.613281 440.546875 482.804688 433.007812 C 472 425.472656 466.742188 416.820312 474.101562 405.707031 C 481.457031 394.59375 506.230469 394.085938 515.019531 391.824219 C 523.808594 389.558594 526.964844 389.613281 531.007812 386.15625 C 555.304688 365.332031 527.757812 345.542969 510.496094 333.136719 C 503.597656 328.175781 498.683594 324.347656 496.304688 317.839844 C 490.597656 302.226562 508.632812 294.332031 513.746094 284.179688 C 518.863281 274.03125 515.816406 268.730469 509.949219 261.253906 C 504.085938 253.78125 491.273438 257.0625 483.945312 254.835938 C 476.617188 252.605469 473.691406 253.367188 469.464844 245.914062 C 465.242188 238.457031 467.425781 231.476562 472.867188 221.703125 C 484.820312 200.210938 510.210938 157.285156 474.242188 145.566406 C 462.878906 141.863281 453.851562 154.410156 448.894531 162.039062 C 443.929688 169.664062 442.277344 176.597656 437.027344 183.066406 C 431.78125 189.535156 425.207031 194.347656 417.371094 187.816406 C 409.542969 181.285156 415.988281 164.695312 405.03125 160.238281 C 394.078125 155.789062 384.742188 170.082031 380.035156 175.847656 C 375.324219 181.609375 374.613281 185.980469 368.3125 186.164062 C 362.015625 186.351562 362.621094 179.527344 359.25 176.011719 C 355.878906 172.496094 356.394531 167.285156 352.78125 163.742188 C 349.167969 160.207031 343.496094 157.160156 338.070312 157.730469 C 317.511719 159.890625 308.5 185.832031 286.445312 175.132812 C 268.414062 166.386719 272.929688 138.371094 251.71875 133.046875 C 241.910156 130.582031 230.773438 134.9375 225.234375 143.390625 C 218.628906 153.476562 220.269531 166.570312 220.816406 178.613281 C 221.46875 192.957031 213.886719 208.285156 202.167969 216.609375 C 182.910156 230.285156 173.472656 220.40625 158.230469 208.957031 C 147.730469 201.066406 133.316406 205.855469 131.84375 220.222656 C 129.597656 242.09375 166.578125 246.605469 163.546875 271.0625 C 162.539062 279.183594 156.804688 286.546875 149.171875 289.519531 C 136.257812 294.539062 121.878906 289.800781 108.882812 294.804688 C 90.875 301.742188 93.878906 320.28125 105.96875 330.328125 " fill-opacity="1" fill-rule="nonzero"/></g></g></g><g clip-path="url(#038a50f018)"><g clip-path="url(#20f63245c7)"><g clip-path="url(#58b5835e6c)"><path fill="#ffffff" d="M 406.183594 140.074219 C 407.742188 141 409.40625 141.480469 411.179688 141.503906 C 412.863281 141.820312 414.539062 141.703125 416.199219 141.144531 C 417.898438 140.714844 419.371094 139.90625 420.617188 138.726562 C 422.089844 137.746094 423.234375 136.441406 424.042969 134.816406 C 424.460938 133.71875 424.882812 132.621094 425.304688 131.523438 C 425.820312 129.265625 425.757812 127.027344 425.113281 124.804688 C 424.660156 123.773438 424.210938 122.746094 423.761719 121.71875 C 422.527344 119.691406 420.871094 118.105469 418.785156 116.960938 C 417.230469 116.03125 415.5625 115.554688 413.789062 115.527344 C 412.105469 115.214844 410.433594 115.332031 408.769531 115.890625 C 407.070312 116.320312 405.601562 117.128906 404.351562 118.304688 C 402.878906 119.285156 401.738281 120.589844 400.929688 122.214844 C 400.507812 123.3125 400.085938 124.414062 399.667969 125.511719 C 399.148438 127.769531 399.210938 130.007812 399.855469 132.230469 C 400.308594 133.257812 400.757812 134.289062 401.210938 135.3125 C 402.445312 137.34375 404.101562 138.929688 406.183594 140.074219 " fill-opacity="1" fill-rule="nonzero"/></g></g></g><g clip-path="url(#f2be808756)"><g clip-path="url(#c3a146bc5d)"><g clip-path="url(#4fdbe2095d)"><path fill="#ffffff" d="M 583.257812 386.894531 C 583.261719 386.855469 583.269531 386.816406 583.273438 386.773438 C 583.277344 386.753906 583.277344 386.738281 583.28125 386.71875 C 583.460938 385.402344 583.59375 384.085938 583.675781 382.757812 C 583.472656 381.46875 583.269531 380.179688 583.058594 378.894531 C 582.535156 377.699219 582.011719 376.507812 581.488281 375.308594 C 580.480469 373.488281 579.105469 372.050781 577.363281 370.992188 C 576.347656 370.023438 575.15625 369.375 573.792969 369.042969 C 571.957031 368.152344 570.007812 367.777344 567.929688 367.917969 C 566.640625 368.125 565.351562 368.328125 564.066406 368.535156 C 562.089844 369.039062 560.382812 369.972656 558.929688 371.339844 C 557.753906 372.0625 556.832031 373.023438 556.167969 374.234375 C 554.789062 375.800781 553.894531 377.628906 553.484375 379.71875 C 553.355469 381.035156 553.222656 382.351562 553.089844 383.664062 C 553.292969 384.953125 553.5 386.246094 553.707031 387.53125 C 554.207031 389.503906 555.148438 391.214844 556.511719 392.664062 C 557.65625 394.378906 559.171875 395.707031 561.058594 396.644531 C 562.335938 397.132812 563.617188 397.621094 564.894531 398.113281 C 566.207031 398.238281 567.523438 398.375 568.839844 398.507812 C 570.863281 398.515625 572.746094 398.046875 574.496094 397.105469 C 575.785156 396.71875 576.898438 396.042969 577.835938 395.085938 C 578.378906 394.648438 578.945312 394.230469 579.46875 393.773438 C 581.011719 392.445312 582.976562 388.933594 583.257812 386.894531 " fill-opacity="1" fill-rule="nonzero"/></g></g></g><g clip-path="url(#4010d4b3f1)"><g clip-path="url(#7bd5d92a49)"><g clip-path="url(#933842a8d4)"><path fill="#ffffff" d="M 127.285156 445.691406 C 127.035156 445.828125 126.785156 445.960938 126.535156 446.09375 C 123.820312 447.742188 121.699219 449.957031 120.167969 452.746094 C 118.65625 455.539062 117.941406 458.523438 118.023438 461.699219 C 118.132812 464.769531 118.972656 467.628906 120.546875 470.265625 C 122.195312 472.980469 124.414062 475.101562 127.199219 476.632812 C 129.992188 478.144531 132.976562 478.859375 136.152344 478.777344 C 139.222656 478.671875 142.082031 477.828125 144.71875 476.257812 C 147.433594 474.605469 149.554688 472.390625 151.085938 469.605469 C 152.601562 466.808594 153.3125 463.824219 153.230469 460.648438 C 153.207031 460.371094 153.183594 460.085938 153.160156 459.804688 C 153.058594 456.824219 152.242188 454.054688 150.71875 451.496094 C 149.121094 448.867188 146.96875 446.8125 144.269531 445.328125 C 141.5625 443.859375 138.667969 443.167969 135.59375 443.25 C 132.613281 443.351562 129.847656 444.167969 127.285156 445.691406 " fill-opacity="1" fill-rule="nonzero"/></g></g></g><g clip-path="url(#7365db86e5)"><g clip-path="url(#904c9d6539)"><g clip-path="url(#33a5599546)"><path fill="#ffffff" d="M 225.675781 118.609375 C 240.640625 126.769531 253.34375 103.527344 238.355469 95.355469 C 223.394531 87.195312 210.6875 110.4375 225.675781 118.609375 " fill-opacity="1" fill-rule="nonzero"/></g></g></g><g clip-path="url(#f48bf7a4a1)"><g clip-path="url(#5319439210)"><g clip-path="url(#cd0f33d79f)"><path fill="#ffffff" d="M 70.722656 295.792969 C 78.335938 299.945312 84.800781 288.121094 77.171875 283.960938 C 69.558594 279.8125 63.097656 291.632812 70.722656 295.792969 " fill-opacity="1" fill-rule="nonzero"/></g></g></g><g clip-path="url(#e8a097615c)"><g clip-path="url(#cb9662abb9)"><g clip-path="url(#091dfc383f)"><path fill="#ffffff" d="M 520.988281 255.289062 C 528.875 259.589844 535.574219 247.335938 527.671875 243.03125 C 519.78125 238.726562 513.082031 250.976562 520.988281 255.289062 " fill-opacity="1" fill-rule="nonzero"/></g></g></g><g clip-path="url(#aae0ab6c41)"><g clip-path="url(#31a7158db3)"><g clip-path="url(#2c09183308)"><path fill="#ffffff" d="M 412.199219 547.132812 C 425.234375 554.242188 436.300781 534 423.246094 526.878906 C 410.210938 519.773438 399.140625 540.015625 412.199219 547.132812 " fill-opacity="1" fill-rule="nonzero"/></g></g></g></svg>