<svg xmlns="http://www.w3.org/2000/svg" xmlns:xlink="http://www.w3.org/1999/xlink" width="1225" zoomAndPan="magnify" viewBox="0 0 918.75 523.499989" height="698" preserveAspectRatio="xMidYMid meet" version="1.0"><defs><g/></defs><g fill="#ff5722" fill-opacity="0.9098"><g transform="translate(304.846187, 291.606322)"><g><path d="M -5.515625 -76.609375 L 52.84375 -88.359375 L 51.390625 -95.59375 L 69.46875 -99.234375 L 70.921875 -92 L 86.3125 -95.09375 L 89.625 -78.625 L 74.234375 -75.53125 L 85.921875 -17.4375 L 67.84375 -13.796875 L 65.796875 -23.96875 C 63.054688 -21.445312 59.648438 -19.691406 55.578125 -18.703125 L 44.328125 -16.4375 C 36.421875 -15.125 30.195312 -15.359375 25.65625 -17.140625 C 21.125 -18.921875 17.628906 -21.304688 15.171875 -24.296875 C 12.710938 -27.285156 11.144531 -30.476562 10.46875 -33.875 C 9.75 -37.4375 9.925781 -41.039062 11 -44.6875 C 12.082031 -48.34375 14.382812 -51.894531 17.90625 -55.34375 C 21.4375 -58.800781 26.316406 -61.203125 32.546875 -62.546875 L 48.625 -65.78125 C 51.65625 -66.394531 54.632812 -66.113281 57.5625 -64.9375 L 56.15625 -71.890625 L -2.203125 -60.140625 Z M 35.109375 -47.046875 C 33.410156 -46.703125 32.019531 -45.976562 30.9375 -44.875 C 29.863281 -43.78125 29.15625 -42.570312 28.8125 -41.25 C 28.476562 -39.925781 28.425781 -38.6875 28.65625 -37.53125 C 28.875 -36.457031 29.394531 -35.378906 30.21875 -34.296875 C 31.039062 -33.210938 32.164062 -32.347656 33.59375 -31.703125 C 35.03125 -31.054688 36.597656 -30.90625 38.296875 -31.25 L 55.4375 -34.6875 C 57.132812 -35.03125 58.515625 -35.773438 59.578125 -36.921875 C 60.640625 -38.066406 61.363281 -39.320312 61.75 -40.6875 C 61.863281 -41.457031 61.945312 -42.175781 62 -42.84375 L 61.46875 -45.515625 C 61.144531 -46.191406 60.769531 -46.90625 60.34375 -47.65625 C 59.476562 -48.6875 58.335938 -49.5 56.921875 -50.09375 C 55.503906 -50.695312 53.945312 -50.828125 52.25 -50.484375 Z M 35.109375 -47.046875 "/></g></g></g><g fill="#ff5722" fill-opacity="0.9098"><g transform="translate(415.427679, 269.361392)"><g><path d="M 48.21875 -84.375 C 47.675781 -87.050781 48.15625 -89.515625 49.65625 -91.765625 C 51.15625 -94.015625 53.242188 -95.410156 55.921875 -95.953125 C 58.597656 -96.484375 61.0625 -96 63.3125 -94.5 C 65.5625 -93.007812 66.957031 -90.925781 67.5 -88.25 C 68.039062 -85.570312 67.5625 -83.101562 66.0625 -80.84375 C 64.5625 -78.582031 62.472656 -77.1875 59.796875 -76.65625 C 57.117188 -76.113281 54.65625 -76.59375 52.40625 -78.09375 C 50.15625 -79.601562 48.757812 -81.695312 48.21875 -84.375 Z M 71.25 -89 C 70.707031 -91.675781 71.1875 -94.140625 72.6875 -96.390625 C 74.1875 -98.648438 76.273438 -100.046875 78.953125 -100.578125 C 81.628906 -101.117188 84.085938 -100.640625 86.328125 -99.140625 C 88.578125 -97.640625 89.972656 -95.550781 90.515625 -92.875 C 91.054688 -90.195312 90.578125 -87.726562 89.078125 -85.46875 C 87.585938 -83.21875 85.503906 -81.820312 82.828125 -81.28125 C 80.148438 -80.75 77.6875 -81.234375 75.4375 -82.734375 C 73.1875 -84.234375 71.789062 -86.320312 71.25 -89 Z M 28.15625 -69.203125 C 25.632812 -71.554688 22.972656 -72.316406 20.171875 -71.484375 C 17.046875 -69.929688 15.773438 -67.953125 16.359375 -65.546875 L 26.578125 -14.671875 L 8.5 -11.046875 L -1.25 -59.515625 C -2.582031 -66.671875 -1.796875 -72.816406 1.109375 -77.953125 C 4.023438 -83.085938 9.265625 -86.46875 16.828125 -88.09375 C 24.929688 -89.800781 31.046875 -89.164062 35.171875 -86.1875 C 39.304688 -83.207031 42.242188 -80.828125 43.984375 -79.046875 L 113.3125 -23.921875 L 90.28125 -19.28125 Z M 28.15625 -69.203125 "/></g></g></g><g fill="#ff5722" fill-opacity="0.9098"><g transform="translate(523.867156, 247.547357)"><g><path d="M -7.5 -80.953125 L 77.640625 -98.078125 L 81.25 -80.140625 L 51.140625 -74.078125 C 47.773438 -73.234375 45.082031 -71.347656 43.0625 -68.421875 C 40.96875 -65.492188 39.554688 -62.351562 38.828125 -59 C 38.109375 -55.644531 37.894531 -52.332031 38.1875 -49.0625 C 38.46875 -45.769531 39.304688 -42.632812 40.703125 -39.65625 C 42.097656 -36.6875 44.476562 -34.3125 47.84375 -32.53125 C 51.21875 -30.75 54.625 -30.117188 58.0625 -30.640625 L 81.890625 -35.421875 L 85.5 -17.46875 L 62.609375 -12.875 C 52.628906 -11.226562 44.738281 -12.125 38.9375 -15.5625 C 33.144531 -19 28.695312 -23.328125 25.59375 -28.546875 C 22.5 -33.773438 20.671875 -39.398438 20.109375 -45.421875 C 19.148438 -54.316406 20.519531 -61.601562 24.21875 -67.28125 C 24.570312 -67.8125 24.976562 -68.351562 25.4375 -68.90625 L -3.890625 -63.015625 Z M -7.5 -80.953125 "/></g></g></g><g fill="#ffffff" fill-opacity="1"><g transform="translate(290.290523, 281.926036)"><g><path d="M -5.515625 -76.609375 L 52.84375 -88.359375 L 51.390625 -95.59375 L 69.46875 -99.234375 L 70.921875 -92 L 86.3125 -95.09375 L 89.625 -78.625 L 74.234375 -75.53125 L 85.921875 -17.4375 L 67.84375 -13.796875 L 65.796875 -23.96875 C 63.054688 -21.445312 59.648438 -19.691406 55.578125 -18.703125 L 44.328125 -16.4375 C 36.421875 -15.125 30.195312 -15.359375 25.65625 -17.140625 C 21.125 -18.921875 17.628906 -21.304688 15.171875 -24.296875 C 12.710938 -27.285156 11.144531 -30.476562 10.46875 -33.875 C 9.75 -37.4375 9.925781 -41.039062 11 -44.6875 C 12.082031 -48.34375 14.382812 -51.894531 17.90625 -55.34375 C 21.4375 -58.800781 26.316406 -61.203125 32.546875 -62.546875 L 48.625 -65.78125 C 51.65625 -66.394531 54.632812 -66.113281 57.5625 -64.9375 L 56.15625 -71.890625 L -2.203125 -60.140625 Z M 35.109375 -47.046875 C 33.410156 -46.703125 32.019531 -45.976562 30.9375 -44.875 C 29.863281 -43.78125 29.15625 -42.570312 28.8125 -41.25 C 28.476562 -39.925781 28.425781 -38.6875 28.65625 -37.53125 C 28.875 -36.457031 29.394531 -35.378906 30.21875 -34.296875 C 31.039062 -33.210938 32.164062 -32.347656 33.59375 -31.703125 C 35.03125 -31.054688 36.597656 -30.90625 38.296875 -31.25 L 55.4375 -34.6875 C 57.132812 -35.03125 58.515625 -35.773438 59.578125 -36.921875 C 60.640625 -38.066406 61.363281 -39.320312 61.75 -40.6875 C 61.863281 -41.457031 61.945312 -42.175781 62 -42.84375 L 61.46875 -45.515625 C 61.144531 -46.191406 60.769531 -46.90625 60.34375 -47.65625 C 59.476562 -48.6875 58.335938 -49.5 56.921875 -50.09375 C 55.503906 -50.695312 53.945312 -50.828125 52.25 -50.484375 Z M 35.109375 -47.046875 "/></g></g></g><g fill="#ffffff" fill-opacity="1"><g transform="translate(400.872015, 259.681106)"><g><path d="M 48.21875 -84.375 C 47.675781 -87.050781 48.15625 -89.515625 49.65625 -91.765625 C 51.15625 -94.015625 53.242188 -95.410156 55.921875 -95.953125 C 58.597656 -96.484375 61.0625 -96 63.3125 -94.5 C 65.5625 -93.007812 66.957031 -90.925781 67.5 -88.25 C 68.039062 -85.570312 67.5625 -83.101562 66.0625 -80.84375 C 64.5625 -78.582031 62.472656 -77.1875 59.796875 -76.65625 C 57.117188 -76.113281 54.65625 -76.59375 52.40625 -78.09375 C 50.15625 -79.601562 48.757812 -81.695312 48.21875 -84.375 Z M 71.25 -89 C 70.707031 -91.675781 71.1875 -94.140625 72.6875 -96.390625 C 74.1875 -98.648438 76.273438 -100.046875 78.953125 -100.578125 C 81.628906 -101.117188 84.085938 -100.640625 86.328125 -99.140625 C 88.578125 -97.640625 89.972656 -95.550781 90.515625 -92.875 C 91.054688 -90.195312 90.578125 -87.726562 89.078125 -85.46875 C 87.585938 -83.21875 85.503906 -81.820312 82.828125 -81.28125 C 80.148438 -80.75 77.6875 -81.234375 75.4375 -82.734375 C 73.1875 -84.234375 71.789062 -86.320312 71.25 -89 Z M 28.15625 -69.203125 C 25.632812 -71.554688 22.972656 -72.316406 20.171875 -71.484375 C 17.046875 -69.929688 15.773438 -67.953125 16.359375 -65.546875 L 26.578125 -14.671875 L 8.5 -11.046875 L -1.25 -59.515625 C -2.582031 -66.671875 -1.796875 -72.816406 1.109375 -77.953125 C 4.023438 -83.085938 9.265625 -86.46875 16.828125 -88.09375 C 24.929688 -89.800781 31.046875 -89.164062 35.171875 -86.1875 C 39.304688 -83.207031 42.242188 -80.828125 43.984375 -79.046875 L 113.3125 -23.921875 L 90.28125 -19.28125 Z M 28.15625 -69.203125 "/></g></g></g><g fill="#ffffff" fill-opacity="1"><g transform="translate(509.311491, 237.867071)"><g><path d="M -7.5 -80.953125 L 77.640625 -98.078125 L 81.25 -80.140625 L 51.140625 -74.078125 C 47.773438 -73.234375 45.082031 -71.347656 43.0625 -68.421875 C 40.96875 -65.492188 39.554688 -62.351562 38.828125 -59 C 38.109375 -55.644531 37.894531 -52.332031 38.1875 -49.0625 C 38.46875 -45.769531 39.304688 -42.632812 40.703125 -39.65625 C 42.097656 -36.6875 44.476562 -34.3125 47.84375 -32.53125 C 51.21875 -30.75 54.625 -30.117188 58.0625 -30.640625 L 81.890625 -35.421875 L 85.5 -17.46875 L 62.609375 -12.875 C 52.628906 -11.226562 44.738281 -12.125 38.9375 -15.5625 C 33.144531 -19 28.695312 -23.328125 25.59375 -28.546875 C 22.5 -33.773438 20.671875 -39.398438 20.109375 -45.421875 C 19.148438 -54.316406 20.519531 -61.601562 24.21875 -67.28125 C 24.570312 -67.8125 24.976562 -68.351562 25.4375 -68.90625 L -3.890625 -63.015625 Z M -7.5 -80.953125 "/></g></g></g><g fill="#ff5722" fill-opacity="0.9098"><g transform="translate(625.221525, 227.158585)"><g/></g></g><g fill="#ffffff" fill-opacity="1"><g transform="translate(610.665861, 217.478299)"><g/></g></g><g fill="#ff5722" fill-opacity="0.9098"><g transform="translate(151.818186, 436.269798)"><g/></g></g><g fill="#ff5722" fill-opacity="1"><g transform="translate(137.262522, 426.589513)"><g/></g></g><g fill="#ff5722" fill-opacity="0.9098"><g transform="translate(151.818186, 436.269798)"><g><path d="M 82.328125 -80.359375 L 20.203125 -67.859375 C 18.523438 -67.429688 17.191406 -66.769531 16.203125 -65.875 C 15.222656 -64.976562 14.550781 -64.050781 14.1875 -63.09375 C 13.820312 -62.132812 13.726562 -61.210938 13.90625 -60.328125 C 14.082031 -59.429688 14.523438 -58.613281 15.234375 -57.875 C 15.941406 -57.132812 16.921875 -56.539062 18.171875 -56.09375 C 19.429688 -55.65625 20.914062 -55.5625 22.625 -55.8125 L 60.640625 -63.453125 C 66.921875 -64.535156 72.363281 -64.125 76.96875 -62.21875 C 81.582031 -60.320312 85.113281 -57.78125 87.5625 -54.59375 C 90.019531 -51.414062 91.613281 -48 92.34375 -44.34375 C 93.0625 -40.769531 92.882812 -37.039062 91.8125 -33.15625 C 90.738281 -29.28125 88.460938 -25.578125 84.984375 -22.046875 C 81.515625 -18.515625 76.65625 -16.117188 70.40625 -14.859375 L 69.609375 -14.703125 C 69.097656 -14.503906 68.578125 -14.347656 68.046875 -14.234375 L 8.859375 -2.34375 L 5.25 -20.28125 L 67.640625 -32.828125 C 69.359375 -33.078125 70.703125 -33.671875 71.671875 -34.609375 C 72.640625 -35.554688 73.296875 -36.550781 73.640625 -37.59375 C 73.992188 -38.632812 74.070312 -39.644531 73.875 -40.625 C 73.75 -41.25 73.304688 -42.066406 72.546875 -43.078125 C 71.785156 -44.097656 70.773438 -44.847656 69.515625 -45.328125 C 68.253906 -45.816406 66.769531 -45.9375 65.0625 -45.6875 L 27.03125 -38.03125 C 20.75 -36.957031 15.304688 -37.347656 10.703125 -39.203125 C 6.109375 -41.066406 2.59375 -43.539062 0.15625 -46.625 C -2.269531 -49.707031 -3.84375 -53.035156 -4.5625 -56.609375 C -5.257812 -60.085938 -5.0625 -63.722656 -3.96875 -67.515625 C -2.875 -71.316406 -0.585938 -74.960938 2.890625 -78.453125 C 6.367188 -81.941406 11.207031 -84.394531 17.40625 -85.8125 L 18.21875 -85.984375 C 18.738281 -86.179688 19.269531 -86.332031 19.8125 -86.4375 L 78.71875 -98.296875 Z M 82.328125 -80.359375 "/></g></g></g><g fill="#ff5722" fill-opacity="0.9098"><g transform="translate(255.304255, 415.452207)"><g><path d="M 30.421875 14.078125 L 12.34375 17.703125 L -2.09375 -54.046875 C -2.507812 -56.554688 -1.988281 -58.816406 -0.53125 -60.828125 C 0.914062 -62.847656 2.890625 -64.113281 5.390625 -64.625 L 61.625 -75.9375 C 69.53125 -77.226562 75.835938 -76.554688 80.546875 -73.921875 C 85.253906 -71.296875 88.9375 -68 91.59375 -64.03125 C 94.25 -60.070312 96.023438 -55.863281 96.921875 -51.40625 C 97.859375 -46.757812 97.890625 -42.09375 97.015625 -37.40625 C 96.140625 -32.726562 94.019531 -28.257812 90.65625 -24 C 87.289062 -19.75 82.492188 -16.953125 76.265625 -15.609375 L 35.5625 -7.4375 L 31.953125 -25.390625 L 73.1875 -33.671875 C 74.882812 -34.015625 76.21875 -35 77.1875 -36.625 C 78.15625 -38.257812 78.742188 -40.050781 78.953125 -42 C 79.160156 -43.945312 79.085938 -45.816406 78.734375 -47.609375 C 78.359375 -49.472656 77.695312 -51.257812 76.75 -52.96875 C 75.800781 -54.6875 74.5625 -56.113281 73.03125 -57.25 C 71.507812 -58.382812 69.890625 -58.820312 68.171875 -58.5625 L 21.328125 -49.140625 C 19.023438 -48.585938 18.097656 -47.191406 18.546875 -44.953125 Z M 30.421875 14.078125 "/></g></g></g><g fill="#ff5722" fill-opacity="0.9098"><g transform="translate(365.082491, 393.368862)"><g><path d="M 36.109375 -7.53125 C 28.191406 -6.226562 21.878906 -6.890625 17.171875 -9.515625 C 12.460938 -12.148438 8.773438 -15.453125 6.109375 -19.421875 C 3.453125 -23.390625 1.675781 -27.609375 0.78125 -32.078125 C -0.144531 -36.710938 -0.175781 -41.367188 0.6875 -46.046875 C 1.550781 -50.722656 3.671875 -55.1875 7.046875 -59.4375 C 10.429688 -63.695312 15.238281 -66.5 21.46875 -67.84375 L 64.828125 -76.578125 C 71.097656 -77.734375 76.609375 -77 81.359375 -74.375 C 86.109375 -71.757812 89.789062 -68.460938 92.40625 -64.484375 C 95.019531 -60.503906 96.789062 -56.195312 97.71875 -51.5625 C 98.613281 -47.09375 98.609375 -42.515625 97.703125 -37.828125 C 96.796875 -33.148438 94.675781 -28.6875 91.34375 -24.4375 C 88.007812 -20.1875 82.445312 -17.140625 74.65625 -15.296875 Z M 24.53125 -49.796875 C 22.84375 -49.453125 21.507812 -48.457031 20.53125 -46.8125 C 19.5625 -45.175781 18.96875 -43.382812 18.75 -41.4375 C 18.539062 -39.5 18.617188 -37.632812 18.984375 -35.84375 C 19.359375 -33.976562 20.019531 -32.1875 20.96875 -30.46875 C 21.914062 -28.75 23.15625 -27.320312 24.6875 -26.1875 C 26.21875 -25.0625 27.835938 -24.632812 29.546875 -24.90625 L 73.984375 -33.84375 C 75.660156 -34.25 76.984375 -35.269531 77.953125 -36.90625 C 78.929688 -38.550781 79.523438 -40.347656 79.734375 -42.296875 C 79.953125 -44.242188 79.875 -46.148438 79.5 -48.015625 C 79.132812 -49.804688 78.476562 -51.554688 77.53125 -53.265625 C 76.582031 -54.984375 75.34375 -56.40625 73.8125 -57.53125 C 72.28125 -58.664062 70.664062 -59.066406 68.96875 -58.734375 Z M 24.53125 -49.796875 "/></g></g></g><g fill="#ff5722" fill-opacity="0.9098"><g transform="translate(475.39623, 371.177794)"><g><path d="M 30.703125 -89.046875 L 34.4375 -70.453125 L 87.453125 -81.125 L 91.0625 -63.171875 L 38.046875 -52.5 L 38.578125 -49.828125 C 39.234375 -46.148438 40.160156 -42.828125 41.359375 -39.859375 C 42.554688 -36.898438 44.507812 -34.4375 47.21875 -32.46875 C 49.9375 -30.507812 53.015625 -29.789062 56.453125 -30.3125 L 96.609375 -38.390625 L 100.21875 -20.4375 L 55.515625 -11.4375 C 49.191406 -10.539062 43.609375 -11.625 38.765625 -14.6875 C 33.921875 -17.757812 30.039062 -21.921875 27.125 -27.171875 C 24.300781 -32.460938 22.203125 -38.269531 20.828125 -44.59375 L 19.96875 -48.875 L -3.453125 -44.15625 L -7.0625 -62.109375 L 16.359375 -66.828125 L 12.625 -85.421875 Z M 30.703125 -89.046875 "/></g></g></g><g fill="#ff5722" fill-opacity="0.9098"><g transform="translate(579.81943, 350.171686)"><g><path d="M 14.203125 -66.515625 L 26.546875 -5.1875 L 8.46875 -1.5625 L -3.875 -62.890625 Z M -9.609375 -81.09375 C -10.117188 -83.59375 -9.484375 -85.945312 -7.703125 -88.15625 C -5.921875 -90.375 -3.515625 -91.789062 -0.484375 -92.40625 C 2.546875 -93.019531 5.3125 -92.644531 7.8125 -91.28125 C 10.320312 -89.925781 11.832031 -88 12.34375 -85.5 C 12.863281 -82.914062 12.226562 -80.515625 10.4375 -78.296875 C 8.65625 -76.078125 6.25 -74.660156 3.21875 -74.046875 C 0.1875 -73.429688 -2.578125 -73.804688 -5.078125 -75.171875 C -7.578125 -76.535156 -9.085938 -78.507812 -9.609375 -81.09375 Z M -9.609375 -81.09375 "/></g></g></g><g fill="#ff5722" fill-opacity="0.9098"><g transform="translate(614.627163, 343.16965)"><g><path d="M 66.984375 -96.359375 L 85.0625 -99.984375 L 99.265625 -29.296875 C 99.679688 -26.785156 99.164062 -24.523438 97.71875 -22.515625 C 96.269531 -20.503906 94.296875 -19.242188 91.796875 -18.734375 L 35.5625 -7.4375 C 27.644531 -6.125 21.332031 -6.78125 16.625 -9.40625 C 11.925781 -12.039062 8.25 -15.34375 5.59375 -19.3125 C 2.9375 -23.28125 1.160156 -27.5 0.265625 -31.96875 C -0.660156 -36.601562 -0.695312 -41.257812 0.15625 -45.9375 C 1.019531 -50.613281 3.140625 -55.078125 6.515625 -59.328125 C 9.890625 -63.585938 14.691406 -66.394531 20.921875 -67.75 L 61.625 -75.9375 L 65.234375 -57.984375 L 24 -49.6875 C 22.300781 -49.34375 20.96875 -48.351562 20 -46.71875 C 19.03125 -45.082031 18.4375 -43.289062 18.21875 -41.34375 C 18 -39.394531 18.070312 -37.523438 18.4375 -35.734375 C 18.8125 -33.867188 19.472656 -32.078125 20.421875 -30.359375 C 21.378906 -28.648438 22.617188 -27.226562 24.140625 -26.09375 C 25.671875 -24.957031 27.296875 -24.523438 29.015625 -24.796875 L 75.875 -34.21875 C 78.164062 -34.757812 79.085938 -36.148438 78.640625 -38.390625 Z M 66.984375 -96.359375 "/></g></g></g><g fill="#ff5722" fill-opacity="0.9098"><g transform="translate(724.405399, 321.086306)"><g><path d="M 35.828125 -7.484375 C 27.910156 -6.171875 21.601562 -6.828125 16.90625 -9.453125 C 12.207031 -12.085938 8.523438 -15.390625 5.859375 -19.359375 C 3.191406 -23.328125 1.410156 -27.546875 0.515625 -32.015625 C -0.410156 -36.648438 -0.441406 -41.304688 0.421875 -45.984375 C 1.296875 -50.660156 3.414062 -55.125 6.78125 -59.375 C 10.15625 -63.632812 14.957031 -66.441406 21.1875 -67.796875 L 79.03125 -79.4375 L 82.453125 -62.421875 L 25.421875 -50.9375 C 23.453125 -50.539062 21.863281 -49.523438 20.65625 -47.890625 C 19.457031 -46.253906 18.738281 -44.300781 18.5 -42.03125 C 18.257812 -39.757812 18.347656 -37.597656 18.765625 -35.546875 C 19.210938 -33.304688 19.984375 -31.179688 21.078125 -29.171875 C 22.179688 -27.160156 23.597656 -25.65625 25.328125 -24.65625 C 27.066406 -23.65625 28.925781 -23.316406 30.90625 -23.640625 L 87.9375 -35.125 L 91.265625 -18.640625 Z M 86.328125 -43.140625 L 29.15625 -31.640625 L 26.703125 -43.828125 L 83.875 -55.328125 Z M 86.328125 -43.140625 "/></g></g></g><g fill="#ffffff" fill-opacity="1"><g transform="translate(137.262522, 426.589513)"><g><path d="M 82.328125 -80.359375 L 20.203125 -67.859375 C 18.523438 -67.429688 17.191406 -66.769531 16.203125 -65.875 C 15.222656 -64.976562 14.550781 -64.050781 14.1875 -63.09375 C 13.820312 -62.132812 13.726562 -61.210938 13.90625 -60.328125 C 14.082031 -59.429688 14.523438 -58.613281 15.234375 -57.875 C 15.941406 -57.132812 16.921875 -56.539062 18.171875 -56.09375 C 19.429688 -55.65625 20.914062 -55.5625 22.625 -55.8125 L 60.640625 -63.453125 C 66.921875 -64.535156 72.363281 -64.125 76.96875 -62.21875 C 81.582031 -60.320312 85.113281 -57.78125 87.5625 -54.59375 C 90.019531 -51.414062 91.613281 -48 92.34375 -44.34375 C 93.0625 -40.769531 92.882812 -37.039062 91.8125 -33.15625 C 90.738281 -29.28125 88.460938 -25.578125 84.984375 -22.046875 C 81.515625 -18.515625 76.65625 -16.117188 70.40625 -14.859375 L 69.609375 -14.703125 C 69.097656 -14.503906 68.578125 -14.347656 68.046875 -14.234375 L 8.859375 -2.34375 L 5.25 -20.28125 L 67.640625 -32.828125 C 69.359375 -33.078125 70.703125 -33.671875 71.671875 -34.609375 C 72.640625 -35.554688 73.296875 -36.550781 73.640625 -37.59375 C 73.992188 -38.632812 74.070312 -39.644531 73.875 -40.625 C 73.75 -41.25 73.304688 -42.066406 72.546875 -43.078125 C 71.785156 -44.097656 70.773438 -44.847656 69.515625 -45.328125 C 68.253906 -45.816406 66.769531 -45.9375 65.0625 -45.6875 L 27.03125 -38.03125 C 20.75 -36.957031 15.304688 -37.347656 10.703125 -39.203125 C 6.109375 -41.066406 2.59375 -43.539062 0.15625 -46.625 C -2.269531 -49.707031 -3.84375 -53.035156 -4.5625 -56.609375 C -5.257812 -60.085938 -5.0625 -63.722656 -3.96875 -67.515625 C -2.875 -71.316406 -0.585938 -74.960938 2.890625 -78.453125 C 6.367188 -81.941406 11.207031 -84.394531 17.40625 -85.8125 L 18.21875 -85.984375 C 18.738281 -86.179688 19.269531 -86.332031 19.8125 -86.4375 L 78.71875 -98.296875 Z M 82.328125 -80.359375 "/></g></g></g><g fill="#ffffff" fill-opacity="1"><g transform="translate(240.748591, 405.771921)"><g><path d="M 30.421875 14.078125 L 12.34375 17.703125 L -2.09375 -54.046875 C -2.507812 -56.554688 -1.988281 -58.816406 -0.53125 -60.828125 C 0.914062 -62.847656 2.890625 -64.113281 5.390625 -64.625 L 61.625 -75.9375 C 69.53125 -77.226562 75.835938 -76.554688 80.546875 -73.921875 C 85.253906 -71.296875 88.9375 -68 91.59375 -64.03125 C 94.25 -60.070312 96.023438 -55.863281 96.921875 -51.40625 C 97.859375 -46.757812 97.890625 -42.09375 97.015625 -37.40625 C 96.140625 -32.726562 94.019531 -28.257812 90.65625 -24 C 87.289062 -19.75 82.492188 -16.953125 76.265625 -15.609375 L 35.5625 -7.4375 L 31.953125 -25.390625 L 73.1875 -33.671875 C 74.882812 -34.015625 76.21875 -35 77.1875 -36.625 C 78.15625 -38.257812 78.742188 -40.050781 78.953125 -42 C 79.160156 -43.945312 79.085938 -45.816406 78.734375 -47.609375 C 78.359375 -49.472656 77.695312 -51.257812 76.75 -52.96875 C 75.800781 -54.6875 74.5625 -56.113281 73.03125 -57.25 C 71.507812 -58.382812 69.890625 -58.820312 68.171875 -58.5625 L 21.328125 -49.140625 C 19.023438 -48.585938 18.097656 -47.191406 18.546875 -44.953125 Z M 30.421875 14.078125 "/></g></g></g><g fill="#ffffff" fill-opacity="1"><g transform="translate(350.526827, 383.688577)"><g><path d="M 36.109375 -7.53125 C 28.191406 -6.226562 21.878906 -6.890625 17.171875 -9.515625 C 12.460938 -12.148438 8.773438 -15.453125 6.109375 -19.421875 C 3.453125 -23.390625 1.675781 -27.609375 0.78125 -32.078125 C -0.144531 -36.710938 -0.175781 -41.367188 0.6875 -46.046875 C 1.550781 -50.722656 3.671875 -55.1875 7.046875 -59.4375 C 10.429688 -63.695312 15.238281 -66.5 21.46875 -67.84375 L 64.828125 -76.578125 C 71.097656 -77.734375 76.609375 -77 81.359375 -74.375 C 86.109375 -71.757812 89.789062 -68.460938 92.40625 -64.484375 C 95.019531 -60.503906 96.789062 -56.195312 97.71875 -51.5625 C 98.613281 -47.09375 98.609375 -42.515625 97.703125 -37.828125 C 96.796875 -33.148438 94.675781 -28.6875 91.34375 -24.4375 C 88.007812 -20.1875 82.445312 -17.140625 74.65625 -15.296875 Z M 24.53125 -49.796875 C 22.84375 -49.453125 21.507812 -48.457031 20.53125 -46.8125 C 19.5625 -45.175781 18.96875 -43.382812 18.75 -41.4375 C 18.539062 -39.5 18.617188 -37.632812 18.984375 -35.84375 C 19.359375 -33.976562 20.019531 -32.1875 20.96875 -30.46875 C 21.914062 -28.75 23.15625 -27.320312 24.6875 -26.1875 C 26.21875 -25.0625 27.835938 -24.632812 29.546875 -24.90625 L 73.984375 -33.84375 C 75.660156 -34.25 76.984375 -35.269531 77.953125 -36.90625 C 78.929688 -38.550781 79.523438 -40.347656 79.734375 -42.296875 C 79.953125 -44.242188 79.875 -46.148438 79.5 -48.015625 C 79.132812 -49.804688 78.476562 -51.554688 77.53125 -53.265625 C 76.582031 -54.984375 75.34375 -56.40625 73.8125 -57.53125 C 72.28125 -58.664062 70.664062 -59.066406 68.96875 -58.734375 Z M 24.53125 -49.796875 "/></g></g></g><g fill="#ffffff" fill-opacity="1"><g transform="translate(460.840566, 361.497508)"><g><path d="M 30.703125 -89.046875 L 34.4375 -70.453125 L 87.453125 -81.125 L 91.0625 -63.171875 L 38.046875 -52.5 L 38.578125 -49.828125 C 39.234375 -46.148438 40.160156 -42.828125 41.359375 -39.859375 C 42.554688 -36.898438 44.507812 -34.4375 47.21875 -32.46875 C 49.9375 -30.507812 53.015625 -29.789062 56.453125 -30.3125 L 96.609375 -38.390625 L 100.21875 -20.4375 L 55.515625 -11.4375 C 49.191406 -10.539062 43.609375 -11.625 38.765625 -14.6875 C 33.921875 -17.757812 30.039062 -21.921875 27.125 -27.171875 C 24.300781 -32.460938 22.203125 -38.269531 20.828125 -44.59375 L 19.96875 -48.875 L -3.453125 -44.15625 L -7.0625 -62.109375 L 16.359375 -66.828125 L 12.625 -85.421875 Z M 30.703125 -89.046875 "/></g></g></g><g fill="#ffffff" fill-opacity="1"><g transform="translate(565.263766, 340.4914)"><g><path d="M 14.203125 -66.515625 L 26.546875 -5.1875 L 8.46875 -1.5625 L -3.875 -62.890625 Z M -9.609375 -81.09375 C -10.117188 -83.59375 -9.484375 -85.945312 -7.703125 -88.15625 C -5.921875 -90.375 -3.515625 -91.789062 -0.484375 -92.40625 C 2.546875 -93.019531 5.3125 -92.644531 7.8125 -91.28125 C 10.320312 -89.925781 11.832031 -88 12.34375 -85.5 C 12.863281 -82.914062 12.226562 -80.515625 10.4375 -78.296875 C 8.65625 -76.078125 6.25 -74.660156 3.21875 -74.046875 C 0.1875 -73.429688 -2.578125 -73.804688 -5.078125 -75.171875 C -7.578125 -76.535156 -9.085938 -78.507812 -9.609375 -81.09375 Z M -9.609375 -81.09375 "/></g></g></g><g fill="#ffffff" fill-opacity="1"><g transform="translate(600.071499, 333.489364)"><g><path d="M 66.984375 -96.359375 L 85.0625 -99.984375 L 99.265625 -29.296875 C 99.679688 -26.785156 99.164062 -24.523438 97.71875 -22.515625 C 96.269531 -20.503906 94.296875 -19.242188 91.796875 -18.734375 L 35.5625 -7.4375 C 27.644531 -6.125 21.332031 -6.78125 16.625 -9.40625 C 11.925781 -12.039062 8.25 -15.34375 5.59375 -19.3125 C 2.9375 -23.28125 1.160156 -27.5 0.265625 -31.96875 C -0.660156 -36.601562 -0.695312 -41.257812 0.15625 -45.9375 C 1.019531 -50.613281 3.140625 -55.078125 6.515625 -59.328125 C 9.890625 -63.585938 14.691406 -66.394531 20.921875 -67.75 L 61.625 -75.9375 L 65.234375 -57.984375 L 24 -49.6875 C 22.300781 -49.34375 20.96875 -48.351562 20 -46.71875 C 19.03125 -45.082031 18.4375 -43.289062 18.21875 -41.34375 C 18 -39.394531 18.070312 -37.523438 18.4375 -35.734375 C 18.8125 -33.867188 19.472656 -32.078125 20.421875 -30.359375 C 21.378906 -28.648438 22.617188 -27.226562 24.140625 -26.09375 C 25.671875 -24.957031 27.296875 -24.523438 29.015625 -24.796875 L 75.875 -34.21875 C 78.164062 -34.757812 79.085938 -36.148438 78.640625 -38.390625 Z M 66.984375 -96.359375 "/></g></g></g><g fill="#ffffff" fill-opacity="1"><g transform="translate(709.849735, 311.40602)"><g><path d="M 35.828125 -7.484375 C 27.910156 -6.171875 21.601562 -6.828125 16.90625 -9.453125 C 12.207031 -12.085938 8.523438 -15.390625 5.859375 -19.359375 C 3.191406 -23.328125 1.410156 -27.546875 0.515625 -32.015625 C -0.410156 -36.648438 -0.441406 -41.304688 0.421875 -45.984375 C 1.296875 -50.660156 3.414062 -55.125 6.78125 -59.375 C 10.15625 -63.632812 14.957031 -66.441406 21.1875 -67.796875 L 79.03125 -79.4375 L 82.453125 -62.421875 L 25.421875 -50.9375 C 23.453125 -50.539062 21.863281 -49.523438 20.65625 -47.890625 C 19.457031 -46.253906 18.738281 -44.300781 18.5 -42.03125 C 18.257812 -39.757812 18.347656 -37.597656 18.765625 -35.546875 C 19.210938 -33.304688 19.984375 -31.179688 21.078125 -29.171875 C 22.179688 -27.160156 23.597656 -25.65625 25.328125 -24.65625 C 27.066406 -23.65625 28.925781 -23.316406 30.90625 -23.640625 L 87.9375 -35.125 L 91.265625 -18.640625 Z M 86.328125 -43.140625 L 29.15625 -31.640625 L 26.703125 -43.828125 L 83.875 -55.328125 Z M 86.328125 -43.140625 "/></g></g></g><g fill="#ff5722" fill-opacity="0.9098"><g transform="translate(822.272987, 301.398946)"><g/></g></g><g fill="#ffffff" fill-opacity="1"><g transform="translate(807.717323, 291.71866)"><g/></g></g></svg>