<svg xmlns="http://www.w3.org/2000/svg" xmlns:xlink="http://www.w3.org/1999/xlink" width="1064" zoomAndPan="magnify" viewBox="0 0 798 245.249991" height="327" preserveAspectRatio="xMidYMid meet" version="1.0"><defs><g/></defs><g fill="#ffffff" fill-opacity="1"><g transform="translate(89.860652, 203.102213)"><g><path d="M 17.53125 -36.03125 L 17.09375 -38.21875 L 6.6875 -36.125 L 7.125 -33.9375 Z M 18.765625 -29.890625 L 18.328125 -32.0625 L 7.921875 -29.96875 L 8.359375 -27.796875 Z M 19.578125 -25.875 L 9.171875 -23.78125 L 9.609375 -21.59375 L 20.015625 -23.6875 Z M 49.296875 -12.5625 L 48.578125 -6.484375 C 40.609375 -7.035156 34 -8.101562 28.75 -9.6875 L 30.375 -1.578125 L 23.375 -0.171875 L 21.75 -8.28125 C 17.519531 -4.789062 11.835938 -1.25 4.703125 2.34375 L 1.671875 -2.984375 C 8.304688 -5.867188 13.738281 -8.71875 17.96875 -11.53125 L 1.625 -8.25 L 0.625 -13.234375 L 19.96875 -17.125 L 19.5625 -19.109375 L 3.859375 -15.953125 L 1.734375 -26.5625 L -3.9375 -28 C -1.757812 -33.269531 -0.34375 -38.664062 0.3125 -44.1875 L 6.765625 -44.46875 C 6.703125 -43.300781 6.59375 -42.242188 6.4375 -41.296875 L 16.890625 -43.40625 C 17.203125 -45.1875 17.398438 -46.597656 17.484375 -47.640625 L 24.21875 -48.296875 C 24.125 -47.191406 23.988281 -46.023438 23.8125 -44.796875 L 38.640625 -47.78125 L 39.65625 -42.75 L 24.015625 -39.609375 L 24.453125 -37.421875 L 38.609375 -40.265625 L 39.40625 -36.296875 L 25.25 -33.453125 L 25.6875 -31.28125 L 39.84375 -34.125 L 40.65625 -30.109375 L 26.5 -27.265625 L 26.9375 -25.078125 L 42.578125 -28.21875 L 43.4375 -23.90625 L 26.5625 -20.515625 L 26.96875 -18.53125 L 45.8125 -22.3125 L 46.8125 -17.328125 L 30.96875 -14.140625 C 35.945312 -13.179688 42.054688 -12.65625 49.296875 -12.5625 Z M 49.296875 -12.5625 "/></g></g></g><g fill="#ffffff" fill-opacity="1"><g transform="translate(141.859882, 192.64188)"><g><path d="M 12.984375 -34.671875 L 14.421875 -27.53125 L 19.3125 -28.515625 L 18.734375 -35.625 L 24.875 -36.875 L 25.453125 -29.75 L 25.96875 -29.859375 C 26.125 -29.890625 26.296875 -29.90625 26.484375 -29.90625 L 26.796875 -29.96875 C 28.898438 -30.3125 30.769531 -29.910156 32.40625 -28.765625 C 34.050781 -27.617188 35.351562 -26.195312 36.3125 -24.5 C 37.269531 -22.8125 37.941406 -21.003906 38.328125 -19.078125 C 38.722656 -17.117188 38.816406 -15.164062 38.609375 -13.21875 C 38.398438 -11.269531 37.75 -9.453125 36.65625 -7.765625 C 35.570312 -6.078125 33.976562 -5.046875 31.875 -4.671875 L 27.703125 -3.828125 L 26.328125 -10.671875 L 30.734375 -11.5625 C 31.242188 -11.664062 31.613281 -12.125 31.84375 -12.9375 C 32.070312 -13.757812 32.195312 -14.582031 32.21875 -15.40625 C 32.25 -16.226562 32.179688 -17.0625 32.015625 -17.90625 C 31.859375 -18.6875 31.597656 -19.476562 31.234375 -20.28125 C 30.878906 -21.082031 30.445312 -21.785156 29.9375 -22.390625 C 29.425781 -22.992188 28.914062 -23.257812 28.40625 -23.1875 L 25.921875 -22.6875 L 26.03125 -20.546875 C 26.207031 -18.085938 26.109375 -15.710938 25.734375 -13.421875 C 25.316406 -11.109375 24.476562 -9.0625 23.21875 -7.28125 C 21.957031 -5.5 20.476562 -4.367188 18.78125 -3.890625 L 11.96875 -2.515625 C 9.875 -2.054688 8.003906 -2.347656 6.359375 -3.390625 C 4.722656 -4.441406 3.445312 -5.753906 2.53125 -7.328125 C 1.625 -8.898438 0.988281 -10.601562 0.625 -12.4375 C 0.269531 -14.195312 0.21875 -15.984375 0.46875 -17.796875 C 0.71875 -19.609375 1.382812 -21.3125 2.46875 -22.90625 C 3.5625 -24.5 5.148438 -25.539062 7.234375 -26.03125 L 7.53125 -26.09375 C 7.695312 -26.164062 7.863281 -26.21875 8.03125 -26.25 L 8.234375 -26.28125 L 6.796875 -33.421875 Z M 8.359375 -19.15625 C 7.847656 -19.019531 7.46875 -18.613281 7.21875 -17.9375 C 6.96875 -17.257812 6.816406 -16.5625 6.765625 -15.84375 C 6.722656 -15.125 6.769531 -14.429688 6.90625 -13.765625 C 7.050781 -13.046875 7.28125 -12.367188 7.59375 -11.734375 C 7.914062 -11.097656 8.320312 -10.507812 8.8125 -9.96875 C 9.3125 -9.425781 9.816406 -9.207031 10.328125 -9.3125 L 11.59375 -9.5625 L 9.625 -19.40625 Z M 19.03125 -12.546875 C 19.488281 -13.585938 19.757812 -14.722656 19.84375 -15.953125 C 19.9375 -17.191406 19.929688 -18.519531 19.828125 -19.9375 L 19.734375 -21.453125 L 15.8125 -20.65625 L 17.75 -11.015625 C 18.3125 -11.378906 18.738281 -11.890625 19.03125 -12.546875 Z M 19.03125 -12.546875 "/></g></g></g><g fill="#ffffff" fill-opacity="1"><g transform="translate(185.124866, 183.938556)"><g><path d="M 0.203125 -31.3125 L 24.0625 -36.125 C 25.019531 -36.3125 25.882812 -36.21875 26.65625 -35.84375 C 27.40625 -35.425781 27.859375 -34.847656 28.015625 -34.109375 C 28.109375 -33.640625 28.066406 -33.175781 27.890625 -32.71875 L 22.25 -26.515625 L 23.71875 -26.8125 C 23.925781 -26.851562 24.132812 -26.875 24.34375 -26.875 L 24.640625 -26.9375 C 26.347656 -27.21875 28.078125 -26.957031 29.828125 -26.15625 C 31.578125 -25.363281 32.929688 -24.328125 33.890625 -23.046875 C 34.847656 -21.765625 35.46875 -20.40625 35.75 -18.96875 C 36.144531 -17.039062 36.15625 -15.304688 35.78125 -13.765625 C 35.40625 -12.234375 34.578125 -10.644531 33.296875 -9 C 32.023438 -7.351562 30.210938 -6.238281 27.859375 -5.65625 L 12.84375 -2.625 C 12.738281 -2.601562 12.546875 -2.585938 12.265625 -2.578125 C 10.546875 -2.234375 8.96875 -2.300781 7.53125 -2.78125 C 6.09375 -3.269531 5.015625 -3.929688 4.296875 -4.765625 C 3.578125 -5.609375 3.132812 -6.457031 2.96875 -7.3125 C 2.789062 -8.1875 2.851562 -9.175781 3.15625 -10.28125 C 3.46875 -11.382812 4.238281 -12.421875 5.46875 -13.390625 C 6.707031 -14.367188 8.125 -14.976562 9.71875 -15.21875 L 15.265625 -16.34375 C 18.328125 -16.8125 20.734375 -16.320312 22.484375 -14.875 C 23.722656 -13.789062 24.65625 -12.46875 25.28125 -10.90625 L 27.0625 -11.265625 C 27.707031 -11.390625 28.1875 -11.753906 28.5 -12.359375 C 28.820312 -12.972656 29.015625 -13.644531 29.078125 -14.375 C 29.140625 -15.113281 29.0625 -16.03125 28.84375 -17.125 C 28.71875 -17.757812 28.484375 -18.398438 28.140625 -19.046875 C 27.796875 -19.703125 27.359375 -20.238281 26.828125 -20.65625 C 26.304688 -21.082031 25.722656 -21.234375 25.078125 -21.109375 L -0.109375 -16.046875 L -1.265625 -21.796875 L 13.15625 -24.6875 L 16.96875 -29.078125 L 1.28125 -25.921875 Z M 16.21875 -11.8125 L 10.9375 -10.75 C 10.570312 -10.707031 10.273438 -10.585938 10.046875 -10.390625 C 9.816406 -10.191406 9.664062 -9.960938 9.59375 -9.703125 C 9.519531 -9.441406 9.492188 -9.257812 9.515625 -9.15625 C 9.554688 -8.945312 9.65625 -8.757812 9.8125 -8.59375 C 9.976562 -8.4375 10.203125 -8.300781 10.484375 -8.1875 C 10.773438 -8.070312 11.101562 -8.050781 11.46875 -8.125 L 19.5 -9.734375 C 18.675781 -11.328125 17.582031 -12.019531 16.21875 -11.8125 Z M 16.21875 -11.8125 "/></g></g></g><g fill="#ffffff" fill-opacity="1"><g transform="translate(225.698484, 175.776636)"><g><path d="M 1.46875 -7.90625 L 5.734375 -13.3125 C 9.617188 -10.457031 13.710938 -7.242188 18.015625 -3.671875 L 13.4375 1.359375 C 9.65625 -1.859375 5.664062 -4.945312 1.46875 -7.90625 Z M 1.46875 -7.90625 "/></g></g></g><g fill="#ffffff" fill-opacity="1"><g transform="translate(277.697714, 165.316303)"><g><path d="M -2.640625 -30.75 L 17.765625 -34.859375 L 19.140625 -28.046875 L -1.265625 -23.9375 Z M -0.515625 -20.1875 L 18.46875 -24 L 19.84375 -17.203125 L 0.859375 -13.390625 Z M 31.84375 -37.625 L 32.78125 -21.90625 C 32.9375 -19.445312 32.769531 -17.054688 32.28125 -14.734375 C 31.71875 -12.398438 30.710938 -10.320312 29.265625 -8.5 C 27.828125 -6.6875 25.941406 -5.472656 23.609375 -4.859375 L 11.40625 -2.40625 L 10.03125 -9.203125 L 21.421875 -11.5 C 22.691406 -11.820312 23.71875 -12.535156 24.5 -13.640625 C 25.28125 -14.753906 25.738281 -15.929688 25.875 -17.171875 C 26.007812 -18.410156 26.023438 -19.738281 25.921875 -21.15625 L 25 -36.25 Z M 31.84375 -37.625 "/></g></g></g><g fill="#ffffff" fill-opacity="1"><g transform="translate(318.322113, 157.144168)"><g><path d="M 2.140625 -6.140625 L 12.203125 -8.15625 L 9.578125 -21.25 L -0.484375 -19.234375 L -1.578125 -24.671875 L 24.015625 -29.8125 L 25.109375 -24.375 L 15.0625 -22.359375 L 17.6875 -9.265625 L 27.734375 -11.28125 L 28.828125 -5.84375 L 3.234375 -0.703125 Z M 2.140625 -6.140625 "/></g></g></g><g fill="#ffffff" fill-opacity="1"><g transform="translate(350.364607, 150.698396)"><g><path d="M -2.453125 -30.78125 L 21.734375 -35.65625 C 21.929688 -35.6875 22.140625 -35.703125 22.359375 -35.703125 L 22.65625 -35.765625 C 25.039062 -36.191406 27.113281 -35.953125 28.875 -35.046875 C 30.644531 -34.148438 32.019531 -33.007812 33 -31.625 C 33.976562 -30.238281 34.625 -28.765625 34.9375 -27.203125 C 35.269531 -25.578125 35.257812 -23.9375 34.90625 -22.28125 C 34.550781 -20.632812 33.722656 -19.054688 32.421875 -17.546875 C 31.128906 -16.035156 29.289062 -15.054688 26.90625 -14.609375 L 21.21875 -13.46875 L 19.859375 -20.265625 L 25.859375 -21.46875 C 26.503906 -21.601562 26.992188 -21.921875 27.328125 -22.421875 C 27.660156 -22.929688 27.875 -23.484375 27.96875 -24.078125 C 28.0625 -24.679688 28.050781 -25.273438 27.9375 -25.859375 C 27.820312 -26.398438 27.609375 -26.925781 27.296875 -27.4375 C 26.984375 -27.957031 26.570312 -28.382812 26.0625 -28.71875 C 25.550781 -29.0625 24.972656 -29.179688 24.328125 -29.078125 L -1.078125 -23.96875 Z M 17.59375 -24.40625 L 17.953125 -18.921875 C 18.109375 -16.460938 17.941406 -14.070312 17.453125 -11.75 C 16.890625 -9.414062 15.882812 -7.335938 14.4375 -5.515625 C 13 -3.703125 11.113281 -2.488281 8.78125 -1.875 L 3.890625 -0.890625 L 2.515625 -7.6875 L 6.59375 -8.515625 C 7.863281 -8.847656 8.882812 -9.566406 9.65625 -10.671875 C 10.4375 -11.773438 10.894531 -12.945312 11.03125 -14.1875 C 11.164062 -15.425781 11.1875 -16.753906 11.09375 -18.171875 L 10.75 -23.03125 Z M 17.59375 -24.40625 "/></g></g></g><g fill="#ffffff" fill-opacity="1"><g transform="translate(392.613982, 142.199375)"><g><path d="M -2.109375 -29.0625 L 20.046875 -33.53125 L 19.5 -36.265625 L 26.359375 -37.640625 L 26.90625 -34.90625 L 32.75 -36.078125 L 34.015625 -29.828125 L 28.171875 -28.65625 L 32.59375 -6.609375 L 25.734375 -5.234375 L 24.96875 -9.09375 C 23.914062 -8.144531 22.617188 -7.472656 21.078125 -7.078125 L 16.828125 -6.234375 C 13.816406 -5.734375 11.453125 -5.820312 9.734375 -6.5 C 8.015625 -7.175781 6.6875 -8.082031 5.75 -9.21875 C 4.820312 -10.351562 4.226562 -11.5625 3.96875 -12.84375 C 3.695312 -14.207031 3.757812 -15.578125 4.15625 -16.953125 C 4.5625 -18.335938 5.4375 -19.679688 6.78125 -20.984375 C 8.125 -22.296875 9.976562 -23.210938 12.34375 -23.734375 L 18.4375 -24.953125 C 19.59375 -25.191406 20.726562 -25.085938 21.84375 -24.640625 L 21.3125 -27.28125 L -0.84375 -22.8125 Z M 13.3125 -17.84375 C 12.664062 -17.71875 12.140625 -17.445312 11.734375 -17.03125 C 11.328125 -16.613281 11.054688 -16.148438 10.921875 -15.640625 C 10.796875 -15.140625 10.78125 -14.671875 10.875 -14.234375 C 10.957031 -13.828125 11.148438 -13.414062 11.453125 -13 C 11.765625 -12.59375 12.191406 -12.265625 12.734375 -12.015625 C 13.285156 -11.773438 13.882812 -11.71875 14.53125 -11.84375 L 21.03125 -13.15625 C 21.675781 -13.28125 22.195312 -13.5625 22.59375 -14 C 23 -14.445312 23.269531 -14.925781 23.40625 -15.4375 C 23.457031 -15.726562 23.492188 -16.003906 23.515625 -16.265625 L 23.3125 -17.265625 C 23.1875 -17.523438 23.039062 -17.789062 22.875 -18.0625 C 22.5625 -18.476562 22.132812 -18.796875 21.59375 -19.015625 C 21.050781 -19.234375 20.457031 -19.28125 19.8125 -19.15625 Z M 13.3125 -17.84375 "/></g></g></g><g fill="#ffffff" fill-opacity="1"><g transform="translate(434.558673, 133.761646)"><g><path d="M 0.203125 -31.3125 L 24.0625 -36.125 C 25.019531 -36.3125 25.882812 -36.21875 26.65625 -35.84375 C 27.40625 -35.425781 27.859375 -34.847656 28.015625 -34.109375 C 28.109375 -33.640625 28.066406 -33.175781 27.890625 -32.71875 L 22.25 -26.515625 L 23.71875 -26.8125 C 23.925781 -26.851562 24.132812 -26.875 24.34375 -26.875 L 24.640625 -26.9375 C 26.347656 -27.21875 28.078125 -26.957031 29.828125 -26.15625 C 31.578125 -25.363281 32.929688 -24.328125 33.890625 -23.046875 C 34.847656 -21.765625 35.46875 -20.40625 35.75 -18.96875 C 36.144531 -17.039062 36.15625 -15.304688 35.78125 -13.765625 C 35.40625 -12.234375 34.578125 -10.644531 33.296875 -9 C 32.023438 -7.351562 30.210938 -6.238281 27.859375 -5.65625 L 12.84375 -2.625 C 12.738281 -2.601562 12.546875 -2.585938 12.265625 -2.578125 C 10.546875 -2.234375 8.96875 -2.300781 7.53125 -2.78125 C 6.09375 -3.269531 5.015625 -3.929688 4.296875 -4.765625 C 3.578125 -5.609375 3.132812 -6.457031 2.96875 -7.3125 C 2.789062 -8.1875 2.851562 -9.175781 3.15625 -10.28125 C 3.46875 -11.382812 4.238281 -12.421875 5.46875 -13.390625 C 6.707031 -14.367188 8.125 -14.976562 9.71875 -15.21875 L 15.265625 -16.34375 C 18.328125 -16.8125 20.734375 -16.320312 22.484375 -14.875 C 23.722656 -13.789062 24.65625 -12.46875 25.28125 -10.90625 L 27.0625 -11.265625 C 27.707031 -11.390625 28.1875 -11.753906 28.5 -12.359375 C 28.820312 -12.972656 29.015625 -13.644531 29.078125 -14.375 C 29.140625 -15.113281 29.0625 -16.03125 28.84375 -17.125 C 28.71875 -17.757812 28.484375 -18.398438 28.140625 -19.046875 C 27.796875 -19.703125 27.359375 -20.238281 26.828125 -20.65625 C 26.304688 -21.082031 25.722656 -21.234375 25.078125 -21.109375 L -0.109375 -16.046875 L -1.265625 -21.796875 L 13.15625 -24.6875 L 16.96875 -29.078125 L 1.28125 -25.921875 Z M 16.21875 -11.8125 L 10.9375 -10.75 C 10.570312 -10.707031 10.273438 -10.585938 10.046875 -10.390625 C 9.816406 -10.191406 9.664062 -9.960938 9.59375 -9.703125 C 9.519531 -9.441406 9.492188 -9.257812 9.515625 -9.15625 C 9.554688 -8.945312 9.65625 -8.757812 9.8125 -8.59375 C 9.976562 -8.4375 10.203125 -8.300781 10.484375 -8.1875 C 10.773438 -8.070312 11.101562 -8.050781 11.46875 -8.125 L 19.5 -9.734375 C 18.675781 -11.328125 17.582031 -12.019531 16.21875 -11.8125 Z M 16.21875 -11.8125 "/></g></g></g><g fill="#ffffff" fill-opacity="1"><g transform="translate(475.132291, 125.599726)"><g><path d="M 1.46875 -7.90625 L 5.734375 -13.3125 C 9.617188 -10.457031 13.710938 -7.242188 18.015625 -3.671875 L 13.4375 1.359375 C 9.65625 -1.859375 5.664062 -4.945312 1.46875 -7.90625 Z M 1.46875 -7.90625 "/></g></g></g><g fill="#ffffff" fill-opacity="1"><g transform="translate(527.131521, 115.139393)"><g><path d="M 29.515625 -37.15625 L 31.515625 -27.21875 L 37.046875 -28.328125 L 35.046875 -38.265625 Z M -3.59375 -37.796875 L -0.75 -43.078125 C 2.78125 -41.503906 6.066406 -39.800781 9.109375 -37.96875 L 6.296875 -32.546875 C 3.128906 -34.441406 -0.164062 -36.191406 -3.59375 -37.796875 Z M 7.390625 -20.203125 C 3.984375 -22.296875 0.332031 -24.269531 -3.5625 -26.125 L -0.71875 -31.390625 C 3.195312 -29.648438 6.859375 -27.734375 10.265625 -25.640625 Z M 13.296875 -16.40625 C 12.796875 -9.582031 11.410156 -3.316406 9.140625 2.390625 L 3.0625 0.015625 C 5.09375 -5.179688 6.515625 -11.015625 7.328125 -17.484375 Z M 20.359375 -47.953125 L 27.0625 -49.3125 L 28.34375 -42.953125 L 40.28125 -45.34375 L 43.453125 -29.609375 L 46.15625 -30.15625 L 47.28125 -24.5625 L 33.5 -21.796875 C 36.269531 -16.921875 41.894531 -13.457031 50.375 -11.40625 L 48.25 -5.171875 C 44.851562 -5.960938 41.640625 -7.273438 38.609375 -9.109375 C 35.585938 -10.953125 32.992188 -13.128906 30.828125 -15.640625 C 29.816406 -12.421875 28.21875 -9.359375 26.03125 -6.453125 C 23.851562 -3.546875 21.257812 -1.109375 18.25 0.859375 L 13.65625 -4.015625 C 17.382812 -6.492188 20.191406 -9.039062 22.078125 -11.65625 C 23.960938 -14.269531 25.03125 -17.097656 25.28125 -20.140625 L 12.421875 -17.546875 L 11.296875 -23.140625 L 24.8125 -25.859375 L 22.8125 -35.796875 L 11.796875 -33.59375 L 10.625 -39.390625 L 21.640625 -41.59375 Z M 20.359375 -47.953125 "/></g></g></g><g fill="#ffffff" fill-opacity="1"><g transform="translate(579.130751, 104.67906)"><g><path d="M 12.984375 -34.671875 L 14.421875 -27.53125 L 19.3125 -28.515625 L 18.734375 -35.625 L 24.875 -36.875 L 25.453125 -29.75 L 25.96875 -29.859375 C 26.125 -29.890625 26.296875 -29.90625 26.484375 -29.90625 L 26.796875 -29.96875 C 28.898438 -30.3125 30.769531 -29.910156 32.40625 -28.765625 C 34.050781 -27.617188 35.351562 -26.195312 36.3125 -24.5 C 37.269531 -22.8125 37.941406 -21.003906 38.328125 -19.078125 C 38.722656 -17.117188 38.816406 -15.164062 38.609375 -13.21875 C 38.398438 -11.269531 37.75 -9.453125 36.65625 -7.765625 C 35.570312 -6.078125 33.976562 -5.046875 31.875 -4.671875 L 27.703125 -3.828125 L 26.328125 -10.671875 L 30.734375 -11.5625 C 31.242188 -11.664062 31.613281 -12.125 31.84375 -12.9375 C 32.070312 -13.757812 32.195312 -14.582031 32.21875 -15.40625 C 32.25 -16.226562 32.179688 -17.0625 32.015625 -17.90625 C 31.859375 -18.6875 31.597656 -19.476562 31.234375 -20.28125 C 30.878906 -21.082031 30.445312 -21.785156 29.9375 -22.390625 C 29.425781 -22.992188 28.914062 -23.257812 28.40625 -23.1875 L 25.921875 -22.6875 L 26.03125 -20.546875 C 26.207031 -18.085938 26.109375 -15.710938 25.734375 -13.421875 C 25.316406 -11.109375 24.476562 -9.0625 23.21875 -7.28125 C 21.957031 -5.5 20.476562 -4.367188 18.78125 -3.890625 L 11.96875 -2.515625 C 9.875 -2.054688 8.003906 -2.347656 6.359375 -3.390625 C 4.722656 -4.441406 3.445312 -5.753906 2.53125 -7.328125 C 1.625 -8.898438 0.988281 -10.601562 0.625 -12.4375 C 0.269531 -14.195312 0.21875 -15.984375 0.46875 -17.796875 C 0.71875 -19.609375 1.382812 -21.3125 2.46875 -22.90625 C 3.5625 -24.5 5.148438 -25.539062 7.234375 -26.03125 L 7.53125 -26.09375 C 7.695312 -26.164062 7.863281 -26.21875 8.03125 -26.25 L 8.234375 -26.28125 L 6.796875 -33.421875 Z M 8.359375 -19.15625 C 7.847656 -19.019531 7.46875 -18.613281 7.21875 -17.9375 C 6.96875 -17.257812 6.816406 -16.5625 6.765625 -15.84375 C 6.722656 -15.125 6.769531 -14.429688 6.90625 -13.765625 C 7.050781 -13.046875 7.28125 -12.367188 7.59375 -11.734375 C 7.914062 -11.097656 8.320312 -10.507812 8.8125 -9.96875 C 9.3125 -9.425781 9.816406 -9.207031 10.328125 -9.3125 L 11.59375 -9.5625 L 9.625 -19.40625 Z M 19.03125 -12.546875 C 19.488281 -13.585938 19.757812 -14.722656 19.84375 -15.953125 C 19.9375 -17.191406 19.929688 -18.519531 19.828125 -19.9375 L 19.734375 -21.453125 L 15.8125 -20.65625 L 17.75 -11.015625 C 18.3125 -11.378906 18.738281 -11.890625 19.03125 -12.546875 Z M 19.03125 -12.546875 "/></g></g></g><g fill="#ffffff" fill-opacity="1"><g transform="translate(622.395735, 95.975736)"><g><path d="M 0.203125 -31.3125 L 24.0625 -36.125 C 25.019531 -36.3125 25.882812 -36.21875 26.65625 -35.84375 C 27.40625 -35.425781 27.859375 -34.847656 28.015625 -34.109375 C 28.109375 -33.640625 28.066406 -33.175781 27.890625 -32.71875 L 22.25 -26.515625 L 23.71875 -26.8125 C 23.925781 -26.851562 24.132812 -26.875 24.34375 -26.875 L 24.640625 -26.9375 C 26.347656 -27.21875 28.078125 -26.957031 29.828125 -26.15625 C 31.578125 -25.363281 32.929688 -24.328125 33.890625 -23.046875 C 34.847656 -21.765625 35.46875 -20.40625 35.75 -18.96875 C 36.144531 -17.039062 36.15625 -15.304688 35.78125 -13.765625 C 35.40625 -12.234375 34.578125 -10.644531 33.296875 -9 C 32.023438 -7.351562 30.210938 -6.238281 27.859375 -5.65625 L 12.84375 -2.625 C 12.738281 -2.601562 12.546875 -2.585938 12.265625 -2.578125 C 10.546875 -2.234375 8.96875 -2.300781 7.53125 -2.78125 C 6.09375 -3.269531 5.015625 -3.929688 4.296875 -4.765625 C 3.578125 -5.609375 3.132812 -6.457031 2.96875 -7.3125 C 2.789062 -8.1875 2.851562 -9.175781 3.15625 -10.28125 C 3.46875 -11.382812 4.238281 -12.421875 5.46875 -13.390625 C 6.707031 -14.367188 8.125 -14.976562 9.71875 -15.21875 L 15.265625 -16.34375 C 18.328125 -16.8125 20.734375 -16.320312 22.484375 -14.875 C 23.722656 -13.789062 24.65625 -12.46875 25.28125 -10.90625 L 27.0625 -11.265625 C 27.707031 -11.390625 28.1875 -11.753906 28.5 -12.359375 C 28.820312 -12.972656 29.015625 -13.644531 29.078125 -14.375 C 29.140625 -15.113281 29.0625 -16.03125 28.84375 -17.125 C 28.71875 -17.757812 28.484375 -18.398438 28.140625 -19.046875 C 27.796875 -19.703125 27.359375 -20.238281 26.828125 -20.65625 C 26.304688 -21.082031 25.722656 -21.234375 25.078125 -21.109375 L -0.109375 -16.046875 L -1.265625 -21.796875 L 13.15625 -24.6875 L 16.96875 -29.078125 L 1.28125 -25.921875 Z M 16.21875 -11.8125 L 10.9375 -10.75 C 10.570312 -10.707031 10.273438 -10.585938 10.046875 -10.390625 C 9.816406 -10.191406 9.664062 -9.960938 9.59375 -9.703125 C 9.519531 -9.441406 9.492188 -9.257812 9.515625 -9.15625 C 9.554688 -8.945312 9.65625 -8.757812 9.8125 -8.59375 C 9.976562 -8.4375 10.203125 -8.300781 10.484375 -8.1875 C 10.773438 -8.070312 11.101562 -8.050781 11.46875 -8.125 L 19.5 -9.734375 C 18.675781 -11.328125 17.582031 -12.019531 16.21875 -11.8125 Z M 16.21875 -11.8125 "/></g></g></g><g fill="#ffffff" fill-opacity="1"><g transform="translate(662.969353, 87.813816)"><g><path d="M 8.671875 -14.640625 C 11.003906 -15.109375 13.171875 -14.671875 15.171875 -13.328125 C 17.171875 -11.992188 18.40625 -10.171875 18.875 -7.859375 C 19.34375 -5.492188 18.914062 -3.3125 17.59375 -1.3125 C 16.269531 0.675781 14.445312 1.90625 12.125 2.375 C 9.8125 2.84375 7.640625 2.40625 5.609375 1.0625 C 3.578125 -0.269531 2.328125 -2.097656 1.859375 -4.421875 C 1.390625 -6.742188 1.820312 -8.910156 3.15625 -10.921875 C 4.5 -12.929688 6.335938 -14.171875 8.671875 -14.640625 Z M 7.21875 -8.28125 C 6.601562 -7.40625 6.398438 -6.441406 6.609375 -5.390625 C 6.828125 -4.347656 7.375 -3.535156 8.25 -2.953125 C 9.132812 -2.378906 10.097656 -2.195312 11.140625 -2.40625 C 12.191406 -2.613281 13 -3.148438 13.5625 -4.015625 C 14.125 -4.890625 14.296875 -5.847656 14.078125 -6.890625 C 13.867188 -7.941406 13.335938 -8.75 12.484375 -9.3125 C 11.640625 -9.882812 10.691406 -10.066406 9.640625 -9.859375 C 8.597656 -9.648438 7.789062 -9.125 7.21875 -8.28125 Z M 7.21875 -8.28125 "/></g></g></g><g fill="#ffffff" fill-opacity="1"><g transform="translate(714.973866, 77.35242)"><g/></g></g></svg>